STARTFONT 2.1
FONT "streamline_all"
SIZE 16 75 75
FONTBOUNDINGBOX 16 16 0 0
STARTPROPERTIES 3
COPYRIGHT "streamlinehq.com"
FONT_ASCENT 0
FONT_DESCENT 0
ENDPROPERTIES
STARTCHAR streamline-beauty-barber-light-sign--health-beauty.png
ENCODING 48
DWIDTH 21 0
BBX 21 21 0 0
BITMAP
c1f000
220820
27fc70
280220
27fc00
233800
3e6810
22c900
239a80
233900
226800
22c810
239a00
233800
3e6820
22c850
27fc00
280200
27fc40
2208e0
c1f040
ENDCHAR
STARTCHAR streamline-beauty-beard-style--health-beauty.png
ENCODING 49
DWIDTH 21 0
BBX 21 21 0 0
BITMAP
7f8ff0
805008
887108
925248
845088
488910
210420
1e73c0
000000
23fe20
27df20
360360
3e09e0
3c31e0
3c01e0
1e73c0
1fffc0
0fff80
0fff80
07ff00
01fc00
ENDCHAR
STARTCHAR streamline-beauty-body-care-snail--health-beauty.png
ENCODING 50
DWIDTH 21 0
BBX 21 21 0 0
BITMAP
004000
00a020
004400
2000c0
720120
207e20
0080a8
013f20
090040
03ffe0
a40010
a40010
700ff0
89e7f0
aa13f0
44cbf0
252bf0
24a8f0
25ce10
121220
0ffcc0
ENDCHAR
STARTCHAR streamline-beauty-body-care-sun-screen--health-beauty.png
ENCODING 51
DWIDTH 21 0
BBX 21 21 0 0
BITMAP
0fff80
092480
0fff80
080080
0fff80
07df00
06fb00
078f00
070700
050500
030600
038e00
02fa00
03de00
03fe00
020200
01fc00
010400
017400
018c00
01fc00
ENDCHAR
STARTCHAR streamline-beauty-cosmatic-brush-set--health-beauty.png
ENCODING 52
DWIDTH 21 0
BBX 21 21 0 0
BITMAP
3f0000
408000
804000
a14800
9e5c00
804800
549c40
4488a0
211d10
120910
1e0910
1e08e0
1a1ce0
1a1ce0
1a1ce0
1a1ce0
1a1ce0
1a1ce0
1e1ce0
1a14a0
1e1ce0
ENDCHAR
STARTCHAR streamline-beauty-cosmatic-lip-stick--health-beauty.png
ENCODING 53
DWIDTH 21 0
BBX 21 21 0 0
BITMAP
3f0000
7f8000
798000
7e8180
7e8240
7e8440
7f8840
7f8940
7f8940
7f8840
7f8840
7f8fc0
408840
408840
7f8fc0
409020
7f9fe0
7f9fe0
7f9fe0
7f9fe0
7f9fe0
ENDCHAR
STARTCHAR streamline-beauty-healthy-food-dish--health-beauty.png
ENCODING 54
DWIDTH 21 0
BBX 21 21 0 0
BITMAP
aa00e0
aa0110
aa0248
aa0228
aa0228
aa0208
82fa08
440110
2800a0
2870a0
2870a0
2870a0
2bfea0
2bfea0
2bfea0
2870a0
2870a0
2870a0
2800a0
2b06a0
10f840
ENDCHAR
STARTCHAR streamline-beauty-mirror-1--health-beauty.png
ENCODING 55
DWIDTH 21 0
BBX 21 21 0 0
BITMAP
01fc00
020200
04f900
090480
0a4280
1a92c0
1a22c0
3a42e0
2a02a0
2904a0
24f920
120240
09fc80
040100
03fe00
005000
005000
03de00
07ff00
060300
03fe00
ENDCHAR
STARTCHAR streamline-beauty-mirror-2--health-beauty.png
ENCODING 56
DWIDTH 21 0
BBX 21 21 0 0
BITMAP
01f800
03fc00
060600
0c8300
190180
1a0180
180180
189180
180180
189180
186180
180180
0c0300
070e00
01f800
00f000
00f000
00d000
00d000
00f000
006000
ENDCHAR
STARTCHAR streamline-beauty-nail-polish--health-beauty.png
ENCODING 57
DWIDTH 21 0
BBX 21 21 0 0
BITMAP
030000
048000
0840e0
0840a0
0840a0
0840a0
0840a0
0fc0a0
1020e0
601840
8fc440
bbf440
b3f440
b3f440
b3f440
9be440
4dc840
4fc8e0
2790e0
2010e0
1fe070
ENDCHAR
STARTCHAR streamline-beauty-perfume-1--health-beauty.png
ENCODING 58
DWIDTH 21 0
BBX 21 21 0 0
BITMAP
0383c0
578420
010ff0
03f810
044ff0
07c420
0fe3c0
1ff000
27c800
428400
444400
882200
882200
882200
882200
882200
882200
444400
444400
329800
0fe000
ENDCHAR
STARTCHAR streamline-beauty-perfume-2--health-beauty.png
ENCODING 59
DWIDTH 21 0
BBX 21 21 0 0
BITMAP
03f040
040910
040c40
07f910
012040
03f000
021000
3fff00
400080
800c40
800240
800140
83e140
8ff840
bfff40
bfff40
bfff40
bfff40
9ffe40
400080
3fff00
ENDCHAR
STARTCHAR streamline-building-real-eastate-deal-documant--building-real-estate.png
ENCODING 60
DWIDTH 21 0
BBX 21 21 0 0
BITMAP
3ffc00
000600
100700
380780
7c07c0
fe07e0
6c0020
6c0020
00fe20
200020
200000
200060
27f890
200150
200220
200440
27ca80
200920
200e20
200020
3fffe0
ENDCHAR
STARTCHAR streamline-building-real-eastate-for-sale--building-real-estate.png
ENCODING 61
DWIDTH 21 0
BBX 21 21 0 0
BITMAP
3fffe0
400010
800008
877608
845508
875608
845508
847508
800008
9dd1c8
915108
9dd188
855108
9d5dc8
800008
400010
3fffe0
0a0280
0a0280
1f07c0
3f8fe0
ENDCHAR
STARTCHAR streamline-building-real-eastate-house-1--building-real-estate.png
ENCODING 62
DWIDTH 21 0
BBX 21 21 0 0
BITMAP
09b0c0
224920
020890
f9f060
500000
57ff00
5e0080
5f0040
5b0040
719e20
719120
60c890
60c790
c06008
ce7ff8
514010
515dd0
595550
515dd0
514010
7ffff0
ENDCHAR
STARTCHAR streamline-building-real-eastate-house-2--building-real-estate.png
ENCODING 63
DWIDTH 21 0
BBX 21 21 0 0
BITMAP
380000
440000
8220e0
827110
7cf908
01dc88
038e70
073700
0e0380
1c61c0
3b06e0
300060
107040
1cf940
10f840
16b9c0
10b840
1cfb40
10f840
1fffc0
000000
ENDCHAR
STARTCHAR streamline-building-real-eastate-houses-location--building-real-estate.png
ENCODING 64
DWIDTH 21 0
BBX 21 21 0 0
BITMAP
007000
00f800
01dc00
018c00
01dc00
00f800
00f800
007000
042100
0e0380
1b26c0
31fc60
60d830
c18c18
cf0798
560350
567350
528a50
728a70
028a00
038e00
ENDCHAR
STARTCHAR streamline-building-real-eastate-location--building-real-estate.png
ENCODING 65
DWIDTH 21 0
BBX 21 21 0 0
BITMAP
07ff00
080080
082080
087080
08f880
09fc80
ebfeb8
09fc80
09dc80
e9dcb8
080080
078f00
008800
0a5280
165340
152540
2a8aa0
efffb8
000000
000000
000000
ENDCHAR
STARTCHAR streamline-building-real-eastate-project-blueprint--building-real-estate.png
ENCODING 66
DWIDTH 21 0
BBX 21 21 0 0
BITMAP
000000
300000
780000
fbfff8
f80008
f80008
faffc8
f84048
f84048
f875c8
fbc048
f88048
f88048
f88648
f88a48
c09248
8fe3c8
800008
400008
3ffff8
000000
ENDCHAR
STARTCHAR streamline-building-real-eastate-sign-for-rent--building-real-estate.png
ENCODING 67
DWIDTH 21 0
BBX 21 21 0 0
BITMAP
3fffe0
400010
800008
bbb088
a2a9c8
bab3e8
a2ab68
a3ab68
800008
b3a5c8
aa3488
b32c88
aa2488
aba488
800008
400010
3fffe0
0a0280
0a0280
1f07c0
3f8fe0
ENDCHAR
STARTCHAR streamline-building-real-eastate-sign-house-1--building-real-estate.png
ENCODING 68
DWIDTH 21 0
BBX 21 21 0 0
BITMAP
400000
a08040
bffff8
a08040
a08040
a3ffe0
a40010
a80808
a81c08
a83e08
a87708
a8e388
a9c1c8
a980c8
a89c88
a89488
a89488
a8f788
a80008
a40010
a3ffe0
ENDCHAR
STARTCHAR streamline-building-real-eastate-sign-house-2--building-real-estate.png
ENCODING 69
DWIDTH 21 0
BBX 21 21 0 0
BITMAP
010000
038000
07c000
0c6000
183000
339800
628c00
c38600
c00600
739c00
545400
745c00
464000
e41fe0
1cd7b0
031ff8
009870
005fe0
002480
001480
000000
ENDCHAR
STARTCHAR streamline-building-real-eastate-storage--building-real-estate.png
ENCODING 70
DWIDTH 21 0
BBX 21 21 0 0
BITMAP
00fc00
030300
047880
080040
11fe20
200010
3ffff0
200010
23ff10
240090
243e90
242a90
242290
24ff90
24aa90
000890
ff7ff0
af0000
8f0000
8f0000
ff0000
ENDCHAR
STARTCHAR streamline-business-money-coin-currency--business.png
ENCODING 71
DWIDTH 21 0
BBX 21 21 0 0
BITMAP
000000
000000
01fc00
060f00
09f380
1209c0
2444e0
28e2e0
515170
514170
50e170
505170
515170
28e2e0
2444e0
1209c0
09f380
060f00
01fc00
000000
000000
ENDCHAR
STARTCHAR streamline-business-prodect-diamond--business.png
ENCODING 72
DWIDTH 21 0
BBX 21 21 0 0
BITMAP
000100
204020
500070
27ff20
0c3f80
1c5f40
3c8f20
7d0710
fe0308
fffff8
83c3f8
43c3f0
21c7e0
11c7c0
88cf88
04cf00
225e20
715c50
20b820
027000
002100
ENDCHAR
STARTCHAR streamline-business-product-check--business.png
ENCODING 73
DWIDTH 21 0
BBX 21 21 0 0
BITMAP
000000
002000
005000
008800
0f0780
080080
080080
080480
100e40
211c20
43b810
21f020
10e040
084080
080080
080080
0f0780
008800
005000
002000
000000
ENDCHAR
STARTCHAR streamline-business-product-piggy-bank--business.png
ENCODING 74
DWIDTH 21 0
BBX 21 21 0 0
BITMAP
4e0800
111c00
2e8900
2ea000
ae8000
110800
0e6300
409480
a39c80
440040
0804a0
100020
1001f0
1003f8
100358
100358
0803f0
0401e0
04fc80
030300
000000
ENDCHAR
STARTCHAR streamline-business-product-price-tag--business.png
ENCODING 75
DWIDTH 21 0
BBX 21 21 0 0
BITMAP
800000
5fc000
202000
561000
4a0800
560400
5e0200
400100
40b080
404040
20ac20
109210
086a08
040410
021a20
010040
008080
004100
002200
001400
000800
ENDCHAR
STARTCHAR streamline-business-product-report-present-grahp--business.png
ENCODING 76
DWIDTH 21 0
BBX 21 21 0 0
BITMAP
002000
005000
fffff8
7ffff0
200020
240020
240220
240420
248820
255020
262020
240020
27ff20
200020
100040
0fff80
002000
002000
002000
005000
002000
ENDCHAR
STARTCHAR streamline-business-products-bag_1--business.png
ENCODING 77
DWIDTH 21 0
BBX 21 21 0 0
BITMAP
000000
000000
000000
7fff00
800080
800080
83fff0
840008
8403c8
840728
840728
8403c8
840008
85c008
7c0008
05f808
040008
03fff0
000000
000000
000000
ENDCHAR
STARTCHAR streamline-business-products-bag--business.png
ENCODING 78
DWIDTH 21 0
BBX 21 21 0 0
BITMAP
07fe00
080100
080100
3fffc0
400020
800010
800010
800010
800010
600060
5801a0
466620
41f820
406020
406020
400020
400020
400020
200040
1fff80
000000
ENDCHAR
STARTCHAR streamline-business-products-bag-money--business.png
ENCODING 79
DWIDTH 21 0
BBX 21 21 0 0
BITMAP
062300
055500
048900
020200
010400
00f800
010400
020200
040100
08f880
11dc40
138e40
237e20
238e20
23f620
238e20
21dc20
10f840
100040
0c0180
03fe00
ENDCHAR
STARTCHAR streamline-business-products-boat-success--business.png
ENCODING 80
DWIDTH 21 0
BBX 21 21 0 0
BITMAP
0000c0
380120
460210
8101e0
810000
7e2000
005000
008800
012400
022200
042100
3fffe0
200020
100040
3870e0
7cf9f0
c78f18
3870e0
c78f18
3870e0
000000
ENDCHAR
STARTCHAR streamline-business-product-scale--business.png
ENCODING 81
DWIDTH 21 0
BBX 21 21 0 0
BITMAP
002000
005000
0020c0
002380
002c80
003080
00e140
032140
0c2220
302220
1027f0
2827f0
2823e0
4421c0
442000
fe2000
fe2000
7c2000
38f800
010400
03fe00
ENDCHAR
STARTCHAR streamline-business-products-cash-search--business.png
ENCODING 82
DWIDTH 21 0
BBX 21 21 0 0
BITMAP
03e000
0c1800
100400
23e200
441100
488900
91c480
920480
91c480
902480
91c480
488900
441100
23e380
1007c0
0c1f60
03e7b0
0003d0
0001f0
0000e0
000000
ENDCHAR
STARTCHAR streamline-business-products-cash-shield--business.png
ENCODING 83
DWIDTH 21 0
BBX 21 21 0 0
BITMAP
01fc00
060300
19fcc0
260320
2800a0
2800a0
2820a0
2870a0
28a8a0
28a0a0
2870a0
2828a0
28a8a0
2870a0
142140
140140
0a0280
058d00
027200
018c00
007000
ENDCHAR
STARTCHAR streamline-business-products-cash-user-man-message--business.png
ENCODING 84
DWIDTH 21 0
BBX 21 21 0 0
BITMAP
007ff0
008008
008208
008708
008a88
008a08
008708
000288
1f0a88
3f8708
7fc208
60c0f0
405100
515200
405c00
414000
464000
208000
1f0000
64c000
843000
ENDCHAR
STARTCHAR streamline-business-products-climb-top--business.png
ENCODING 85
DWIDTH 21 0
BBX 21 21 0 0
BITMAP
000c00
000a00
180900
640f80
820800
7c0820
001c50
003688
003a70
007b00
007f00
00ff80
00f680
01fbc0
01de40
127020
2a0020
440010
440010
880008
880008
ENDCHAR
STARTCHAR streamline-business-products-data-file-bars--business.png
ENCODING 86
DWIDTH 21 0
BBX 21 21 0 0
BITMAP
3fff00
200280
200240
200220
2003e0
200020
200020
280020
280020
2c1820
281b20
28db20
2cdb20
28db20
28db20
2fffa0
200020
200020
200020
200020
3fffe0
ENDCHAR
STARTCHAR streamline-business-products-deal-handshake--business.png
ENCODING 87
DWIDTH 21 0
BBX 21 21 0 0
BITMAP
080000
001040
002800
001000
010000
2000a8
700050
200000
01bc00
024200
e48138
f910f8
e12038
e0d038
e00838
e00438
e02438
e11c38
f893f8
e46038
03c000
ENDCHAR
STARTCHAR streamline-business-products-factory--business.png
ENCODING 88
DWIDTH 21 0
BBX 21 21 0 0
BITMAP
000000
004c70
003250
4c0050
320050
000050
000088
000088
0183a8
068c88
18b088
60c088
8686a8
868688
808088
808088
b0b0a8
b0b088
808088
808088
000000
ENDCHAR
STARTCHAR streamline-business-products-magic-rabbit--business.png
ENCODING 89
DWIDTH 21 0
BBX 21 21 0 0
BITMAP
030600
048900
048900
025200
022200
040100
080080
3904e0
487090
5820d0
7c01f0
3fffe0
0fff80
080080
0fff80
0fff80
0fff80
0fff80
0fff80
07ff00
03fe00
ENDCHAR
STARTCHAR streamline-business-products-money--business.png
ENCODING 90
DWIDTH 21 0
BBX 21 21 0 0
BITMAP
000000
000000
000000
7ffff0
e00038
c0f818
810408
822208
847108
848108
847108
840908
847108
822208
810408
c0f818
e00038
7ffff0
000000
000000
000000
ENDCHAR
STARTCHAR streamline-business-products-network-user--business.png
ENCODING 91
DWIDTH 21 0
BBX 21 21 0 0
BITMAP
00e380
0307c0
0c2fe0
10cc60
210820
3fe820
440440
440380
880440
880920
ff9110
881110
881450
441450
4417d0
3f97d0
210fe0
10c7c0
0c26c0
0306c0
00e6c0
ENDCHAR
STARTCHAR streamline-business-products-performance-money-decrease--business.png
ENCODING 92
DWIDTH 21 0
BBX 21 21 0 0
BITMAP
300000
181800
0c3c20
066660
03c3e0
0181e0
0003e0
3e07e0
410000
808000
c18000
be01e0
c1f210
ba0808
c40418
b60de8
c5f410
360de0
05f400
020800
01f000
ENDCHAR
STARTCHAR streamline-business-products-performance-money-increase--business.png
ENCODING 93
DWIDTH 21 0
BBX 21 21 0 0
BITMAP
0007e0
00c3e0
01e1e0
0333e0
061e60
0c0c20
000000
3e0000
410000
808000
c18000
be01e0
c1f210
b20808
c40418
b60de8
85f410
460de0
35f400
020800
01f000
ENDCHAR
STARTCHAR streamline-business-products-safe--business.png
ENCODING 94
DWIDTH 21 0
BBX 21 21 0 0
BITMAP
3fffe0
400010
800008
9fffc8
900048
90f8e8
9104e8
9272e8
928a48
928a48
928a48
9272e8
9104e8
90f8e8
900048
9fffc8
800008
400010
3fffe0
080080
000000
ENDCHAR
STARTCHAR streamline-business-product-startup-1--business.png
ENCODING 95
DWIDTH 21 0
BBX 21 21 0 0
BITMAP
003000
004800
008400
01fe00
010200
023100
025900
027900
063180
0a0140
120520
120120
1605a0
1a0160
11fe20
008400
007800
000000
034b00
6c48d8
908420
ENDCHAR
STARTCHAR streamline-business-product-startup-2--business.png
ENCODING 96
DWIDTH 21 0
BBX 21 21 0 0
BITMAP
00e000
01f000
43f800
a7fc80
47fc00
040400
044420
04a470
444420
040400
040400
0c4600
14a500
244480
240480
2c0680
33f980
2000a0
015000
815000
004000
ENDCHAR
STARTCHAR streamline-business-products-treasure--business.png
ENCODING 97
DWIDTH 21 0
BBX 21 21 0 0
BITMAP
000000
000000
1fff80
200040
4000a0
7fff10
200090
100050
080030
7ffff0
400110
5d7950
5c7950
5ef950
528950
528950
5ef950
400110
3fffe0
000000
000000
ENDCHAR
STARTCHAR streamline-business-products-wallet-money--business.png
ENCODING 98
DWIDTH 21 0
BBX 21 21 0 0
BITMAP
000000
00c000
032600
0c1900
102100
3fff80
400040
880020
880020
880020
8800f0
8801b8
8801f8
8800f0
880020
880020
880020
880020
400040
3fff80
000000
ENDCHAR
STARTCHAR streamline-business-product-target--business.png
ENCODING 99
DWIDTH 21 0
BBX 21 21 0 0
BITMAP
00f820
030660
0c00f8
10f8f0
23fce0
270100
4c0210
4c7490
9888c8
9914c8
9924c8
9904c8
9888c8
4c7190
4c0190
270320
23fe20
10f840
0c0180
030600
00f800
ENDCHAR
STARTCHAR streamline-change-clean-energy--ecology.png
ENCODING 100
DWIDTH 21 0
BBX 21 21 0 0
BITMAP
0001f8
010108
018210
01c220
0fe440
31c4f0
418810
410e20
800240
800480
800500
01ca08
068c08
188008
208410
4c8c10
511c60
223f80
dc1c00
000c00
000400
ENDCHAR
STARTCHAR streamline-chat-email--email.png
ENCODING 101
DWIDTH 21 0
BBX 21 21 0 0
BITMAP
01fff0
020008
02bbe8
020008
02ff68
020008
7ffce8
800208
8002e8
9ff208
97d308
9bb290
9c7250
9ff230
9ff200
800200
800200
7c3c00
024000
014000
00c000
ENDCHAR
STARTCHAR streamline-coding-apps-websites-404-error--coding-apps-websites.png
ENCODING 102
DWIDTH 21 0
BBX 21 21 0 0
BITMAP
000000
000000
020400
400008
e00080
404000
08e010
004a38
030110
040100
327230
508850
510450
915490
f904f8
137610
170710
07ff10
03fe00
000000
000000
ENDCHAR
STARTCHAR streamline-coding-apps-websites-android--coding-apps-websites.png
ENCODING 103
DWIDTH 21 0
BBX 21 21 0 0
BITMAP
100040
080080
04f900
030600
040100
09fc80
0b7680
13fe40
100040
3fffe0
500050
500050
500050
500050
500050
300060
100040
080080
067300
025200
018c00
ENDCHAR
STARTCHAR streamline-coding-apps-websites-browser-bugs-2--coding-apps-websites.png
ENCODING 104
DWIDTH 21 0
BBX 21 21 0 0
BITMAP
7ffff0
800008
80d808
805008
827208
828a08
81fc08
81fc08
870708
81dc08
81dc08
83de08
827208
800008
fffff8
800008
800008
7ffff0
010400
020200
03fe00
ENDCHAR
STARTCHAR streamline-coding-apps-websites--coding-apps-websites.png
ENCODING 105
DWIDTH 21 0
BBX 21 21 0 0
BITMAP
7ffff0
800008
bfffe8
bfffe8
b45168
b55568
b55568
b45168
bfffe8
b14568
b55568
b55568
b14568
bfffe8
bdfde8
befbe8
befbe8
bd8de8
bfffe8
800008
7ffff0
ENDCHAR
STARTCHAR streamline-coding-apps-websites-conference--coding-apps-websites.png
ENCODING 106
DWIDTH 21 0
BBX 21 21 0 0
BITMAP
000000
000000
000000
1fffc0
210020
210020
2d0c20
211e20
3f3f20
3f2120
212120
211220
2d0c20
213320
3f40a0
fffff8
800008
7ffff0
000000
000000
000000
ENDCHAR
STARTCHAR streamline-coding-apps-websites-constuction--coding-apps-websites.png
ENCODING 107
DWIDTH 21 0
BBX 21 21 0 0
BITMAP
7fffc0
800020
aa0020
800020
ffffe0
800020
8a0a20
840420
8a0a00
80e000
811000
800000
81fff8
91ccc8
a99998
393338
45fff8
442040
fe2040
822040
fe2040
ENDCHAR
STARTCHAR streamline-coding-apps-websites-database--coding-apps-websites.png
ENCODING 108
DWIDTH 21 0
BBX 21 21 0 0
BITMAP
000000
03fc00
1c0380
600060
800010
c00030
b801f0
87fff0
b003f0
b003f0
8383f0
c003d0
b80230
87fdf0
b003f0
b003f0
8383f0
4003e0
3803c0
07fe00
000000
ENDCHAR
STARTCHAR streamline-coding-apps-websites-dinosaur-error--coding-apps-websites.png
ENCODING 109
DWIDTH 21 0
BBX 21 21 0 0
BITMAP
018018
000000
07f8c0
c80400
0a0400
0a0400
083c20
080428
087838
0840a0
11c0e0
924020
d3f020
a25020
83c7f8
444000
23c448
1f6000
080000
0c0000
000000
ENDCHAR
STARTCHAR streamline-coding-apps-websites-favorite-rate--coding-apps-websites.png
ENCODING 110
DWIDTH 21 0
BBX 21 21 0 0
BITMAP
01e000
061800
188600
214100
422080
9e3c40
900440
880840
843fe0
844010
898d88
8a9fc8
449fc8
208f88
208708
478208
f84008
003e10
000120
0000a0
000060
ENDCHAR
STARTCHAR streamline-coding-apps-websites-finder--coding-apps-websites.png
ENCODING 111
DWIDTH 21 0
BBX 21 21 0 0
BITMAP
3fffc0
7fe020
ffe010
ffe010
ffc010
f7c110
f78110
ff8010
ff0010
fe0010
fe0010
ffc010
ffc010
f7c210
fbe410
fc3810
ffe010
fff010
7ff020
3fffc0
000000
ENDCHAR
STARTCHAR streamline-coding-apps-websites-firewall--coding-apps-websites.png
ENCODING 112
DWIDTH 21 0
BBX 21 21 0 0
BITMAP
003800
005000
0251c0
054a80
028480
421080
3a3510
146960
11bca0
10f420
08dc40
067980
000000
f7efd8
f7efd8
000000
df7ef8
df7ef8
000000
fbf7d8
fbf7d8
ENDCHAR
STARTCHAR streamline-coding-apps-websites-live-status--coding-apps-websites.png
ENCODING 113
DWIDTH 21 0
BBX 21 21 0 0
BITMAP
000000
007000
018c00
060300
087080
118c40
020200
047100
008800
000000
000000
7ffff0
fffff8
dd5198
dd5798
dd51f8
dd57f8
c5b1f8
fffff8
7ffff0
000000
ENDCHAR
STARTCHAR streamline-coding-apps-websites-mobile--coding-apps-websites.png
ENCODING 114
DWIDTH 21 0
BBX 21 21 0 0
BITMAP
0003f0
000738
0005e8
000408
000528
000408
000528
7ffcc8
800408
88a408
9097f8
a10bf0
921200
8a2200
800200
fffe00
800200
7ffc00
044000
082000
0fe000
ENDCHAR
STARTCHAR streamline-coding-apps-websites-module--coding-apps-websites.png
ENCODING 115
DWIDTH 21 0
BBX 21 21 0 0
BITMAP
000000
000000
006000
00f000
066600
0f0f00
266640
58f1a0
466620
419820
406020
402020
402020
402020
202040
182180
062600
01b800
006000
000000
000000
ENDCHAR
STARTCHAR streamline-coding-apps-websites-music-player--coding-apps-websites.png
ENCODING 116
DWIDTH 21 0
BBX 21 21 0 0
BITMAP
7ffff0
800008
bfffe8
a00028
a03828
a04828
a45928
a4c1a8
a40128
ac0328
a00028
a00028
bfffe8
800008
804008
8a6288
927248
8a6288
804008
800008
7ffff0
ENDCHAR
STARTCHAR streamline-coding-apps-websites-phone-tablet--coding-apps-websites.png
ENCODING 117
DWIDTH 21 0
BBX 21 21 0 0
BITMAP
7ff800
fa7c00
8fc400
800400
800400
b33400
b33400
800400
800000
b33800
b32400
802200
801100
b10880
b38440
810220
800110
8004a0
800440
fffc00
7ff800
ENDCHAR
STARTCHAR streamline-coding-apps-websites-plugin--coding-apps-websites.png
ENCODING 118
DWIDTH 21 0
BBX 21 21 0 0
BITMAP
001000
401800
001400
0e1200
111f10
208038
208010
20bf80
112080
0e2080
002080
1fffe0
3ff870
7ff878
ffe878
100840
100840
100840
100840
100840
1fffc0
ENDCHAR
STARTCHAR streamline-coding-apps-websites-programming-browser-bugs-1--coding-apps-websites.png
ENCODING 119
DWIDTH 21 0
BBX 21 21 0 0
BITMAP
7fffc0
800020
aa0020
800020
ffffe0
800020
800020
bf0120
800c80
8013a0
bf96c0
800ff0
802aa8
bf9fe0
8006c0
800b80
7fe210
000100
000010
066660
080000
ENDCHAR
STARTCHAR streamline-coding-apps-websites-programming-browser--coding-apps-websites.png
ENCODING 120
DWIDTH 21 0
BBX 21 21 0 0
BITMAP
000000
7ffff0
800008
aa0008
800008
fffff8
800008
800008
9fffc8
9fffc8
9dffc8
9effc8
9f61c8
9effc8
9dffc8
9fffc8
9fffc8
800008
800008
7ffff0
000000
ENDCHAR
STARTCHAR streamline-coding-apps-websites-programming-bug--coding-apps-websites.png
ENCODING 121
DWIDTH 21 0
BBX 21 21 0 0
BITMAP
020200
010400
00f800
710470
125240
120240
1bfec0
040100
0fdf80
0b8e80
3f57e0
2f57a0
ef8fb8
0ddd80
0ada80
1dddc0
1fdfc0
175740
11dc40
08d880
080080
ENDCHAR
STARTCHAR streamline-coding-apps-websites-programming-hold-code--coding-apps-websites.png
ENCODING 122
DWIDTH 21 0
BBX 21 21 0 0
BITMAP
011400
021200
042100
082080
042100
024200
114440
2800a0
480090
480090
900048
900048
8c0188
920248
910448
488890
448910
208820
208820
110440
000000
ENDCHAR
STARTCHAR streamline-coding-apps-websites-search-bug--coding-apps-websites.png
ENCODING 123
DWIDTH 21 0
BBX 21 21 0 0
BITMAP
03e000
0c1800
100400
236200
49c900
4a2900
87f080
87f080
9c1c80
877080
877080
4f7900
49c900
200380
1007c0
0c1f60
03e7b0
0003d0
0001f0
0000e0
000000
ENDCHAR
STARTCHAR streamline-coding-apps-websites-setting-computer--coding-apps-websites.png
ENCODING 124
DWIDTH 21 0
BBX 21 21 0 0
BITMAP
000e00
002a80
1e5140
208020
204e40
219b30
211110
219b30
204e40
208020
205140
202a80
200e20
3e00e0
400010
400010
807008
800008
fffff8
7ffff0
000000
ENDCHAR
STARTCHAR streamline-coding-apps-websites-shield-lock--coding-apps-websites.png
ENCODING 125
DWIDTH 21 0
BBX 21 21 0 0
BITMAP
01fc00
060300
19fcc0
260360
2800a0
2800a0
2870a0
2888a0
2888a0
29fca0
29dca0
29dca0
29fca0
29fca0
14f940
140140
0a0280
058d00
027200
018c00
007000
ENDCHAR
STARTCHAR streamline-coding-apps-websites-solves--coding-apps-websites.png
ENCODING 126
DWIDTH 21 0
BBX 21 21 0 0
BITMAP
006000
009000
010800
010800
1e0780
200040
400020
400020
400020
700020
080020
040020
040020
080020
700020
400020
400020
400020
200040
1fff80
000000
ENDCHAR
STARTCHAR streamline-coding-app-website-ui--coding-apps-websites.png
ENCODING 127
DWIDTH 21 0
BBX 21 21 0 0
BITMAP
7ffff0
800008
aa0008
800008
fffff8
800008
800008
9fffc8
900248
960c48
963048
904048
9fffc8
800008
800008
9fe3c8
800008
9fe3c8
800008
800008
7ffff0
ENDCHAR
STARTCHAR streamline-computer-old-electronics-bug--computers-devices-electronics.png
ENCODING 128
DWIDTH 21 0
BBX 21 21 0 0
BITMAP
1fffc0
200020
2fffa0
2800a0
2904a0
28f8a0
29aca0
2bfea0
2afaa0
2a8aa0
2800a0
2fffa0
200020
1fffc0
080080
7ffff0
400010
480f90
400110
400010
7ffff0
ENDCHAR
STARTCHAR streamline-computer-old-electronics--computers-devices-electronics.png
ENCODING 129
DWIDTH 21 0
BBX 21 21 0 0
BITMAP
1fffc0
200020
2fffa0
2800a0
2800a0
2888a0
2800a0
2888a0
2870a0
2800a0
2800a0
2fffa0
200020
1fffc0
080080
7ffff0
400010
4c0f90
4c0010
400010
7ffff0
ENDCHAR
STARTCHAR streamline-computers-devices-electronics-battery-charge--computers-devices-electronics.png
ENCODING 130
DWIDTH 21 0
BBX 21 21 0 0
BITMAP
011000
02a800
02a800
72a980
82a840
87fc20
87fc38
86ec08
87fc08
86ec08
831838
81f020
804040
7e5f80
004000
004000
004000
018000
020000
040000
000000
ENDCHAR
STARTCHAR streamline-computers-devices-electronics-board--computers-devices-electronics.png
ENCODING 131
DWIDTH 21 0
BBX 21 21 0 0
BITMAP
000700
000500
000700
070200
070200
070270
020270
027270
027220
027220
3a2220
292440
38a880
10a900
08aa00
c4aa18
c2aa18
22aa20
12aa40
0aaa80
0aaa80
ENDCHAR
STARTCHAR streamline-computers-devices-electronicscd-disk--computers-devices-electronics.png
ENCODING 132
DWIDTH 21 0
BBX 21 21 0 0
BITMAP
00f800
034600
0e4180
124040
212020
212020
70a010
4cf010
838818
8175f8
8156a8
817558
808ea8
487fd0
480ff0
2407e0
2307e0
1003c0
0c0380
030600
00f800
ENDCHAR
STARTCHAR streamline-computers-devices-electronics-chipset--computers-devices-electronics.png
ENCODING 133
DWIDTH 21 0
BBX 21 21 0 0
BITMAP
048900
048900
048900
0fff80
100040
f3fe78
17ff40
160d40
f7fd78
167940
17f140
17e140
f7c178
171540
140140
f3fe78
100040
0fff80
048900
048900
048900
ENDCHAR
STARTCHAR streamline-computers-devices-electronics-click-select-tablet--computers-devices-electronics.png
ENCODING 134
DWIDTH 21 0
BBX 21 21 0 0
BITMAP
7ffff0
c00018
c01018
c11118
c09238
c00028
c01838
c02428
c02428
c02438
c02418
c027c8
c0e020
7d2490
012488
010488
010008
008008
004008
002010
002020
ENDCHAR
STARTCHAR streamline-computers-devices-electronics-desktop--computers-devices-electronics.png
ENCODING 135
DWIDTH 21 0
BBX 21 21 0 0
BITMAP
7fffe0
800010
bfffd0
a00050
a00a50
a01f50
a00e50
a00450
a00050
a00050
a00050
bfffd0
800010
7fffe0
010800
0fff00
100080
249240
494920
800010
fffff0
ENDCHAR
STARTCHAR streamline-computers-devices-electronics-earpod-sound--computers-devices-electronics.png
ENCODING 136
DWIDTH 21 0
BBX 21 21 0 0
BITMAP
000000
007840
018420
021210
041a90
081a50
101a50
201a50
421a90
451210
488420
487840
480000
480000
480000
480000
480000
480000
480000
300000
000000
ENDCHAR
STARTCHAR streamline-computers-devices-electronics-flash-drive-1--computers-devices-electronics.png
ENCODING 137
DWIDTH 21 0
BBX 21 21 0 0
BITMAP
01fc00
010400
015400
015400
010400
03fe00
07ff00
040100
040100
040100
040100
040100
040100
040100
048900
040100
048900
047100
040100
020200
01fc00
ENDCHAR
STARTCHAR streamline-computers-devices-electronics-flash-drive-2--computers-devices-electronics.png
ENCODING 138
DWIDTH 21 0
BBX 21 21 0 0
BITMAP
01fc00
020200
02fa00
020200
020200
07ff00
040100
042100
042100
052100
052500
052500
04a900
047100
047100
047100
040100
040100
040100
020200
01fc00
ENDCHAR
STARTCHAR streamline-computers-devices-electronics-graphic-tablet--computers-devices-electronics.png
ENCODING 139
DWIDTH 21 0
BBX 21 21 0 0
BITMAP
080000
060000
010000
010000
0e0000
100000
100000
7ffff0
800008
b7ffe8
840028
b581a8
8500a8
b40028
b40028
8500a8
b581a8
840028
b7ffe8
800008
7ffff0
ENDCHAR
STARTCHAR streamline-computers-devices-electronics-graphic-tablet-draw--computers-devices-electronics.png
ENCODING 140
DWIDTH 21 0
BBX 21 21 0 0
BITMAP
000000
000000
7ffe60
8000e8
bff9c8
a00388
a30728
a48e28
a91c28
a23828
a43028
a44028
a38028
a00028
a00028
bfffe8
800008
7ffff0
000000
000000
000000
ENDCHAR
STARTCHAR streamline-computers-devices-electronics-harddisk--computers-devices-electronics.png
ENCODING 141
DWIDTH 21 0
BBX 21 21 0 0
BITMAP
3fffe0
400010
50f850
430610
440110
441910
480490
482290
485290
482090
480090
448110
410110
420650
44f8d0
5e01d0
5e03d0
400010
500050
400010
3fffe0
ENDCHAR
STARTCHAR streamline-computers-devices-electronics-keyboard-button--computers-devices-electronics.png
ENCODING 142
DWIDTH 21 0
BBX 21 21 0 0
BITMAP
07fe00
040500
04a480
05f480
04e480
044480
040480
07fc80
040280
020180
ffffe0
80c050
98c448
a4ca48
a4d148
98df48
80c048
ffffc8
805028
403018
3ffff8
ENDCHAR
STARTCHAR streamline-computers-devices-electronics-keyboard--computers-devices-electronics.png
ENCODING 143
DWIDTH 21 0
BBX 21 21 0 0
BITMAP
000800
000800
0ff000
100000
100000
0ffc00
000200
000100
000200
00fc00
010000
010000
7ffff0
800008
955508
800048
aaaac8
800008
9bfec8
800008
7ffff0
ENDCHAR
STARTCHAR streamline-computers-devices-electronics-keyboard-pad--computers-devices-electronics.png
ENCODING 144
DWIDTH 21 0
BBX 21 21 0 0
BITMAP
010000
00fc00
000200
3fffc0
400020
5ef7a0
5294a0
5294a0
5ef7a0
400020
5ef7a0
5294a0
5294a0
5ef7a0
400020
5effa0
52f6a0
52f9a0
5effa0
400020
3fffc0
ENDCHAR
STARTCHAR streamline-computers-devices-electronics-keyboard-wireless--computers-devices-electronics.png
ENCODING 145
DWIDTH 21 0
BBX 21 21 0 0
BITMAP
00f800
030600
0c0180
107040
218c20
060300
087080
008800
000000
000000
3fffe0
400010
555550
800008
aaaaa8
800008
9bfec8
43fe10
400010
3fffe0
000000
ENDCHAR
STARTCHAR streamline-computers-devices-electronics-laptop--computers-devices-electronics.png
ENCODING 146
DWIDTH 21 0
BBX 21 21 0 0
BITMAP
000000
1fffc0
200020
200020
200020
200020
200020
20a820
200020
200020
200020
200020
3fffe0
400010
400010
807008
800008
fffff8
7ffff0
000000
000000
ENDCHAR
STARTCHAR streamline-computers-devices-electronics-memory--computers-devices-electronics.png
ENCODING 147
DWIDTH 21 0
BBX 21 21 0 0
BITMAP
07ffc0
0bffa0
12aaa0
22aaa0
42aaa0
47ffa0
400020
400020
6000e0
6000a0
6000e0
6000e0
410820
400020
40f020
400020
400020
400020
5fffa0
400020
3fffc0
ENDCHAR
STARTCHAR streamline-computers-devices-electronicsmicrochip-board--computers-devices-electronics.png
ENCODING 148
DWIDTH 21 0
BBX 21 21 0 0
BITMAP
000000
02aa00
200020
0fff00
7fffe0
0b6d20
6fff20
200020
2924a0
2fffb0
3800e0
2800a0
2fff80
692480
000000
7b94a0
7bbea0
7bbea0
000000
000000
000000
ENDCHAR
STARTCHAR streamline-computers-devices-electronics-mobile-qr-scan--computers-devices-electronics.png
ENCODING 149
DWIDTH 21 0
BBX 21 21 0 0
BITMAP
0fff00
1f4f80
11f880
100080
100080
100080
136c80
120480
12a480
103080
128480
10a880
120480
136c80
100080
100080
100080
100080
100080
1fff80
0fff00
ENDCHAR
STARTCHAR streamline-computers-devices-electronics-monitor--computers-devices-electronics.png
ENCODING 150
DWIDTH 21 0
BBX 21 21 0 0
BITMAP
7ffff0
800008
800008
800108
800388
800108
800008
810408
800008
800008
81fc08
800008
800008
800008
fffff8
fffff8
fffff8
7ffff0
010400
020200
03fe00
ENDCHAR
STARTCHAR streamline-computers-devices-electronics-mouse--computers-devices-electronics.png
ENCODING 151
DWIDTH 21 0
BBX 21 21 0 0
BITMAP
080000
106000
219000
221000
1cfe00
01ef00
03c780
07c7c0
07efc0
07ffc0
07ffc0
05ef40
040040
040040
040040
040140
040140
040240
020c80
018300
007c00
ENDCHAR
STARTCHAR streamline-computers-devices-electronics-smart-watch--computers-devices-electronics.png
ENCODING 152
DWIDTH 21 0
BBX 21 21 0 0
BITMAP
01f000
03f800
07fc00
000000
07fc00
080200
107100
100900
106580
101580
105500
101500
10e500
120900
11f100
080200
07fc00
000000
07fc00
03f800
01f000
ENDCHAR
STARTCHAR streamline-computers-devices-electronics-tablet--computers-devices-electronics.png
ENCODING 153
DWIDTH 21 0
BBX 21 21 0 0
BITMAP
1fffc0
3fffe0
300060
300060
300060
37df60
345160
357560
345160
37df60
300060
300860
303060
300060
300060
300060
300060
300060
3fffe0
3fdfe0
1fffc0
ENDCHAR
STARTCHAR streamline-computers-devices-electronics-tape-cassette--computers-devices-electronics.png
ENCODING 154
DWIDTH 21 0
BBX 21 21 0 0
BITMAP
000000
000000
000000
7ffff0
800008
a3fe28
800008
800008
8fff88
998cc8
99fcc8
8fff88
800008
800008
83fe08
a40128
880088
7ffff0
000000
000000
000000
ENDCHAR
STARTCHAR streamline-computers-devices-electronics-television-vintage--computers-devices-electronics.png
ENCODING 155
DWIDTH 21 0
BBX 21 21 0 0
BITMAP
104000
088000
050000
020000
7ffff0
800008
9ffc08
a002a8
a00208
a002a8
a00208
a002a8
a00208
a002e8
a002a8
a002e8
9ffce8
800008
7ffff0
200020
1fffc0
ENDCHAR
STARTCHAR streamline-computers-devices-electronics-vintage-mac--computers-devices-electronics.png
ENCODING 156
DWIDTH 21 0
BBX 21 21 0 0
BITMAP
0fff80
100040
27ff20
2800a0
2800a0
281ca0
2836a0
2a9ea0
283ea0
281ca0
2800a0
2800a0
27ff20
200020
200020
240f20
200020
200020
1fffc0
080080
07ff00
ENDCHAR
STARTCHAR streamline-computers-devices-electronics-webcam--computers-devices-electronics.png
ENCODING 157
DWIDTH 21 0
BBX 21 21 0 0
BITMAP
00f800
030600
040100
08f880
090480
127240
12ea40
12fa40
12fa40
127240
090480
08f880
040100
030600
00f800
005000
00f800
030600
040100
080080
07ff00
ENDCHAR
STARTCHAR streamline-construction-building-real-eastate--building-real-estate.png
ENCODING 158
DWIDTH 21 0
BBX 21 21 0 0
BITMAP
300000
280000
280000
ffffc0
440020
47fff0
380020
280020
280800
290920
29fde0
290920
2bdf78
2a51c8
2a7008
2a0008
2accc8
2accc8
2a0008
2a3308
2a3308
ENDCHAR
STARTCHAR streamline-content-files-archive-books-1--content-files.png
ENCODING 159
DWIDTH 21 0
BBX 21 21 0 0
BITMAP
007fe0
07c020
3c4820
25c020
2541f8
254208
254208
254408
254408
654808
654808
e55008
e55248
ffe008
842248
842188
b5a008
b5a008
842008
842008
000000
ENDCHAR
STARTCHAR streamline-content-files-archive-books-2--content-files.png
ENCODING 160
DWIDTH 21 0
BBX 21 21 0 0
BITMAP
1ffff0
200108
200108
21e108
200108
000108
fe0f08
83e108
823d08
412508
411308
ffff08
803f08
803f08
8e3f08
803f08
803f08
803f08
7ffff8
200108
200108
ENDCHAR
STARTCHAR streamline-content-files-archive-books-3--content-files.png
ENCODING 161
DWIDTH 21 0
BBX 21 21 0 0
BITMAP
1ffc00
700400
53fe00
520200
527f80
524140
524120
5241e0
524020
fffff8
ff0008
c30008
e70008
ff0008
ff0008
ff0428
ff0188
ff0008
ff07e8
ff0008
000000
ENDCHAR
STARTCHAR streamline-content-files-book--content-files.png
ENCODING 162
DWIDTH 21 0
BBX 21 21 0 0
BITMAP
3ffff0
400020
9fffe0
c00020
bffff0
900010
900010
90fe10
91ff10
93ff90
938390
930190
924490
920090
924490
923890
910110
90fe10
900010
500010
3fffe0
ENDCHAR
STARTCHAR streamline-content-files-books-1--content-files.png
ENCODING 163
DWIDTH 21 0
BBX 21 21 0 0
BITMAP
006000
019800
060600
18e180
63fc40
8ff0c0
e3c740
b81cc0
ce7380
73ce80
dc38e0
86e3f0
c38ff0
703f90
fcfe60
bff980
cfe600
339800
0d6000
038000
000000
ENDCHAR
STARTCHAR streamline-content-files-books-2--content-files.png
ENCODING 164
DWIDTH 21 0
BBX 21 21 0 0
BITMAP
000000
7fff80
804080
b09f00
804080
7fff80
ffc080
cf9f00
ffc080
7ffff8
260808
4c13d0
4c1010
4c13d0
260808
7ffff8
ff7008
fee7f0
ff7008
7ffff8
000000
ENDCHAR
STARTCHAR streamline-content-files-close-book-bookmark--content-files.png
ENCODING 165
DWIDTH 21 0
BBX 21 21 0 0
BITMAP
3ffff0
400020
9fbe60
c01d20
bfceb0
900e90
900e90
900f90
900f90
900f90
900f90
900f90
900d90
900890
900010
900010
900010
900010
900010
500010
3fffe0
ENDCHAR
STARTCHAR streamline-content-files-draw-content--content-files.png
ENCODING 166
DWIDTH 21 0
BBX 21 21 0 0
BITMAP
ffff00
800100
810100
892500
a54900
97f100
880800
9004c0
977120
9223a0
9007c0
908f80
521f00
53be00
505c40
4c4820
237010
2000e0
200300
1ffc00
000000
ENDCHAR
STARTCHAR streamline-content-files-favorite-book--content-files.png
ENCODING 167
DWIDTH 21 0
BBX 21 21 0 0
BITMAP
1fffc0
200020
480020
486c20
48fe20
48fe20
487c20
483820
481020
480020
48fe20
480020
483820
480020
400020
4fffe0
500020
67ffa0
230020
1b7fc0
010000
ENDCHAR
STARTCHAR streamline-content-files-folder-open--content-files.png
ENCODING 168
DWIDTH 21 0
BBX 21 21 0 0
BITMAP
0fffc0
0800e0
0800f0
0800f8
0800f8
084408
080008
083808
7c0008
820008
81ff88
800048
400048
400028
200028
200018
100018
100008
080008
080008
07fff0
ENDCHAR
STARTCHAR streamline-content-files-newspaper--content-files.png
ENCODING 169
DWIDTH 21 0
BBX 21 21 0 0
BITMAP
7fff00
800080
800080
bffe80
a1fef0
a3fe88
a7fe88
bffea8
8000a8
beeea8
800ea8
beeea8
8000a8
bffea8
8000a8
bffea8
8000a8
8ffe88
400050
3fffe0
000000
ENDCHAR
STARTCHAR streamline-content-files-note-book--content-files.png
ENCODING 170
DWIDTH 21 0
BBX 21 21 0 0
BITMAP
3fff80
400040
400070
e00050
43fc50
47fe70
460650
e7fe50
460670
47fe50
e3fc50
400070
400040
e00040
400040
400040
400a40
e00040
400e40
400040
3fff80
ENDCHAR
STARTCHAR streamline-content-files-note--content-files.png
ENCODING 171
DWIDTH 21 0
BBX 21 21 0 0
BITMAP
1fff00
000080
3ffc40
200e20
200f20
278fa0
200fa0
2000a0
2000a0
27fca0
2000a0
2000a0
2000a0
27fca0
2000a0
2000a0
2000a0
27fca0
2000a0
2000a0
3fff80
ENDCHAR
STARTCHAR streamline-content-files-notepad--content-files.png
ENCODING 172
DWIDTH 21 0
BBX 21 21 0 0
BITMAP
009200
03ffc0
0492e0
0400b0
080130
080130
112230
1003b0
222430
21c430
400fb0
400830
801030
801fb0
7fe030
020030
02ffb0
020030
020030
020030
01ffe0
ENDCHAR
STARTCHAR streamline-content-files-open-book-bookmark--content-files.png
ENCODING 173
DWIDTH 21 0
BBX 21 21 0 0
BITMAP
000000
1fdfc0
6e2030
aeaea8
ae2028
aeafa8
ae2028
aeaf28
ae2028
aaada8
a02028
a7afa8
a02028
abafa8
a02028
a02028
bfffe8
807008
7f07f0
00f800
000000
ENDCHAR
STARTCHAR streamline-content-files-open-book--content-files.png
ENCODING 174
DWIDTH 21 0
BBX 21 21 0 0
BITMAP
000000
000000
0f8f80
105040
372760
50a850
502050
572750
50a850
502050
572750
502050
53ae50
5fffd0
5c71d0
438e10
4c7190
300060
000000
000000
000000
ENDCHAR
STARTCHAR streamline-content-files-pdf--content-files.png
ENCODING 175
DWIDTH 21 0
BBX 21 21 0 0
BITMAP
1fff80
100140
100120
100110
1001f0
100010
100010
100010
300010
500010
500010
7fff10
713190
755790
715190
775790
773790
3fff10
100010
100010
1ffff0
ENDCHAR
STARTCHAR streamline-content-files-pencil-brush--content-files.png
ENCODING 176
DWIDTH 21 0
BBX 21 21 0 0
BITMAP
300180
480240
840420
820a10
411110
20a2a0
104440
088880
051100
022200
044400
088a00
1111c0
222220
445410
a88870
910870
ca09f0
e405f0
f803f8
000000
ENDCHAR
STARTCHAR streamline-content-files-pencil-ruler--content-files.png
ENCODING 177
DWIDTH 21 0
BBX 21 21 0 0
BITMAP
180000
241000
443800
424400
327c00
21d400
6dd600
59dd00
47f1c0
400120
400190
400150
422150
400150
422150
41c190
400120
4001c0
300600
0c1800
03e000
ENDCHAR
STARTCHAR streamline-content-files-pen--content-files.png
ENCODING 178
DWIDTH 21 0
BBX 21 21 0 0
BITMAP
000060
0007f0
000ff8
001bf8
0037f0
006be0
00d1c0
002080
004100
008200
010400
020800
041000
3c2000
424000
418000
990000
990000
a10000
c60000
f80000
ENDCHAR
STARTCHAR streamline-content-files-phone-book--content-files.png
ENCODING 179
DWIDTH 21 0
BBX 21 21 0 0
BITMAP
3ffff0
400020
9fffe0
c00020
bffff0
900010
900010
900010
93ff10
97ff90
970390
904810
90fc10
91ce10
93b710
93b710
93cf10
91fe10
900010
500010
3fffe0
ENDCHAR
STARTCHAR streamline-content-files-quill-ink--content-files.png
ENCODING 180
DWIDTH 21 0
BBX 21 21 0 0
BITMAP
0003f0
000c20
001240
002480
004900
009200
00a200
014400
019800
01e000
020000
020000
1fc000
088000
088000
306000
7c1000
6ff000
6ff000
73f000
3fe000
ENDCHAR
STARTCHAR streamline-content-files-sticky-notepad-1--content-files.png
ENCODING 181
DWIDTH 21 0
BBX 21 21 0 0
BITMAP
000000
07f000
7fffc0
47f060
47f060
400060
400060
59f850
580090
41e090
400090
99f890
980090
81e088
800088
803f88
ffc008
080038
081fc0
0fe000
000000
ENDCHAR
STARTCHAR streamline-content-files-sticky-notepad-2--content-files.png
ENCODING 182
DWIDTH 21 0
BBX 21 21 0 0
BITMAP
01fc00
0fff80
11fc40
700040
b18c40
b25240
b22240
b10440
b08840
b05040
b02040
98d040
980c30
980008
8ffff0
87fe40
800240
7ffc40
100040
0fff80
000000
ENDCHAR
STARTCHAR streamline-content-files-typing-machine--content-files.png
ENCODING 183
DWIDTH 21 0
BBX 21 21 0 0
BITMAP
01ff80
020140
0202c0
020200
8e0380
920240
7ffff0
28f890
31fc60
100040
107040
100040
27ff20
2d55a0
4fff90
5a8ad0
9fffc8
c00018
bfffe8
800008
7ffff0
ENDCHAR
STARTCHAR streamline-content-files-write-note--content-files.png
ENCODING 184
DWIDTH 21 0
BBX 21 21 0 0
BITMAP
7ffff0
800008
bf8008
a0bfe8
aa8008
bb8008
bbbfe8
b18008
bf8008
800008
bf39e8
802408
802208
bf1128
800888
71e440
090220
050110
030088
000050
000020
ENDCHAR
STARTCHAR streamline-cursor-hand--hand-signs.png
ENCODING 185
DWIDTH 21 0
BBX 21 21 0 0
BITMAP
030000
048000
048000
048000
048000
048000
04fc00
040300
0c0080
149240
249240
249240
240040
200040
100040
100040
080080
040080
0fffc0
0ffcc0
0fffc0
ENDCHAR
STARTCHAR streamline-design-artboard-shapes--design.png
ENCODING 186
DWIDTH 21 0
BBX 21 21 0 0
BITMAP
200020
200020
c00018
1fffc0
100040
11e040
13f040
17f840
170040
177f40
174140
134140
114140
104140
104140
107f40
100040
1fffc0
c00018
200020
200020
ENDCHAR
STARTCHAR streamline-design-color-brush-paint--design.png
ENCODING 187
DWIDTH 21 0
BBX 21 21 0 0
BITMAP
000030
000048
000048
000088
000090
000110
000120
7f8220
004240
008440
070480
180880
200900
203900
1c4600
028100
04a100
38f500
41fe00
83fc00
7ff000
ENDCHAR
STARTCHAR streamline-design-color-bucket-brush--design.png
ENCODING 188
DWIDTH 21 0
BBX 21 21 0 0
BITMAP
1fe000
601800
8fc400
bff780
9fe840
cfcb40
a01b40
9fe480
804480
818480
c60480
b80840
803030
804008
407ff8
206d58
1f6d58
006fd8
00fff8
00fff0
000000
ENDCHAR
STARTCHAR streamline-design-color-bucket--design.png
ENCODING 189
DWIDTH 21 0
BBX 21 21 0 0
BITMAP
07ff00
080080
13fe40
240120
29fca0
2fffa0
2fffa0
27ffa0
33ffe0
280fa0
27ffa0
200720
200620
240620
250020
254020
254020
210020
100040
080080
07ff00
ENDCHAR
STARTCHAR streamline-design-color-painting-palette--design.png
ENCODING 190
DWIDTH 21 0
BBX 21 21 0 0
BITMAP
00fe00
030180
0c0c40
101e20
230c20
278010
478710
430890
801090
982090
bc40a0
bc4120
984240
803c80
818100
43c200
43c400
318800
081000
07e000
000000
ENDCHAR
STARTCHAR streamline-design-color-palette-sample--design.png
ENCODING 191
DWIDTH 21 0
BBX 21 21 0 0
BITMAP
7f8000
804000
bf4200
a14500
a14a80
a15740
bf6fa0
805fd0
be8fa0
a14740
82e280
bfffe0
a00010
c1f7d0
991450
a51450
a51450
991450
41f7d0
200010
1fffe0
ENDCHAR
STARTCHAR streamline-design-color-spray--design.png
ENCODING 192
DWIDTH 21 0
BBX 21 21 0 0
BITMAP
000020
000080
000220
030880
048220
04e880
048220
0fc880
102220
201080
400820
7ff800
400800
400800
41f800
421800
423800
427800
42f800
41f800
400800
ENDCHAR
STARTCHAR streamline-design-color-tube-pastel--design.png
ENCODING 193
DWIDTH 21 0
BBX 21 21 0 0
BITMAP
000000
0c0300
120480
120480
210840
7f9fe0
409020
409020
7f9fe0
7f9fe0
6d9b60
7f9fe0
6d9ce0
739b60
7f9fe0
7f9fe0
7f9fe0
409020
409020
3f0fc0
000000
ENDCHAR
STARTCHAR streamline-design-crop-edit-picture--design.png
ENCODING 194
DWIDTH 21 0
BBX 21 21 0 0
BITMAP
380000
280000
efffe0
800020
efffa0
2800a0
2980a0
2bc0a0
2bc0a0
2980a0
2807a0
2808a0
29d0a0
2a20a0
2c10a0
2808a0
2fffb8
200008
3fffb8
0000a0
0000e0
ENDCHAR
STARTCHAR streamline-design-drawing-board--design.png
ENCODING 195
DWIDTH 21 0
BBX 21 21 0 0
BITMAP
002000
1fffc0
1001c0
1491c0
12a1c0
27e380
281380
2a4b80
280b80
249380
4417c0
43e740
400740
400720
7fff20
140aa0
17faa0
140a90
2ff450
281450
381c70
ENDCHAR
STARTCHAR streamline-design-dropper-1--design.png
ENCODING 196
DWIDTH 21 0
BBX 21 21 0 0
BITMAP
000060
0006f0
000ff0
000fe0
0007c0
000be0
0011e0
0022c0
004400
00f800
01f000
03e000
03c000
038000
000000
040000
040000
000000
040000
1f0000
7fc000
ENDCHAR
STARTCHAR streamline-design-dropper-2--design.png
ENCODING 197
DWIDTH 21 0
BBX 21 21 0 0
BITMAP
0001c0
0003e0
0077f0
008fd8
0087e8
0083d8
0041b0
00a0e0
011040
020820
048420
090220
1205c0
240800
281000
282000
204000
408000
8f0000
500000
200000
ENDCHAR
STARTCHAR streamline-design-half-circle-ruler--design.png
ENCODING 198
DWIDTH 21 0
BBX 21 21 0 0
BITMAP
000000
000000
000000
000000
01fc00
062300
092480
100040
28f8a0
210420
420210
420210
e7ff38
800008
800008
a22228
7ffff0
000000
000000
000000
000000
ENDCHAR
STARTCHAR streamline-design-hilight--design.png
ENCODING 199
DWIDTH 21 0
BBX 21 21 0 0
BITMAP
000000
000000
0003e0
000430
000818
001108
002388
0047c8
008f88
011f10
013e20
029c40
024880
042100
021200
050c00
08b000
0f4000
f00000
000000
000000
ENDCHAR
STARTCHAR streamline-design-ink-pen--design.png
ENCODING 200
DWIDTH 21 0
BBX 21 21 0 0
BITMAP
000030
000048
000088
000310
000420
000840
001040
002080
004100
008200
010400
038800
1fd000
61e000
4ec000
4a8000
4e8000
508000
a10000
df0000
e00000
ENDCHAR
STARTCHAR streamline-design-layer--design.png
ENCODING 201
DWIDTH 21 0
BBX 21 21 0 0
BITMAP
006000
019800
060600
180180
600060
800010
600060
180180
e60670
7999e0
1e6780
e79e70
79f9e0
1e6780
e79e70
79f9e0
1e6780
079e00
01f800
006000
000000
ENDCHAR
STARTCHAR streamline-design-magic-wand--design.png
ENCODING 202
DWIDTH 21 0
BBX 21 21 0 0
BITMAP
000000
000400
008420
004440
002080
000000
000c00
001e70
003e00
005c00
008880
011040
022020
044000
088000
110000
220000
440000
480000
300000
000000
ENDCHAR
STARTCHAR streamline-design-pencil--design.png
ENCODING 203
DWIDTH 21 0
BBX 21 21 0 0
BITMAP
00e000
011000
03f800
020800
03f800
03fc00
03fa00
03fa00
020a00
020a00
020a00
020a00
020800
020800
020800
020800
01f000
011000
00a000
004000
004000
ENDCHAR
STARTCHAR streamline-design-ruler--design.png
ENCODING 204
DWIDTH 21 0
BBX 21 21 0 0
BITMAP
0ffff0
129248
221048
420008
820008
820008
fffff0
820000
c20000
820000
820000
e20000
820000
820000
c20000
820000
820000
e20000
820000
820000
7c0000
ENDCHAR
STARTCHAR streamline-design-stamp--design.png
ENCODING 205
DWIDTH 21 0
BBX 21 21 0 0
BITMAP
078000
084000
084000
084000
084000
084000
084000
3ff000
400800
bff400
c00c00
9fe400
b7b400
bff7e0
b7b410
b87448
9fe408
400848
3ff788
004010
003fe0
ENDCHAR
STARTCHAR streamline-design-vectors-pen-new-anchor--design.png
ENCODING 206
DWIDTH 21 0
BBX 21 21 0 0
BITMAP
002000
007000
00f800
007000
00a800
010400
020200
142140
3850e0
7c51f0
38a8e0
10a840
012400
027200
02fa00
027200
022200
010400
00f800
00f800
01fc00
ENDCHAR
STARTCHAR streamline-ecology-bush--ecology.png
ENCODING 207
DWIDTH 21 0
BBX 21 21 0 0
BITMAP
000000
000000
007000
018c00
062300
080080
100e40
264140
20e020
204020
400090
8809c8
9c0088
892008
407090
442310
300060
0fff80
000000
000000
000000
ENDCHAR
STARTCHAR streamline-ecology-cactus--ecology.png
ENCODING 208
DWIDTH 21 0
BBX 21 21 0 0
BITMAP
003800
034400
068200
07a600
030d00
008f00
388600
448260
44a290
54a290
548350
428a10
490aa0
202240
122380
080200
070a00
008a00
008200
00a200
008200
ENDCHAR
STARTCHAR streamline-ecology-clean-battery--ecology.png
ENCODING 209
DWIDTH 21 0
BBX 21 21 0 0
BITMAP
1f8000
108000
f0f000
801000
801000
bfd000
801000
801018
bfd028
bfd1c8
800608
bfc848
bf9090
802310
bf4420
bf4820
bf4840
803180
801e00
ff9000
000000
ENDCHAR
STARTCHAR streamline-ecology-clean-car-cable-charge--ecology.png
ENCODING 210
DWIDTH 21 0
BBX 21 21 0 0
BITMAP
000050
000050
0000f8
0000c8
0000e8
0000f8
000070
000020
00fe20
011120
021090
021088
041048
1fffc8
600028
80c028
800030
8c0320
9204a0
73fcc0
0c0300
ENDCHAR
STARTCHAR streamline-ecology-global-house--ecology.png
ENCODING 211
DWIDTH 21 0
BBX 21 21 0 0
BITMAP
010000
038000
06c000
0c60e0
183110
301910
739d10
145110
145110
1650e0
145040
fffff8
bf3fe8
5f0fd0
5e03d0
2c01a0
203820
10fc40
0dff80
03fe00
00f800
ENDCHAR
STARTCHAR streamline-ecology-global-warming-globe--ecology.png
ENCODING 212
DWIDTH 21 0
BBX 21 21 0 0
BITMAP
03e000
0c7800
107d00
213a80
263500
700a00
721500
782900
7cd100
7c2100
2c0200
20e200
17e180
0f8040
03c070
7c03f8
8007f8
601ff0
1e1e00
010100
00fe00
ENDCHAR
STARTCHAR streamline-ecology-global-warming-globe-fire--ecology.png
ENCODING 213
DWIDTH 21 0
BBX 21 21 0 0
BITMAP
043080
327220
98e240
5ce718
1db730
37bd70
3301e0
90f1e8
f38c70
e49270
691170
488920
1885a0
150280
123080
104880
082500
082500
044200
034c00
00f000
ENDCHAR
STARTCHAR streamline-ecology-gmo-food-fruit--ecology.png
ENCODING 214
DWIDTH 21 0
BBX 21 21 0 0
BITMAP
000020
000410
070228
008340
3e8480
408840
83d860
e03490
326f00
5d5e00
805c00
807900
808100
890100
8a0100
880100
470200
200400
181800
07e000
000000
ENDCHAR
STARTCHAR streamline-ecology-growth-plant--ecology.png
ENCODING 215
DWIDTH 21 0
BBX 21 21 0 0
BITMAP
0000a0
0001f0
0000e0
c00040
a00000
9c0d80
831fc0
909fc0
484f80
462700
212208
20a018
10a1e8
0c6608
03c828
0050c8
006310
007c20
0050c0
004f00
004000
ENDCHAR
STARTCHAR streamline-ecology-leaf-bug--ecology.png
ENCODING 216
DWIDTH 21 0
BBX 21 21 0 0
BITMAP
000030
000048
000088
003f08
03e008
0c0008
10e008
217088
41d108
40e208
800c08
803010
80c010
830020
840020
880040
500080
200300
500c00
8ff000
800000
ENDCHAR
STARTCHAR streamline-ecology-nuclear-energy--ecology.png
ENCODING 217
DWIDTH 21 0
BBX 21 21 0 0
BITMAP
01f800
060600
180180
200040
240240
4e0720
5f0fa0
9f0f90
9e6790
9ef790
80f010
806010
800010
40f020
41f820
23fc40
21f840
180180
060600
01f800
000000
ENDCHAR
STARTCHAR streamline-ecology-organic-sun-growth--ecology.png
ENCODING 218
DWIDTH 21 0
BBX 21 21 0 0
BITMAP
000100
000440
000380
000ba0
000380
110440
0a0100
040000
358c60
2e8aa0
248920
1f07c0
040100
358d60
2e8ba0
248920
1f07c0
040100
040100
7ffff0
000000
ENDCHAR
STARTCHAR streamline-ecology-plant-growth-soil-nature--ecology.png
ENCODING 219
DWIDTH 21 0
BBX 21 21 0 0
BITMAP
780000
860000
410000
288038
2440d0
124310
112410
08a990
046a20
03a440
003b80
002000
007000
018c00
020200
3ad2e0
44c110
800c08
920c48
800008
7ffff0
ENDCHAR
STARTCHAR streamline-ecology-renewable-energy-solar-panel--ecology.png
ENCODING 220
DWIDTH 21 0
BBX 21 21 0 0
BITMAP
040000
404000
0e0000
110000
208000
a0a000
208000
110000
0e0000
400000
01ff00
030180
036d80
06eec0
040040
0def60
0befa0
180030
1ffff0
002800
002800
ENDCHAR
STARTCHAR streamline-ecology-renewable-energy-wind-turbine--ecology.png
ENCODING 221
DWIDTH 21 0
BBX 21 21 0 0
BITMAP
060000
050000
048330
048cc0
044000
324330
c22cc0
012000
31a000
cc6000
009e00
019180
067060
08ac10
112308
2120f8
422000
4c7000
70f800
00f800
00f800
ENDCHAR
STARTCHAR streamline-ecology-solar-cell--ecology.png
ENCODING 222
DWIDTH 21 0
BBX 21 21 0 0
BITMAP
07ff00
080080
177740
177740
200020
2efba0
2efba0
4efb90
400010
5dfdd0
9d75c8
bdfde8
bb8ee8
bbfee8
800008
7ffff0
008800
008800
078f00
080080
0fff80
ENDCHAR
STARTCHAR streamline-ecology-tree--ecology.png
ENCODING 223
DWIDTH 21 0
BBX 21 21 0 0
BITMAP
006000
009000
010800
020400
022400
02c400
040200
042200
041a00
088100
0b0100
080100
106480
206240
226840
21f040
186180
07fe00
006000
006000
006000
ENDCHAR
STARTCHAR streamline-ecology-windmill-1--ecology.png
ENCODING 224
DWIDTH 21 0
BBX 21 21 0 0
BITMAP
100040
2800a0
440110
8a2288
517450
22fa20
15fd40
0bfe80
07ff00
0fff80
1fffc0
040100
0fff80
155540
27ff20
540150
887088
48f890
28f8a0
18b8c0
08f880
ENDCHAR
STARTCHAR streamline-ecology-windmill-2--ecology.png
ENCODING 225
DWIDTH 21 0
BBX 21 21 0 0
BITMAP
30e000
4030c0
93d820
a25c90
0bde50
1a5f00
3bdf80
0a4000
0bcfe0
084aa0
084aa0
ffffe0
aa4100
aa4100
fe7900
104900
207880
204880
207880
404840
407840
ENDCHAR
STARTCHAR streamline-ecology-wood-plant-grow--ecology.png
ENCODING 226
DWIDTH 21 0
BBX 21 21 0 0
BITMAP
000f00
081b00
0c3700
0f6e00
077c00
00f800
064300
084080
134240
145940
140140
13fe40
1800c0
17ff40
100040
904060
724850
124840
204020
408818
000000
ENDCHAR
STARTCHAR streamline-email-chat-think--email.png
ENCODING 227
DWIDTH 21 0
BBX 21 21 0 0
BITMAP
00fe00
030180
040040
040020
080020
080010
100010
111110
100010
100020
080020
040040
030180
18fe00
3c0000
3c0000
180000
400000
e00000
400000
000000
ENDCHAR
STARTCHAR streamline-email-emoji-smile-smart--email.png
ENCODING 228
DWIDTH 21 0
BBX 21 21 0 0
BITMAP
00f800
030600
0c0180
100040
200020
200020
400010
7ffff0
bfffe8
bfcfe8
9f87e8
8f03c8
800008
400010
408010
207820
200020
100040
0c0180
030600
00f800
ENDCHAR
STARTCHAR streamline-email-envelope-close--email.png
ENCODING 229
DWIDTH 21 0
BBX 21 21 0 0
BITMAP
000000
000000
3fffe0
400010
800008
a00028
a00028
900048
880088
840108
820208
818c08
827208
840108
880088
900048
800008
400010
3fffe0
000000
000000
ENDCHAR
STARTCHAR streamline-email-envelope--email.png
ENCODING 230
DWIDTH 21 0
BBX 21 21 0 0
BITMAP
000000
000000
000000
000000
7ffff0
955548
c00018
800188
c003d8
8003c8
c00198
9e0008
c00018
9f8008
c00018
955548
7ffff0
000000
000000
000000
000000
ENDCHAR
STARTCHAR streamline-email-envelope-open--email.png
ENCODING 231
DWIDTH 21 0
BBX 21 21 0 0
BITMAP
00f800
010400
020200
040100
080080
100040
200020
400010
800008
c00018
bfffe8
8fff88
83fe08
80f808
810408
820208
840108
880088
900048
600030
3fffe0
ENDCHAR
STARTCHAR streamline-email-forward-mail--email.png
ENCODING 232
DWIDTH 21 0
BBX 21 21 0 0
BITMAP
000600
000500
000480
007c40
008020
010010
020020
020040
021c80
022500
192640
3920e0
7c93f0
fe77f8
ff07f8
81fc08
80f808
820208
81fc08
800008
7ffff0
ENDCHAR
STARTCHAR streamline-email-mailbox-close--email.png
ENCODING 233
DWIDTH 21 0
BBX 21 21 0 0
BITMAP
000f00
000900
000f00
000800
1fff80
3f0840
678820
5f8820
5f8020
5f8020
5f8020
5f8020
7f8020
7f8020
3fffc0
008800
008800
008800
008800
008800
008800
ENDCHAR
STARTCHAR streamline-email-mailbox--email.png
ENCODING 234
DWIDTH 21 0
BBX 21 21 0 0
BITMAP
000000
0fff80
1c0040
360020
2e7fa0
5f3f10
5f0010
5f0010
5f1f10
5f3190
5f2a90
5f2490
5f2090
5f1f10
5f0010
7f0010
7ffff0
410210
410210
410210
000000
ENDCHAR
STARTCHAR streamline-email-mailbox-open--email.png
ENCODING 235
DWIDTH 21 0
BBX 21 21 0 0
BITMAP
0003c0
000240
0003c0
000200
07ffe0
0fc210
1fe208
1fe208
182008
1a2008
192008
18a008
186008
182008
3ffff0
406200
81a200
822200
7c2200
002200
002200
ENDCHAR
STARTCHAR streamline-email-mail-chat--email.png
ENCODING 236
DWIDTH 21 0
BBX 21 21 0 0
BITMAP
000000
000000
0ff000
300c00
400200
800100
800100
999900
9999c0
8001e0
4003f0
200ff0
13fff0
147ff0
183fe0
101fc0
0001c0
0000c0
000040
000000
000000
ENDCHAR
STARTCHAR streamline-email-mail-open-address--email.png
ENCODING 237
DWIDTH 21 0
BBX 21 21 0 0
BITMAP
00f800
01fc00
03fe00
0fff80
100040
10f840
310460
727270
f29278
f29278
b26c68
910048
88f888
840108
820208
81fc08
820208
840108
800008
400010
3fffe0
ENDCHAR
STARTCHAR streamline-email-stamp-mail--email.png
ENCODING 238
DWIDTH 21 0
BBX 21 21 0 0
BITMAP
000000
000000
f39cf0
8c6310
800010
9fff90
5ff3a0
5fe1a0
9fe190
9ff390
9cff90
587ca0
5038a0
901090
9fff90
800010
8c6310
f39cf0
000000
000000
000000
ENDCHAR
STARTCHAR streamline-email-tray--email.png
ENCODING 239
DWIDTH 21 0
BBX 21 21 0 0
BITMAP
1fff00
200080
300180
280280
27fc80
204080
204080
204080
204080
20ffc0
218060
2140a0
612130
e11e38
fd01f8
830208
fdfdf8
fe03f8
fffff8
fffff8
7ffff0
ENDCHAR
STARTCHAR streamline-entertainment-events-hobbies-board-game-dice--entertainment-events-hobbies.png
ENCODING 240
DWIDTH 21 0
BBX 21 21 0 0
BITMAP
006000
019800
060600
180180
206040
5861e0
4607e0
419fe0
587e60
583fe0
41bfe0
41bfe0
583fe0
583fe0
41b3e0
21b3c0
183f80
063e00
01b800
006000
000000
ENDCHAR
STARTCHAR streamline-entertainment-events-hobbies-bomb--entertainment-events-hobbies.png
ENCODING 241
DWIDTH 21 0
BBX 21 21 0 0
BITMAP
000080
000490
000220
00e000
011098
010880
07c720
07c010
1ff000
3ff800
7fdc00
7fec00
fff600
fff600
fff600
fff600
7ffc00
7fdc00
3ff800
1ff000
07c000
ENDCHAR
STARTCHAR streamline-entertainment-events-hobbies-card-game-card-club--entertainment-events-hobbies.png
ENCODING 242
DWIDTH 21 0
BBX 21 21 0 0
BITMAP
3ffc00
400200
500200
5003e0
400210
400210
418210
418210
47e220
47e220
418220
43c240
400240
400240
400240
400280
400280
400a80
400a80
400300
3ffc00
ENDCHAR
STARTCHAR streamline-entertainment-events-hobbies-chess-knight--entertainment-events-hobbies.png
ENCODING 243
DWIDTH 21 0
BBX 21 21 0 0
BITMAP
009000
036800
0f0400
1b2400
3e5200
3c0100
240480
3c2080
3c1100
340e00
1e0400
0f0200
030200
020100
040100
040100
0fff80
100040
100040
0fff80
000000
ENDCHAR
STARTCHAR streamline-entertainment-events-hobbies-chess-pawn--entertainment-events-hobbies.png
ENCODING 244
DWIDTH 21 0
BBX 21 21 0 0
BITMAP
007000
00f800
01dc00
01ec00
01fc00
00f800
01fc00
020200
01fc00
008800
008800
008800
010400
020200
040100
040100
0fff80
100040
100040
0fff80
000000
ENDCHAR
STARTCHAR streamline-entertainment-events-hobbies-chess-rook--entertainment-events-hobbies.png
ENCODING 245
DWIDTH 21 0
BBX 21 21 0 0
BITMAP
000000
067300
07ff00
07ff00
070700
07ff00
03fe00
008800
008800
008800
008800
008800
010400
020200
040100
040100
0fff80
100040
100040
0fff80
000000
ENDCHAR
STARTCHAR streamline-entertainment-events-hobbies-film-camrea--entertainment-events-hobbies.png
ENCODING 246
DWIDTH 21 0
BBX 21 21 0 0
BITMAP
000000
1f0000
110000
7fc000
ffe000
fffff0
802008
e0aaa8
902008
902008
90a008
90a008
90a008
92a008
e2a9f0
802200
fffc00
ffe000
7fc000
000000
000000
ENDCHAR
STARTCHAR streamline-entertainment-events-hobbies-film-player--entertainment-events-hobbies.png
ENCODING 247
DWIDTH 21 0
BBX 21 21 0 0
BITMAP
000000
000000
fffff8
840108
840108
b40168
b4c168
84e108
84f108
b4f968
b4f168
84e108
84c108
b40168
b40168
840108
840108
fffff8
000000
000000
000000
ENDCHAR
STARTCHAR streamline-entertainment-events-hobbies-film-roll--entertainment-events-hobbies.png
ENCODING 248
DWIDTH 21 0
BBX 21 21 0 0
BITMAP
07fc00
180300
200080
400040
4c0640
9e0f20
9e0f20
8c0620
80e020
80e020
80e020
8c0620
9e0f20
9e0f20
4c0640
400040
200080
180300
07fd18
000120
0000c0
ENDCHAR
STARTCHAR streamline-entertainment-events-hobbies-game-machines-arcade-1--entertainment-events-hobbies.png
ENCODING 249
DWIDTH 21 0
BBX 21 21 0 0
BITMAP
3fff80
2a0140
2a0120
3fff10
1fff88
0800c8
0fffc8
0e01c8
0e49c8
0e01c8
0e85c8
0e79c8
0e01c8
0fffc8
1b7f88
36e308
7ffe08
800208
800208
803a08
802a08
ENDCHAR
STARTCHAR streamline-entertainment-events-hobbies-game-machines-arcade-2--entertainment-events-hobbies.png
ENCODING 250
DWIDTH 21 0
BBX 21 21 0 0
BITMAP
3fff80
2a01c0
2a0160
3fffb0
1000d8
080068
0bff68
0a0168
0a4968
0a0168
0a8578
0a7978
0a0178
0bff78
100078
251cf8
4001f8
fffff8
8003f8
803bf8
802bf8
ENDCHAR
STARTCHAR streamline-entertainment-events-hobbies-game-pool-snooker-ball--entertainment-events-hobbies.png
ENCODING 251
DWIDTH 21 0
BBX 21 21 0 0
BITMAP
00f800
030600
0cf980
130640
2e73a0
3c89e0
7c89f0
7c71f0
fc89f8
fc89f8
fe73f8
ff07f8
fffff8
7800f0
700070
200020
200020
100040
0c0180
030600
00f800
ENDCHAR
STARTCHAR streamline-entertainment-events-hobbies-glasses-3d--entertainment-events-hobbies.png
ENCODING 252
DWIDTH 21 0
BBX 21 21 0 0
BITMAP
000000
000000
010800
029400
049200
090900
120480
240240
480120
900090
fffff0
800010
bf9fd0
a39c50
a79e50
af0f50
be67d0
809010
7f0fe0
000000
000000
ENDCHAR
STARTCHAR streamline-entertainment-events-hobbies-horror-ghost--entertainment-events-hobbies.png
ENCODING 253
DWIDTH 21 0
BBX 21 21 0 0
BITMAP
020020
000070
607c20
918300
520080
140040
e40040
084120
08e3a0
884120
081c20
081420
481c20
b00010
812090
812090
40c060
200080
100100
0c0600
03f800
ENDCHAR
STARTCHAR streamline-entertainment-events-hobbies-popcorn--entertainment-events-hobbies.png
ENCODING 254
DWIDTH 21 0
BBX 21 21 0 0
BITMAP
038000
0c5800
302400
460200
4902e0
400110
202410
221890
180020
09a1c0
0edec0
0cccc0
0cccc0
0cccc0
0cccc0
0cccc0
06cd80
06cd80
06cd80
06cd80
03ff00
ENDCHAR
STARTCHAR streamline-entertainment-events-hobbies-record-player--entertainment-events-hobbies.png
ENCODING 255
DWIDTH 21 0
BBX 21 21 0 0
BITMAP
3fffe0
400010
800008
81e0e8
87f8a8
8fcca8
9ff6e8
9ffa48
bffb48
bf3f48
bf3f48
bfff48
9ffe48
9ffe88
8fc708
87f808
81e008
800148
940148
400010
3fffe0
ENDCHAR
STARTCHAR streamline-entertainment-events-hobbies-reward-winner-talent--entertainment-events-hobbies.png
ENCODING 256
DWIDTH 21 0
BBX 21 21 0 0
BITMAP
082080
042100
000000
022200
337660
03fe00
035600
01fc00
000000
03fe00
020200
026200
fe23f8
822208
ba22e8
8a7228
ba02e8
a20228
ba02e8
820208
000000
ENDCHAR
STARTCHAR streamline-entertainment-events-hobbies-ticket--entertainment-events-hobbies.png
ENCODING 257
DWIDTH 21 0
BBX 21 21 0 0
BITMAP
000300
000c80
003040
00d040
030880
0c6880
31e440
7ffff0
800108
800108
800108
87f808
487c10
28fd20
29fd20
4bfc10
87f808
800108
800108
800108
7ffff0
ENDCHAR
STARTCHAR streamline-entertainment-events-hobbies-video-camera-film-1--entertainment-events-hobbies.png
ENCODING 258
DWIDTH 21 0
BBX 21 21 0 0
BITMAP
1e0f00
211080
4ca640
9e4f20
b359a0
b359a0
9e4f20
4ca640
21f080
5e0f18
8000a8
8006c8
800688
9fc088
a02088
a02088
ada088
bfe0c8
9fc0a8
400118
3ffe00
ENDCHAR
STARTCHAR streamline-entertainment-events-hobbies-video-camera-film-2--entertainment-events-hobbies.png
ENCODING 259
DWIDTH 21 0
BBX 21 21 0 0
BITMAP
1e0f00
211080
4ca640
9e4f20
b359a0
b359a0
9e4f20
4ca640
21f080
5e0f18
8000a8
8000c8
ff0088
808088
808088
808088
ff0c88
800cc8
8000a8
400118
3ffe00
ENDCHAR
STARTCHAR streamline-entertainment-events-hobbies-video-camera-film-3--entertainment-events-hobbies.png
ENCODING 260
DWIDTH 21 0
BBX 21 21 0 0
BITMAP
0000f0
000308
1f8508
2048f0
4f2800
50a800
7ffc30
800248
be0388
a60288
ae0288
be0388
805248
800230
807200
800200
7ffc00
038000
054000
092000
000000
ENDCHAR
STARTCHAR streamline-food-drink-bread--food-drink.png
ENCODING 261
DWIDTH 21 0
BBX 21 21 0 0
BITMAP
07ff00
180fc0
2003e0
4001f0
8000f8
8000f8
8000f8
8000f8
8000f8
4001f0
2003f0
2003f0
2243f0
2003f0
2423f0
23c3f0
2003f0
2003f0
2003e0
2003c0
1fff80
ENDCHAR
STARTCHAR streamline-food-drink-coffee-cup--food-drink.png
ENCODING 262
DWIDTH 21 0
BBX 21 21 0 0
BITMAP
000700
000880
07f080
080080
0fff80
100040
100040
1fffc0
080080
0fff80
080080
0fff80
0d5580
0eab80
07ff00
040100
07ff00
040100
020200
020200
03fe00
ENDCHAR
STARTCHAR streamline-food-drink-coffee--food-drink.png
ENCODING 263
DWIDTH 21 0
BBX 21 21 0 0
BITMAP
01b000
024800
020800
011000
008000
004000
0f5c00
100200
27f9c0
2ffc20
27f990
200150
200190
200020
1001c0
300300
4c0c80
83f040
400080
300300
0ffc00
ENDCHAR
STARTCHAR streamline-food-drink-desert-cake--food-drink.png
ENCODING 264
DWIDTH 21 0
BBX 21 21 0 0
BITMAP
031800
00a600
01d980
036660
03a190
03e050
05c0f0
080710
103810
21c0f0
4e07f0
703ff0
41ff10
4ff830
7fc0c0
7e0700
703800
41c000
4e0000
700000
000000
ENDCHAR
STARTCHAR streamline-food-drink-desert-cake-pond--food-drink.png
ENCODING 265
DWIDTH 21 0
BBX 21 21 0 0
BITMAP
022200
000000
022200
022200
022200
022200
3fffe0
400010
810408
a00028
800008
c42118
bbdee8
800008
800008
fffff8
fffff8
800008
800008
400010
3fffe0
ENDCHAR
STARTCHAR streamline-food-drink-desert-cotton-candy--food-drink.png
ENCODING 266
DWIDTH 21 0
BBX 21 21 0 0
BITMAP
000040
107e00
288188
110040
020020
040020
040110
040010
040090
480090
080090
080110
080220
080040
080080
040f00
0bf000
100000
200020
400870
800020
ENDCHAR
STARTCHAR streamline-food-drink-desert-cupcake--food-drink.png
ENCODING 267
DWIDTH 21 0
BBX 21 21 0 0
BITMAP
007e00
038180
0c0840
10c420
21e010
23c110
458108
871808
a20068
a00008
846110
4203e0
3833e0
1c7fe0
1e6fe0
0fefc0
0eeec0
0eeec0
07ff80
03ff00
000000
ENDCHAR
STARTCHAR streamline-food-drink-desert-donut--food-drink.png
ENCODING 268
DWIDTH 21 0
BBX 21 21 0 0
BITMAP
000000
003e00
01c180
060c40
080020
131210
206810
2898a8
497928
42f028
82f028
a5e250
a38050
8008a0
484120
418640
203880
13c300
0c1c00
03e000
000000
ENDCHAR
STARTCHAR streamline-food-drink-desert-icecream--food-drink.png
ENCODING 269
DWIDTH 21 0
BBX 21 21 0 0
BITMAP
03fc00
07ce00
0ff700
1ffb80
1fff80
0c7b00
083100
080100
080100
089100
080100
090900
08f100
080100
040200
03fc00
009000
009000
009000
009000
006000
ENDCHAR
STARTCHAR streamline-food-drink-egg--food-drink.png
ENCODING 270
DWIDTH 21 0
BBX 21 21 0 0
BITMAP
000000
000000
000000
007c00
038200
0401c0
19e020
239010
47e808
47f808
87f808
83f008
81e008
400008
300630
0c39c0
03c000
000000
000000
000000
000000
ENDCHAR
STARTCHAR streamline-food-drink-fish-bone--food-drink.png
ENCODING 271
DWIDTH 21 0
BBX 21 21 0 0
BITMAP
000000
000000
000000
000000
0f0000
310000
412030
412048
812488
812490
99ffa0
992490
812488
412048
412030
310000
0f0000
000000
000000
000000
000000
ENDCHAR
STARTCHAR streamline-food-drink-fish--food-drink.png
ENCODING 272
DWIDTH 21 0
BBX 21 21 0 0
BITMAP
000000
000000
000000
01e000
0e1800
300400
400230
400148
800088
800010
980020
980010
800088
400148
400230
300400
0e1800
01e000
000000
000000
000000
ENDCHAR
STARTCHAR streamline-food-drink-fried-chicken--food-drink.png
ENCODING 273
DWIDTH 21 0
BBX 21 21 0 0
BITMAP
1fc000
202000
401000
800800
800400
800200
a00200
a00200
900100
880100
440100
234100
100100
080300
070480
00fc60
000210
000110
000120
0000c0
000000
ENDCHAR
STARTCHAR streamline-food-drink-fruit-cherry--food-drink.png
ENCODING 274
DWIDTH 21 0
BBX 21 21 0 0
BITMAP
01f1c0
01fbc0
00ff80
001700
002400
004400
008400
010400
0f8400
104400
203f00
402080
504040
508020
50a020
48a020
20a020
108820
0fc040
002080
001f00
ENDCHAR
STARTCHAR streamline-food-drink-hamburger--food-drink.png
ENCODING 275
DWIDTH 21 0
BBX 21 21 0 0
BITMAP
000000
000000
01fc00
060300
088880
122240
208820
200020
200020
7ffff0
800008
b81c28
7c7e78
3ffff0
200020
200020
100040
0fff80
000000
000000
000000
ENDCHAR
STARTCHAR streamline-food-drink-milk--food-drink.png
ENCODING 276
DWIDTH 21 0
BBX 21 21 0 0
BITMAP
000000
0fff00
080100
080100
17fa80
200440
400820
801010
fff010
87f010
83f7d0
815010
8017d0
a01010
f41750
fc1010
ff1750
fff010
801010
7fffe0
000000
ENDCHAR
STARTCHAR streamline-food-drink-pizza--food-drink.png
ENCODING 277
DWIDTH 21 0
BBX 21 21 0 0
BITMAP
000000
003000
007c00
007f00
007fc0
008ff0
0163f8
0260f8
040c28
09acc8
158308
200c30
4d30c0
acc300
830c00
8c3000
70c000
430000
3c0000
000000
000000
ENDCHAR
STARTCHAR streamline-food-drink-rice-ball--food-drink.png
ENCODING 278
DWIDTH 21 0
BBX 21 21 0 0
BITMAP
000000
00f000
010800
020400
041200
082100
090100
100080
100080
220840
211140
400020
47fe20
4fff20
8fff10
afff50
8fff10
4fff20
3fffc0
000000
000000
ENDCHAR
STARTCHAR streamline-food-drink-sushi--food-drink.png
ENCODING 279
DWIDTH 21 0
BBX 21 21 0 0
BITMAP
1fc000
202000
4f9000
525000
4f9000
603000
5fffc0
402020
404f90
2053d0
1fcf90
202030
4f9fd0
525010
4f9010
603010
7ff020
7fbfc0
7fb000
3e6000
1fc000
ENDCHAR
STARTCHAR streamline-food-drink-tea--food-drink.png
ENCODING 280
DWIDTH 21 0
BBX 21 21 0 0
BITMAP
011000
022000
011000
008800
011000
000000
3fff00
4400b0
4400c8
460088
4d0088
4d0090
4f0090
4600a0
4000c0
200100
200100
100200
7fff80
800040
7fff80
ENDCHAR
STARTCHAR streamline-hand-awesome--hand-signs.png
ENCODING 281
DWIDTH 21 0
BBX 21 21 0 0
BITMAP
003000
004800
004400
004400
004400
008400
3d0800
3e17c0
342820
340820
3c0fe0
3c1020
3c1020
3c0fe0
3c1020
3c1020
3c0fc0
3c0840
3f0480
3cff00
000000
ENDCHAR
STARTCHAR streamline-hand-cross-finger-heart--hand-signs.png
ENCODING 282
DWIDTH 21 0
BBX 21 21 0 0
BITMAP
036000
07f000
07f000
03e000
01c000
008000
000c00
0e1200
112200
114200
108400
090800
0a1000
0c2000
085800
108600
200900
201080
202140
200240
200440
ENDCHAR
STARTCHAR streamline-hand-dislike--hand-signs.png
ENCODING 283
DWIDTH 21 0
BBX 21 21 0 0
BITMAP
0ff800
1004f0
2003f0
3e00f0
4000f0
4000f0
7c00f0
4000f0
4000f0
7c00f0
4000f0
2000f0
1f80f0
0041f0
0086f0
010800
011000
011000
011000
009000
006000
ENDCHAR
STARTCHAR streamline-hand-fight-2-finger--hand-signs.png
ENCODING 284
DWIDTH 21 0
BBX 21 21 0 0
BITMAP
1c0e00
221100
221100
221100
112200
112200
08c400
084600
0709c0
08c920
102920
101920
1116e0
10e020
080020
080020
040040
020040
07ffe0
07fe60
07ffe0
ENDCHAR
STARTCHAR streamline-hand-fiist--hand-signs.png
ENCODING 285
DWIDTH 21 0
BBX 21 21 0 0
BITMAP
000000
000000
000000
03fc00
049300
0e9280
119240
207240
203240
222dc0
21c040
100040
100040
080080
040080
0fffc0
0ffcc0
0fffc0
000000
000000
000000
ENDCHAR
STARTCHAR streamline-hand-four--hand-signs.png
ENCODING 286
DWIDTH 21 0
BBX 21 21 0 0
BITMAP
006000
039000
049c00
049200
049380
049240
049240
049240
0e9240
119240
204040
202040
222040
21c080
100080
100080
080100
040100
0fff80
0ff980
0fff80
ENDCHAR
STARTCHAR streamline-hand-fuck-middle-finger--hand-signs.png
ENCODING 287
DWIDTH 21 0
BBX 21 21 0 0
BITMAP
006000
009000
009000
009000
009000
009000
039c00
049300
0e9280
119240
207240
203240
222dc0
21c040
100040
100040
080080
040080
0fffc0
0ffcc0
0fffc0
ENDCHAR
STARTCHAR streamline-hand-gesture-finger-click--hand-signs.png
ENCODING 288
DWIDTH 21 0
BBX 21 21 0 0
BITMAP
008000
008000
108400
080800
041000
000000
018000
024000
024000
024000
024000
027c00
0e0200
124900
124880
104880
100080
080080
040080
020100
020200
ENDCHAR
STARTCHAR streamline-hand--hand-signs.png
ENCODING 289
DWIDTH 21 0
BBX 21 21 0 0
BITMAP
003000
01c800
024e00
024900
0249c0
024920
024920
324920
4a4920
460020
41c020
202020
101020
081040
040040
040040
020080
020080
07ffc0
07fcc0
07ffc0
ENDCHAR
STARTCHAR streamline-hand-like--hand-signs.png
ENCODING 290
DWIDTH 21 0
BBX 21 21 0 0
BITMAP
003000
004800
008800
008800
008800
008400
0042f0
0021f0
1fc0b0
2000b0
4000f0
7c00f0
4000f0
4000f0
7c00f0
4000f0
4000f0
3e00f0
2003f0
1004f0
0ff800
ENDCHAR
STARTCHAR streamline-hand-little-finger--hand-signs.png
ENCODING 291
DWIDTH 21 0
BBX 21 21 0 0
BITMAP
000000
000180
000240
000240
000240
03fe40
049240
0e9240
119240
207240
203240
222c40
21c040
100040
100040
080080
040080
0fffc0
0ffcc0
0fffc0
000000
ENDCHAR
STARTCHAR streamline-hand-love--hand-signs.png
ENCODING 292
DWIDTH 21 0
BBX 21 21 0 0
BITMAP
018000
024000
024000
0240c0
024120
024120
027f20
324920
4a4920
460020
424920
200020
100020
080040
040040
040040
020080
020080
07ffc0
07fcc0
07ffc0
ENDCHAR
STARTCHAR streamline-hand-love-sign--hand-signs.png
ENCODING 293
DWIDTH 21 0
BBX 21 21 0 0
BITMAP
030000
048000
048180
048240
048240
048240
04fe40
049240
0e9240
119240
207240
203240
222c40
21c040
100040
100040
080080
040080
0fffc0
0ffcc0
0fffc0
ENDCHAR
STARTCHAR streamline-hand-ok--hand-signs.png
ENCODING 294
DWIDTH 21 0
BBX 21 21 0 0
BITMAP
058000
0a4000
0a4000
1a4000
2a4000
2a4f00
2a5080
2a6040
284620
228920
2a90c0
281120
201120
200e20
200040
100040
100080
080100
1fff80
1ff980
1fff80
ENDCHAR
STARTCHAR streamline-hand-point--hand-signs.png
ENCODING 295
DWIDTH 21 0
BBX 21 21 0 0
BITMAP
030000
048000
048000
048000
048000
048000
04fc00
049300
0e9280
119240
207240
203240
222dc0
21c040
100040
100040
080080
040080
0fffc0
0ffcc0
0fffc0
ENDCHAR
STARTCHAR streamline-hand-three-finger--hand-signs.png
ENCODING 296
DWIDTH 21 0
BBX 21 21 0 0
BITMAP
006000
039000
049c00
049200
049200
049200
049200
049300
0e9280
119240
204240
202240
2221c0
21c040
100040
100040
080080
040080
0fffc0
0ffcc0
0fffc0
ENDCHAR
STARTCHAR streamline-hand-writing--hand-signs.png
ENCODING 297
DWIDTH 21 0
BBX 21 21 0 0
BITMAP
000e00
001200
002a00
01c400
024800
025000
067e00
0a0180
120040
224920
464920
2a4920
120020
100020
080020
080020
040040
020040
07ffe0
07fe60
07ffe0
ENDCHAR
STARTCHAR streamline-hand-zombie--hand-signs.png
ENCODING 298
DWIDTH 21 0
BBX 21 21 0 0
BITMAP
006000
009000
0c8800
1244c0
112520
08a520
04a520
624220
920020
920040
8c38b0
804148
400388
200010
980060
640198
fa0268
ba05b8
faf5d8
3c63c0
d79eb8
ENDCHAR
STARTCHAR streamline-hand-zoom--hand-signs.png
ENCODING 299
DWIDTH 21 0
BBX 21 21 0 0
BITMAP
1cc000
0d2000
152000
a12000
c12000
e12000
013f80
190040
250020
232490
212490
110010
080010
040020
020020
020020
010040
010040
03ffe0
03fe60
03ffe0
ENDCHAR
STARTCHAR streamline-health-ambulance-call--health-beauty.png
ENCODING 300
DWIDTH 21 0
BBX 21 21 0 0
BITMAP
078000
084000
112000
11a000
21a000
2021c0
20c1c0
2107f0
2107f0
2107f0
2101c0
2101c0
210000
20c000
202000
21a000
11a000
112400
084a00
07c640
003980
ENDCHAR
STARTCHAR streamline-health-ambulance-car--health-beauty.png
ENCODING 301
DWIDTH 21 0
BBX 21 21 0 0
BITMAP
002480
001500
000000
006ec0
000e00
01fff0
024008
04c188
05c188
0fc7e8
0fc7e8
0f8188
300188
400008
9fffe8
800008
8e01c8
910228
75feb0
110220
0e01c0
ENDCHAR
STARTCHAR streamline-health-anti-virus--health-beauty.png
ENCODING 302
DWIDTH 21 0
BBX 21 21 0 0
BITMAP
00f800
03fe00
0f0780
1c01c0
3c70e0
3e2260
677330
638c30
c1c418
cae298
ce7398
ca3a98
c11c18
618e30
667730
3223e0
3871e0
1c01c0
0f0780
03fe00
00f800
ENDCHAR
STARTCHAR streamline-health-bandage--health-beauty.png
ENCODING 303
DWIDTH 21 0
BBX 21 21 0 0
BITMAP
1c01c0
220220
490410
808908
aa5008
806548
48f010
21f920
13ac40
0f0680
070700
0b8f80
11de40
24fc20
407890
953008
8052a8
848808
410490
220220
1c01c0
ENDCHAR
STARTCHAR streamline-health-blood-drop-type--health-beauty.png
ENCODING 304
DWIDTH 21 0
BBX 21 21 0 0
BITMAP
000600
000900
001080
002040
004020
064620
0f0910
1f8f10
3bc910
77e910
6fe010
eff020
fff020
fff0c0
fff700
fff000
7fe000
7fe000
3fc000
0f0000
000000
ENDCHAR
STARTCHAR streamline-health-brain-1--health-beauty.png
ENCODING 305
DWIDTH 21 0
BBX 21 21 0 0
BITMAP
000000
007f00
0182c0
061420
096410
108148
2083e8
4241c8
e42088
984008
8002c8
861130
586450
208190
1ffe20
000940
000640
000140
000140
000140
000000
ENDCHAR
STARTCHAR streamline-health-brain-2--health-beauty.png
ENCODING 306
DWIDTH 21 0
BBX 21 21 0 0
BITMAP
0f8f80
305260
422210
412490
b0e008
882098
842128
c43e28
a0a448
986408
802338
e22088
80ba08
94a428
be6428
9c2018
882188
402210
20d820
1f07c0
000000
ENDCHAR
STARTCHAR streamline-health-dentistry-tooth--health-beauty.png
ENCODING 307
DWIDTH 21 0
BBX 21 21 0 0
BITMAP
000000
1f8fc0
207020
400010
400310
400090
400050
408850
400050
408810
407010
200020
200020
20f820
210420
220220
120240
120240
0c0180
000000
000000
ENDCHAR
STARTCHAR streamline-health-drug-medicine-bag-aid-1--health-beauty.png
ENCODING 308
DWIDTH 21 0
BBX 21 21 0 0
BITMAP
01f800
0fff00
13fc80
100080
3fffc0
400020
80f010
830c10
840210
846210
886110
89f910
89f910
886110
846210
840210
830c10
80f010
400020
3fffc0
000000
ENDCHAR
STARTCHAR streamline-health-drug-medicine-bag-aid-2--health-beauty.png
ENCODING 309
DWIDTH 21 0
BBX 21 21 0 0
BITMAP
03fe00
040100
3fffe0
400010
807008
807008
81fc08
81fc08
81fc08
807008
9f77c8
8a0288
8e0388
400010
7ffff0
4e0390
4e0390
4e0390
4e0390
3fffe0
000000
ENDCHAR
STARTCHAR streamline-health-drug-medicine--health-beauty.png
ENCODING 310
DWIDTH 21 0
BBX 21 21 0 0
BITMAP
000f80
001040
002020
004010
008010
010010
020010
070010
0f8020
1fc040
3fe080
7ff100
fffa00
fffc00
ffb800
ff7000
fee000
79c000
3f8000
1f0000
000000
ENDCHAR
STARTCHAR streamline-health-drug-medicine-water--health-beauty.png
ENCODING 311
DWIDTH 21 0
BBX 21 21 0 0
BITMAP
01fc00
020200
07ff00
080080
07ff00
020200
040100
080080
100040
1f8340
104740
175f40
105f40
175f40
105f40
1f9f40
103f40
13fe40
080080
07ff00
000000
ENDCHAR
STARTCHAR streamline-health-drugs-cannabis--health-beauty.png
ENCODING 312
DWIDTH 21 0
BBX 21 21 0 0
BITMAP
002000
005000
005000
008800
308860
2888a0
250520
130640
110440
108840
080080
7800f0
865308
412010
305060
0f0780
022200
047100
08a880
072700
002000
ENDCHAR
STARTCHAR streamline-health-drugs-pill--health-beauty.png
ENCODING 313
DWIDTH 21 0
BBX 21 21 0 0
BITMAP
3ff800
6aac00
6aac00
6aac00
3ff800
101000
100000
200f00
4030c0
807820
f89c10
848e10
e58708
858388
e5c1c8
95c0e8
84e070
f8f030
807c20
403fc0
3f8f00
ENDCHAR
STARTCHAR streamline-health-health-dead--health-beauty.png
ENCODING 314
DWIDTH 21 0
BBX 21 21 0 0
BITMAP
000000
03fe00
040100
040100
63fe30
9800c8
840108
478f10
afdfa8
9fffc8
5f8fd0
9f8fc8
9e03c8
4e0390
3e03e0
078f00
038e00
01fc00
00f800
007000
000000
ENDCHAR
STARTCHAR streamline-health-hospital-building-1--health-beauty.png
ENCODING 315
DWIDTH 21 0
BBX 21 21 0 0
BITMAP
01fc00
01fc00
01dc00
0f8f80
09dc80
09fc80
09fc80
f800f8
8b7688
a800a8
8b7688
a800a8
89fc88
a924a8
892488
a924a8
892488
892488
fffff8
820208
000000
ENDCHAR
STARTCHAR streamline-health-hospital-building-2--health-beauty.png
ENCODING 316
DWIDTH 21 0
BBX 21 21 0 0
BITMAP
fffe00
800200
fffe00
4004e0
5d75f0
5557b8
5d7718
4007b8
5d75f0
5554e0
5d7400
4007f8
5ff408
5015e8
5ff528
492528
4925e8
492528
492528
4fe5e8
5ff408
ENDCHAR
STARTCHAR streamline-health-injection--health-beauty.png
ENCODING 317
DWIDTH 21 0
BBX 21 21 0 0
BITMAP
060000
0e0000
1c4000
3ca000
7f2000
665000
04c800
09b400
13f200
0ded00
02fc80
017b40
00be40
005c80
002940
001280
000d40
000020
000000
000010
000010
ENDCHAR
STARTCHAR streamline-health-laboratory--health-beauty.png
ENCODING 318
DWIDTH 21 0
BBX 21 21 0 0
BITMAP
078000
078000
0fc000
102000
11f800
120600
120100
11f080
102880
102440
084440
078440
0784e0
0005b0
000510
1fe5b0
0484e0
3ff840
400080
400080
3fff00
ENDCHAR
STARTCHAR streamline-health-laboratory-test-blood-sugar--health-beauty.png
ENCODING 319
DWIDTH 21 0
BBX 21 21 0 0
BITMAP
004180
40e240
a04420
400810
041308
002388
004390
049020
413848
027c80
04b900
093220
122450
114820
209100
202000
304000
498400
8e0e20
900400
600000
ENDCHAR
STARTCHAR streamline-health-laboratory-test-stool-cup--health-beauty.png
ENCODING 320
DWIDTH 21 0
BBX 21 21 0 0
BITMAP
3fffe0
492490
492490
492490
3fffe0
200020
200220
228020
210020
204020
28e2a0
20f120
217c20
239e20
23fe20
27ff20
2c01a0
2fffa0
27ff20
200020
1fffc0
ENDCHAR
STARTCHAR streamline-health-medical-notes--health-beauty.png
ENCODING 321
DWIDTH 21 0
BBX 21 21 0 0
BITMAP
007000
018c00
1f07c0
31fc60
300060
330060
378060
379e60
330060
300060
32fe60
300060
300060
32fe60
300060
300060
32fe60
300060
3fffe0
1fffc0
000000
ENDCHAR
STARTCHAR streamline-health-monitor-heart-beat--health-beauty.png
ENCODING 322
DWIDTH 21 0
BBX 21 21 0 0
BITMAP
000000
000000
0f1e00
30a180
404040
800020
800020
810020
828820
829400
9c93f0
405000
205080
102100
080200
040400
020800
011000
00e000
000000
000000
ENDCHAR
STARTCHAR streamline-health-stool--health-beauty.png
ENCODING 323
DWIDTH 21 0
BBX 21 21 0 0
BITMAP
0a4000
04a000
0090a0
508840
210400
030400
0c0300
100000
270380
288440
2a4520
4944a0
864320
908440
8f0390
404010
803810
800010
400020
3fffc0
000000
ENDCHAR
STARTCHAR streamline-health-transfusion-bag--health-beauty.png
ENCODING 324
DWIDTH 21 0
BBX 21 21 0 0
BITMAP
002000
002000
072700
027200
028a00
070700
080080
100040
200020
200020
2fffa0
2fffa0
2c01a0
2dfda0
2c01a0
2dfda0
2c01a0
27ff20
23fe20
100040
0fff80
ENDCHAR
STARTCHAR streamline-health-virus--health-beauty.png
ENCODING 325
DWIDTH 21 0
BBX 21 21 0 0
BITMAP
000020
008470
2000d8
700070
d87020
712400
227200
05fd00
01ec10
4b7e80
0ff780
0bfe80
01bc10
45fd00
027200
012420
107070
3800d8
6c0070
388420
100000
ENDCHAR
STARTCHAR streamline-interface-essential-alarm-bell-off--interface-essential.png
ENCODING 326
DWIDTH 21 0
BBX 21 21 0 0
BITMAP
3fffe0
400030
807868
8184c8
820188
840308
840608
880c88
881888
883088
886088
88c088
918048
a33e28
a67928
8c7048
980188
b3fe08
e00008
400010
3fffe0
ENDCHAR
STARTCHAR streamline-interface-essential-alarm-bell-sleep--interface-essential.png
ENCODING 327
DWIDTH 21 0
BBX 21 21 0 0
BITMAP
0c0000
0200f0
040008
080010
060020
007040
018c80
c20278
240100
440100
880080
680080
080080
080080
080080
100040
23fe20
24f920
107040
0c0180
03fe00
ENDCHAR
STARTCHAR streamline-interface-essential-alert-caution--interface-essential.png
ENCODING 328
DWIDTH 21 0
BBX 21 21 0 0
BITMAP
000000
006000
009000
010800
010800
020400
026400
046200
046200
086100
086100
106080
100080
206040
20f040
40f020
406020
800010
800010
7fffe0
000000
ENDCHAR
STARTCHAR streamline-interface-essential-alert-circle-1--interface-essential.png
ENCODING 329
DWIDTH 21 0
BBX 21 21 0 0
BITMAP
00f800
03fe00
0fff80
1f07c0
3e13e0
3e0be0
7e0bf0
7e0bf0
fe03f8
ff07f8
ff07f8
ff8ff8
fffff8
7f8ff0
7f07f0
3f07e0
3f07e0
1f8fc0
0fff80
03fe00
00f800
ENDCHAR
STARTCHAR streamline-interface-essential-alert-circle-2--interface-essential.png
ENCODING 330
DWIDTH 21 0
BBX 21 21 0 0
BITMAP
00f800
030600
0c0180
107040
20f820
20f820
40f810
40f810
80f808
80f808
807008
807008
800008
407010
40f810
20f820
20f820
107040
0c0180
030600
00f800
ENDCHAR
STARTCHAR streamline-interface-essential-alert--interface-essential.png
ENCODING 331
DWIDTH 21 0
BBX 21 21 0 0
BITMAP
3800e0
440110
880088
90f848
a30628
442110
080080
122240
102040
202020
207020
287ca0
207020
200020
100040
120240
080080
042100
070700
08f880
100040
ENDCHAR
STARTCHAR streamline-interface-essential-alert-triangle-1--interface-essential.png
ENCODING 332
DWIDTH 21 0
BBX 21 21 0 0
BITMAP
002000
005000
008800
008800
010400
010400
027200
02da00
04e900
04e900
08f880
087080
107040
100040
207020
20f820
40f810
40f810
807008
800008
7ffff0
ENDCHAR
STARTCHAR streamline-interface-essential-alert-triangle-2--interface-essential.png
ENCODING 333
DWIDTH 21 0
BBX 21 21 0 0
BITMAP
002000
007000
00f800
00f800
01fc00
01fc00
038e00
032600
071700
071700
0f0780
0f8f80
1f8fc0
1fffc0
3f8fe0
3f07e0
7f07f0
7f07f0
ff8ff8
fffff8
7ffff0
ENDCHAR
STARTCHAR streamline-interface-essential-battery--interface-essential.png
ENCODING 334
DWIDTH 21 0
BBX 21 21 0 0
BITMAP
01f800
010800
0f0f00
080100
080100
080100
0bfd00
080100
080100
0bfd00
080100
080100
0bfd00
080100
080100
0bfd00
0bfd00
0bfd00
080100
080100
07fe00
ENDCHAR
STARTCHAR streamline-interface-essential-bin--interface-essential.png
ENCODING 335
DWIDTH 21 0
BBX 21 21 0 0
BITMAP
01fc00
020200
020200
3fffe0
7ffff0
100040
100040
122240
122240
122240
122240
122240
122240
122240
122240
112440
092480
080080
080080
07ff00
000000
ENDCHAR
STARTCHAR streamline-interface-essential-blutooth--interface-essential.png
ENCODING 336
DWIDTH 21 0
BBX 21 21 0 0
BITMAP
00f800
030600
0c0180
103040
203820
242c20
462610
432310
81a608
80ec08
807808
80ec08
81a608
432310
462610
242c20
203820
103040
0c0180
030600
00f800
ENDCHAR
STARTCHAR streamline-interface-essential-bookmark_1--interface-essential.png
ENCODING 337
DWIDTH 21 0
BBX 21 21 0 0
BITMAP
07ff80
080240
100420
200820
200820
200820
26c820
2fefe0
2fe800
27c800
238800
210800
200800
200800
200800
200800
210800
228800
244800
282800
101000
ENDCHAR
STARTCHAR streamline-interface-essential-bookmark--interface-essential.png
ENCODING 338
DWIDTH 21 0
BBX 21 21 0 0
BITMAP
1f8000
7effe0
874010
874008
87c008
87cf88
87c008
86c008
844f88
800008
800008
800008
8fff88
800008
800008
800008
8fff88
800008
800008
400010
3fffe0
ENDCHAR
STARTCHAR streamline-interface-essential-calendar-appointment--interface-essential.png
ENCODING 339
DWIDTH 21 0
BBX 21 21 0 0
BITMAP
040200
040200
3fffc0
440220
800010
800010
fffff0
800010
800010
911110
800010
800010
801b10
913f90
803f90
801f10
800e10
910410
800010
800010
7fffe0
ENDCHAR
STARTCHAR streamline-interface-essential-calendar-date--interface-essential.png
ENCODING 340
DWIDTH 21 0
BBX 21 21 0 0
BITMAP
080100
080100
77fee0
f7fef0
fffff0
fffff0
800010
800010
800010
800010
811e10
871010
811010
811e10
810210
810210
87de10
800010
800010
800010
7fffe0
ENDCHAR
STARTCHAR streamline-interface-essential-call-center-contact-help--interface-essential.png
ENCODING 341
DWIDTH 21 0
BBX 21 21 0 0
BITMAP
01fc00
020200
040100
080080
080080
080080
080080
080080
3800e0
6800b0
e800b8
e800b8
e800b8
e800b8
7800f0
300060
000040
001c40
002380
001c00
000000
ENDCHAR
STARTCHAR streamline-interface-essential-clip-1--interface-essential.png
ENCODING 342
DWIDTH 21 0
BBX 21 21 0 0
BITMAP
000000
000000
000f00
003080
004040
008e20
011120
022120
044120
088240
110440
220880
401100
402200
404400
408800
211000
1e0000
000000
000000
000000
ENDCHAR
STARTCHAR streamline-interface-essential-clip-2--interface-essential.png
ENCODING 343
DWIDTH 21 0
BBX 21 21 0 0
BITMAP
000000
01e000
021000
040800
040800
040800
048800
048800
048800
048a00
048a00
048a00
048a00
048a00
045200
042200
020400
010800
00f000
000000
000000
ENDCHAR
STARTCHAR streamline-interface-essential-clock--interface-essential.png
ENCODING 344
DWIDTH 21 0
BBX 21 21 0 0
BITMAP
00f800
030600
0c0180
102040
202020
202020
402010
402010
802008
807008
80ff08
807008
802008
400010
400010
200020
200020
100040
0c0180
030600
00f800
ENDCHAR
STARTCHAR streamline-interface-essential-clound-download--interface-essential.png
ENCODING 345
DWIDTH 21 0
BBX 21 21 0 0
BITMAP
000000
007000
018c00
020200
040100
0401c0
3c0220
420410
810008
800008
800008
800008
800010
407020
3e73c0
007000
01fc00
00f800
007000
002000
000000
ENDCHAR
STARTCHAR streamline-interface-essential-cog-browser--interface-essential.png
ENCODING 346
DWIDTH 21 0
BBX 21 21 0 0
BITMAP
7ffff0
800008
aa0008
800008
fffff8
800008
807008
815408
828a08
840108
827208
8c8988
888888
8c8988
827208
840108
828a08
815408
807008
800008
7ffff0
ENDCHAR
STARTCHAR streamline-interface-essential-cog-double--interface-essential.png
ENCODING 347
DWIDTH 21 0
BBX 21 21 0 0
BITMAP
000700
001540
0028a0
004010
000720
03ce98
124f88
2a5798
442320
200410
1188a0
e24740
842100
842100
e24700
118800
200400
442200
2a5400
124800
03c000
ENDCHAR
STARTCHAR streamline-interface-essential-cog-hand-give--interface-essential.png
ENCODING 348
DWIDTH 21 0
BBX 21 21 0 0
BITMAP
070000
14e000
291000
410800
250400
c88300
8840b8
c84078
272038
402038
289038
954038
870038
700038
200038
200028
1fc028
0800f8
080738
07f800
000000
ENDCHAR
STARTCHAR streamline-interface-essential-cog-search--interface-essential.png
ENCODING 349
DWIDTH 21 0
BBX 21 21 0 0
BITMAP
03e000
0c1800
11c400
255200
4a2900
500500
89c880
b22680
a22280
b22680
89c880
500500
4a2900
255380
11c7c0
0c1f60
03e7b0
0003d0
0001f0
0000e0
000000
ENDCHAR
STARTCHAR streamline-interface-essential-crown--interface-essential.png
ENCODING 350
DWIDTH 21 0
BBX 21 21 0 0
BITMAP
000000
000000
000000
006000
009000
609060
906090
909090
7090e0
290940
250a40
220440
106080
1b6d80
100080
1fff80
1fff80
0fff00
000000
000000
000000
ENDCHAR
STARTCHAR streamline-interface-essential-cursor-click-point--interface-essential.png
ENCODING 351
DWIDTH 21 0
BBX 21 21 0 0
BITMAP
03f000
040800
09e400
121200
14ca00
15ea00
15ea00
148a00
122200
09b000
042800
03a400
002200
002100
002080
002040
0021c0
002900
003480
002480
000300
ENDCHAR
STARTCHAR streamline-interface-essential-cursor--interface-essential.png
ENCODING 352
DWIDTH 21 0
BBX 21 21 0 0
BITMAP
000000
080000
0c0000
0a0000
090000
088000
084000
082000
081000
080800
080400
080200
080100
081f00
089000
094800
0a4800
0c2400
002400
001800
000000
ENDCHAR
STARTCHAR streamline-interface-essential-cursor-select--interface-essential.png
ENCODING 353
DWIDTH 21 0
BBX 21 21 0 0
BITMAP
800000
c00000
e00000
f00000
f80800
fc1400
fe2200
e07f00
c00800
810840
030860
050050
09e3c8
050050
030860
010840
000800
007f00
002200
001400
000800
ENDCHAR
STARTCHAR streamline-interface-essential-dial-pad-1--interface-essential.png
ENCODING 354
DWIDTH 21 0
BBX 21 21 0 0
BITMAP
000000
3870e0
7cf9f0
7cf9f0
7cf9f0
3870e0
000000
000000
3870e0
7cf9f0
7cf9f0
7cf9f0
3870e0
000000
000000
087080
10f840
20f820
10f840
087080
000000
ENDCHAR
STARTCHAR streamline-interface-essential-dial-pad-2--interface-essential.png
ENCODING 355
DWIDTH 21 0
BBX 21 21 0 0
BITMAP
000000
3870e0
7cf970
6ca9b0
7cf9d0
3870e0
000000
000000
3870e0
54a910
7cd9f0
54a910
3870e0
000000
000000
007000
008800
00d800
008800
007000
000000
ENDCHAR
STARTCHAR streamline-interface-essential-dial-pad-finger-1--interface-essential.png
ENCODING 356
DWIDTH 21 0
BBX 21 21 0 0
BITMAP
70e1c0
f9f3e0
f9f3e0
f9c3e0
7099c0
002400
002400
70e5c0
f9e7e0
f9e7e0
f9e020
712490
012488
010488
710008
f88008
f84008
f82010
702020
002020
000000
ENDCHAR
STARTCHAR streamline-interface-essential-dial-pad-finger-2--interface-essential.png
ENCODING 357
DWIDTH 21 0
BBX 21 21 0 0
BITMAP
044400
024800
000000
70e1c0
89f220
898220
893220
7049c0
004800
004800
004800
704f80
89c040
8a4920
8a4910
720910
020010
010010
008010
004020
004040
ENDCHAR
STARTCHAR streamline-interface-essential-direction-button--interface-essential.png
ENCODING 358
DWIDTH 21 0
BBX 21 21 0 0
BITMAP
002000
005000
008800
010400
020200
01fc00
080080
140140
247120
44f910
84f908
44f910
247120
140140
080080
01fc00
020200
010400
008800
005000
002000
ENDCHAR
STARTCHAR streamline-interface-essential-edit-fill--interface-essential.png
ENCODING 359
DWIDTH 21 0
BBX 21 21 0 0
BITMAP
0000e0
3ff110
400288
800448
8008a8
801110
802220
804440
80a888
809108
80ca08
80e408
80f808
800008
800008
800008
800008
800008
800008
400010
3fffe0
ENDCHAR
STARTCHAR streamline-interface-essential-eraser--interface-essential.png
ENCODING 360
DWIDTH 21 0
BBX 21 21 0 0
BITMAP
003000
004800
008400
010200
020100
042080
088040
108820
204020
103040
280080
440100
820200
810400
408800
205000
10a000
0f0120
7fc400
f7f088
000000
ENDCHAR
STARTCHAR streamline-interface-essential-expand-1--interface-essential.png
ENCODING 361
DWIDTH 21 0
BBX 21 21 0 0
BITMAP
0001f8
000018
000028
000048
000088
000108
000200
000400
000800
000000
000000
000000
008000
010000
020000
840000
880000
900000
a00000
c00000
fc0000
ENDCHAR
STARTCHAR streamline-interface-essential-expand-2--interface-essential.png
ENCODING 362
DWIDTH 21 0
BBX 21 21 0 0
BITMAP
000ff0
001008
001008
000f08
000208
000448
0008c8
001148
001248
000c30
000000
618000
924000
944000
988000
910000
820000
878000
804000
804000
7f8000
ENDCHAR
STARTCHAR streamline-interface-essential-expand-3--interface-essential.png
ENCODING 363
DWIDTH 21 0
BBX 21 21 0 0
BITMAP
7f8ff0
805008
805008
878f08
820208
910448
9888c8
945148
925248
618c30
000000
618c30
925248
945148
9898c8
910448
820208
878f08
805008
805008
7f8ff0
ENDCHAR
STARTCHAR streamline-interface-essential-face-id-1--interface-essential.png
ENCODING 364
DWIDTH 21 0
BBX 21 21 0 0
BITMAP
022200
022200
200020
10f840
030600
040100
c8f898
09fc80
118c40
110440
d10458
110440
110440
08f880
c90498
060300
030600
10f840
200020
022200
022200
ENDCHAR
STARTCHAR streamline-interface-essential-face-id--interface-essential.png
ENCODING 365
DWIDTH 21 0
BBX 21 21 0 0
BITMAP
38f8e0
400010
800008
800008
800008
020200
022200
002000
802008
801008
800808
803008
000000
020200
010400
80f808
800008
800008
400010
38f8e0
000000
ENDCHAR
STARTCHAR streamline-interface-essential-file-error--interface-essential.png
ENCODING 366
DWIDTH 21 0
BBX 21 21 0 0
BITMAP
3ffc00
200600
200700
200780
2007c0
2007e0
200020
200020
220220
270720
220220
200020
200020
27ff20
200920
200920
200620
200020
200020
200020
3fffe0
ENDCHAR
STARTCHAR streamline-interface-essential-filter--interface-essential.png
ENCODING 367
DWIDTH 21 0
BBX 21 21 0 0
BITMAP
07ff00
1800c0
27ff20
5fffd0
5fffd0
47ff10
41fc10
400010
200020
100040
080080
040100
020200
010400
008800
008800
008800
008800
008800
009000
006000
ENDCHAR
STARTCHAR streamline-interface-essential-find-text--interface-essential.png
ENCODING 368
DWIDTH 21 0
BBX 21 21 0 0
BITMAP
03e000
0c1800
100400
200200
400100
400100
800080
87f080
888880
888880
888880
408100
408100
208380
1087c0
0c1f60
03e7b0
0003d0
0081f0
03e0e0
000000
ENDCHAR
STARTCHAR streamline-interface-essential-finger-print-scan--interface-essential.png
ENCODING 369
DWIDTH 21 0
BBX 21 21 0 0
BITMAP
01fc00
000200
08d800
130640
147140
240120
210480
2a32a0
2a0aa0
28aa20
2aa220
2aaa20
088aa0
2a72a0
2800a0
248920
147140
100640
08f800
060200
01cc00
ENDCHAR
STARTCHAR streamline-interface-essential-flag--interface-essential.png
ENCODING 370
DWIDTH 21 0
BBX 21 21 0 0
BITMAP
000000
7fe000
801000
801fe0
801010
801020
801020
801040
801040
801080
801040
801040
801020
fff020
807010
803fe0
800000
800000
800000
800000
000000
ENDCHAR
STARTCHAR streamline-interface-essential-flash--interface-essential.png
ENCODING 371
DWIDTH 21 0
BBX 21 21 0 0
BITMAP
207f80
708080
210100
020200
040420
080850
101020
203f00
400080
400080
3f0100
010200
010400
420800
a21000
422080
0441c0
048080
050000
021000
000000
ENDCHAR
STARTCHAR streamline-interface-essential-flip-vertical-down--interface-essential.png
ENCODING 372
DWIDTH 21 0
BBX 21 21 0 0
BITMAP
3fffe0
400010
400010
400010
400010
407810
40e010
40c010
41c410
41ec10
edfdb8
00fc00
407c10
40fc10
41fc10
000000
000000
400010
400010
400010
39dce0
ENDCHAR
STARTCHAR streamline-interface-essential-flip-vertical-up--interface-essential.png
ENCODING 373
DWIDTH 21 0
BBX 21 21 0 0
BITMAP
39dce0
400010
400010
400010
000000
000000
41fc10
40fc10
407c10
00fc00
edfdb8
41ec10
41c410
40c010
40e010
407810
400010
400010
400010
400010
3fffe0
ENDCHAR
STARTCHAR streamline-interface-essential-floppy-disk--interface-essential.png
ENCODING 374
DWIDTH 21 0
BBX 21 21 0 0
BITMAP
3fffe0
520050
920f48
920b48
920b48
920f48
8e0048
83ffc8
800008
800008
8fff88
900048
900048
900048
93fe48
900048
900048
93fe48
900048
900048
7ffff0
ENDCHAR
STARTCHAR streamline-interface-essential-global-public--interface-essential.png
ENCODING 375
DWIDTH 21 0
BBX 21 21 0 0
BITMAP
00f800
030600
0e0180
1f8040
3fc020
3fc1e0
7e81f0
7c03f0
e003f8
c183f8
e181f8
f080f8
f807f8
780ff0
7801f0
3001e0
2003e0
1003c0
0dc180
03e600
00f800
ENDCHAR
STARTCHAR streamline-interface-essential-hammer-1--interface-essential.png
ENCODING 376
DWIDTH 21 0
BBX 21 21 0 0
BITMAP
004000
00a600
011900
008080
004040
002020
001050
003888
005d10
00ba20
017140
03e080
07c000
0f8000
1f0000
3e0000
7c0000
f80000
f00000
600000
000000
ENDCHAR
STARTCHAR streamline-interface-essential-hammer-2--interface-essential.png
ENCODING 377
DWIDTH 21 0
BBX 21 21 0 0
BITMAP
007000
018800
020400
040200
058100
024080
002060
002090
004510
00ea20
017240
02e180
05c000
0f8000
1f0000
3e0000
7c0000
f80000
f00000
600000
000000
ENDCHAR
STARTCHAR streamline-interface-essential-heart-favorite--interface-essential.png
ENCODING 378
DWIDTH 21 0
BBX 21 21 0 0
BITMAP
000000
000000
1f07c0
208820
405190
802048
800028
800028
800008
800008
400010
400010
200020
1800c0
060300
018c00
005000
002000
000000
000000
000000
ENDCHAR
STARTCHAR streamline-interface-essential-hierarchy-1--interface-essential.png
ENCODING 379
DWIDTH 21 0
BBX 21 21 0 0
BITMAP
00f800
010400
020200
028a00
020200
028a00
027200
010400
00f800
002000
002000
002000
0fff80
102040
202020
202020
707070
f8f8f8
f8f8f8
f8f8f8
707070
ENDCHAR
STARTCHAR streamline-interface-essential-hierarchy-2--interface-essential.png
ENCODING 380
DWIDTH 21 0
BBX 21 21 0 0
BITMAP
000000
007000
008800
008800
008800
007000
002000
002000
002000
0fff80
102040
202020
202020
202020
707070
888888
888888
888888
707070
000000
000000
ENDCHAR
STARTCHAR streamline-interface-essential-hierarchy-3--interface-essential.png
ENCODING 381
DWIDTH 21 0
BBX 21 21 0 0
BITMAP
7fc000
802000
802000
7fc000
040000
040000
040000
020000
01fe00
000100
000100
001ff0
002008
002008
001ff0
000100
000100
7fc100
803e00
802000
7fc000
ENDCHAR
STARTCHAR streamline-interface-essential-hierarchy-4--interface-essential.png
ENCODING 382
DWIDTH 21 0
BBX 21 21 0 0
BITMAP
00f000
010800
020400
020400
020400
020400
010800
01f800
020400
020400
040200
040200
080100
3c01e0
420210
810408
810408
81fc08
810408
420210
3c01e0
ENDCHAR
STARTCHAR streamline-interface-essential-hierarchy-5--interface-essential.png
ENCODING 383
DWIDTH 21 0
BBX 21 21 0 0
BITMAP
006000
009000
009000
010800
016800
026400
02f400
040200
07fe00
020400
040200
040200
080100
3c07f8
420408
9905e8
bd05e8
bdfde8
9905e8
420408
3c07f8
ENDCHAR
STARTCHAR streamline-interface-essential-hierarchy-files--interface-essential.png
ENCODING 384
DWIDTH 21 0
BBX 21 21 0 0
BITMAP
2007c0
200c40
201c40
001040
201540
3b7040
201740
001040
201fc0
200000
200000
000000
2007c0
200c40
201c40
001040
201540
1b7040
001740
001040
001fc0
ENDCHAR
STARTCHAR streamline-interface-essential-home-1--interface-essential.png
ENCODING 385
DWIDTH 21 0
BBX 21 21 0 0
BITMAP
006000
00f000
01f800
039c00
070e00
0e6700
1c9380
3891c0
7060e0
e00070
600060
20f040
210840
2d0b40
2d0b40
214840
210840
210840
210840
210840
1fff80
ENDCHAR
STARTCHAR streamline-interface-essential-home-2--interface-essential.png
ENCODING 386
DWIDTH 21 0
BBX 21 21 0 0
BITMAP
006000
00f000
01f800
039c00
070e00
0e6700
1c9380
3909c0
7204e0
e40270
c80130
100080
200040
206040
209040
210840
210840
210840
210840
210840
3f0fc0
ENDCHAR
STARTCHAR streamline-interface-essential-hyperlink--interface-essential.png
ENCODING 387
DWIDTH 21 0
BBX 21 21 0 0
BITMAP
000000
000000
000000
000000
000000
000000
3f07e0
408810
9e53c8
a3fe28
a7ff28
a3fe28
9e53c8
408810
3f07e0
000000
000000
000000
000000
000000
000000
ENDCHAR
STARTCHAR streamline-interface-essential-information-circle-1--interface-essential.png
ENCODING 388
DWIDTH 21 0
BBX 21 21 0 0
BITMAP
00f800
030600
0c0180
107040
20f820
20f820
40f810
407010
800008
807008
80f808
80f808
80f808
40f810
40f810
20fc20
20fe20
107c40
0c0180
030600
00f800
ENDCHAR
STARTCHAR streamline-interface-essential-information-circle-2--interface-essential.png
ENCODING 389
DWIDTH 21 0
BBX 21 21 0 0
BITMAP
00f800
03fe00
0fff80
1f8fc0
3f07e0
3f07e0
7f07f0
7f8ff0
fffff8
ff8ff8
ff07f8
ff07f8
ff07f8
7f07f0
7f07f0
3f03e0
3f01e0
1f83c0
0fff80
03fe00
00f800
ENDCHAR
STARTCHAR streamline-interface-essential-iris-scan-approved--interface-essential.png
ENCODING 390
DWIDTH 21 0
BBX 21 21 0 0
BITMAP
01f800
060600
18f180
210840
422420
821410
821410
420420
210000
18e7c0
060fe0
019ff0
003fc8
003f88
002718
002238
003078
0018f0
000fe0
0007c0
000000
ENDCHAR
STARTCHAR streamline-interface-essential-iris-scan--interface-essential.png
ENCODING 391
DWIDTH 21 0
BBX 21 21 0 0
BITMAP
700070
800008
800008
800008
01fc00
060300
1870c0
20f820
41fc10
83de08
838e08
83de08
41fc10
20f820
1870c0
060300
01fc00
800008
800008
800008
700070
ENDCHAR
STARTCHAR streamline-interface-essential-key-1--interface-essential.png
ENCODING 392
DWIDTH 21 0
BBX 21 21 0 0
BITMAP
007c00
008200
010100
010780
016940
0097a0
0135a0
0137a0
011020
010840
020c80
047480
0884e0
110420
2084e0
444480
2a84e0
110420
0004e0
000480
000300
ENDCHAR
STARTCHAR streamline-interface-essential-keyboard-button-direction-1--interface-essential.png
ENCODING 393
DWIDTH 21 0
BBX 21 21 0 0
BITMAP
03fe00
020200
022200
027200
02fa00
020200
fe03f8
800008
880088
9888c8
b800e8
9888c8
887088
800008
fe03f8
020200
02fa00
027200
022200
020200
03fe00
ENDCHAR
STARTCHAR streamline-interface-essential-keyboard-button-direction-2--interface-essential.png
ENCODING 394
DWIDTH 21 0
BBX 21 21 0 0
BITMAP
01fc00
03de00
038e00
030600
03fe00
01fc00
7800f0
fc01f8
ec01b8
cc0198
8c0188
cc0198
ec01b8
fc01f8
7800f0
01fc00
03fe00
030600
038e00
03de00
01fc00
ENDCHAR
STARTCHAR streamline-interface-essential-key--interface-essential.png
ENCODING 395
DWIDTH 21 0
BBX 21 21 0 0
BITMAP
01f800
020400
046200
08d100
08f100
086100
080100
080100
040200
020400
019800
009000
009c00
008200
009c00
009000
009c00
008200
009c00
009000
006000
ENDCHAR
STARTCHAR streamline-interface-essential-key-lock--interface-essential.png
ENCODING 396
DWIDTH 21 0
BBX 21 21 0 0
BITMAP
000f80
001fc0
0038e0
183060
243060
e43060
843060
e43060
243060
e43060
847ff0
e48008
248008
248888
420008
990888
bd0708
bd0008
990008
424010
3c3fe0
ENDCHAR
STARTCHAR streamline-interface-essential-key-login--interface-essential.png
ENCODING 397
DWIDTH 21 0
BBX 21 21 0 0
BITMAP
00f800
030600
0c0180
100040
200000
200000
4001e0
400210
87fcc8
8801e8
8bbde8
8aa4c8
8aa210
4441e0
400000
200000
200020
100040
0c0180
030600
00f800
ENDCHAR
STARTCHAR streamline-interface-essential-light-bulb--interface-essential.png
ENCODING 398
DWIDTH 21 0
BBX 21 21 0 0
BITMAP
03fe00
040100
080080
100040
200020
200020
200020
210420
210420
208820
208820
205020
105040
085080
045100
03fe00
010400
01fc00
01fc00
010400
00f800
ENDCHAR
STARTCHAR streamline-interface-essential-link-broken-1--interface-essential.png
ENCODING 399
DWIDTH 21 0
BBX 21 21 0 0
BITMAP
000000
1c4000
044000
0747e0
010810
010808
1c0788
000048
000048
0c0048
120788
220808
440810
88c7e0
912000
922000
8c4000
408000
210000
1e0000
000000
ENDCHAR
STARTCHAR streamline-interface-essential-link-broken-2--interface-essential.png
ENCODING 400
DWIDTH 21 0
BBX 21 21 0 0
BITMAP
000000
000000
000000
002000
042100
022200
012400
000000
3f07e0
408810
9e53c8
a1dc28
a00028
a1dc28
9e53c8
408810
3f07e0
000000
000000
000000
000000
ENDCHAR
STARTCHAR streamline-interface-essential-link--interface-essential.png
ENCODING 401
DWIDTH 21 0
BBX 21 21 0 0
BITMAP
000000
1e0000
210000
408000
404000
402000
402000
21a000
11c000
08ee00
077100
003880
005840
004020
004020
002020
001020
000840
000780
000000
000000
ENDCHAR
STARTCHAR streamline-interface-essential-list--interface-essential.png
ENCODING 402
DWIDTH 21 0
BBX 21 21 0 0
BITMAP
000000
000000
61ffe0
f20010
f20010
61ffe0
000000
000000
61ffe0
f20010
f20010
61ffe0
000000
000000
61ffe0
f20010
f20010
61ffe0
000000
000000
000000
ENDCHAR
STARTCHAR streamline-interface-essential-loading-0-percent-1--interface-essential.png
ENCODING 403
DWIDTH 21 0
BBX 21 21 0 0
BITMAP
000000
00f800
030600
0c0180
100040
100040
200020
200020
41c010
415210
414410
414810
41d210
200020
200020
100040
100040
0c0180
030600
00f800
000000
ENDCHAR
STARTCHAR streamline-interface-essential-loading-0-percent--interface-essential.png
ENCODING 404
DWIDTH 21 0
BBX 21 21 0 0
BITMAP
002000
082080
040100
000000
000000
400010
200020
000000
01c000
015200
c14418
014800
01d200
000000
200020
400010
000000
000000
040100
082080
002000
ENDCHAR
STARTCHAR streamline-interface-essential-loading-100-percent-1--interface-essential.png
ENCODING 405
DWIDTH 21 0
BBX 21 21 0 0
BITMAP
00f800
03fe00
0fff80
1f8fc0
3e03e0
3800e0
7aeef0
72aa70
f2aa78
e2aa38
e2ee38
e00038
f09078
702070
7840f0
3890e0
3e03e0
1f8fc0
0fff80
03fe00
00f800
ENDCHAR
STARTCHAR streamline-interface-essential-loading-100-percent--interface-essential.png
ENCODING 406
DWIDTH 21 0
BBX 21 21 0 0
BITMAP
002000
082080
040100
000000
00a800
40f810
20f820
000000
02ee00
02aa00
c2aa18
02ee00
000000
009000
202020
404010
009000
040100
080080
002000
002000
ENDCHAR
STARTCHAR streamline-interface-essential-loading-20-percent--interface-essential.png
ENCODING 407
DWIDTH 21 0
BBX 21 21 0 0
BITMAP
002000
082080
040100
000000
000000
400010
200020
000000
0ee000
02a480
cea118
08a200
0ee480
000000
200020
400010
000000
040100
080080
002000
002000
ENDCHAR
STARTCHAR streamline-interface-essential-loading-25-percent-1--interface-essential.png
ENCODING 408
DWIDTH 21 0
BBX 21 21 0 0
BITMAP
007000
01fc00
067f00
181f80
2007c0
2001c0
43b9e0
40a0e0
83b8f0
820870
83b870
800020
812020
404040
408040
212080
200080
180300
060c00
01f000
000000
ENDCHAR
STARTCHAR streamline-interface-essential-loading-50-percent-1--interface-essential.png
ENCODING 409
DWIDTH 21 0
BBX 21 21 0 0
BITMAP
007000
01fc00
067f00
181f80
2007c0
2001c0
43b9e0
4228e0
83a8f0
80a870
83b870
800070
8120f0
4040e0
4081e0
2121c0
2007c0
181f80
067f00
01fc00
007000
ENDCHAR
STARTCHAR streamline-interface-essential-loading-50-percent--interface-essential.png
ENCODING 410
DWIDTH 21 0
BBX 21 21 0 0
BITMAP
002000
082080
040100
000000
000000
400010
200020
000000
0ee000
08a480
cea118
02a200
0ee480
000000
200020
400010
000000
040100
080080
002000
002000
ENDCHAR
STARTCHAR streamline-interface-essential-loading-75-percent-1--interface-essential.png
ENCODING 411
DWIDTH 21 0
BBX 21 21 0 0
BITMAP
003800
00fe00
033f80
0c0fc0
1003e0
1000e0
21dcf0
205070
405c78
404438
e05c38
e00038
f09078
702070
7840f0
3890e0
3e03e0
1f8fc0
0fff80
03fe00
00f800
ENDCHAR
STARTCHAR streamline-interface-essential-loading-80-percent--interface-essential.png
ENCODING 412
DWIDTH 21 0
BBX 21 21 0 0
BITMAP
002000
082080
040100
000000
000000
400010
200020
000000
0ee000
0aa480
cea118
0aa200
0ee480
000000
200020
400010
000000
040100
080080
002000
002000
ENDCHAR
STARTCHAR streamline-interface-essential-loading-circle-1--interface-essential.png
ENCODING 413
DWIDTH 21 0
BBX 21 21 0 0
BITMAP
01f000
011000
0117c0
011440
11f440
000440
0007c0
000000
000000
0000e0
4000a0
0000e0
000000
000000
000000
380380
380280
38e380
00e000
00e000
000000
ENDCHAR
STARTCHAR streamline-interface-essential-loading-circle-2--interface-essential.png
ENCODING 414
DWIDTH 21 0
BBX 21 21 0 0
BITMAP
007000
00f800
1cf9c0
26fb20
2e73a0
3e03e0
1c01c0
000000
700070
9800c8
9800c8
f800f8
700070
000000
1c01c0
260320
267320
268b20
1c89c0
008800
007000
ENDCHAR
STARTCHAR streamline-interface-essential-loading-status--interface-essential.png
ENCODING 415
DWIDTH 21 0
BBX 21 21 0 0
BITMAP
000000
000000
000000
000000
000000
3fffe0
400010
9ff008
bff808
bffc08
bffc08
bffc08
bff808
9ff008
400010
3fffe0
000000
000000
000000
000000
000000
ENDCHAR
STARTCHAR streamline-interface-essential-lock-1--interface-essential.png
ENCODING 416
DWIDTH 21 0
BBX 21 21 0 0
BITMAP
700070
80f808
810408
820208
020200
020200
020200
020200
07ff00
080080
080080
087080
08e880
08f880
087080
082080
082080
880088
840108
83fe08
700070
ENDCHAR
STARTCHAR streamline-interface-essential-lock-door-out--interface-essential.png
ENCODING 417
DWIDTH 21 0
BBX 21 21 0 0
BITMAP
00fe00
010100
027c80
049240
051140
011140
1c1140
22ff40
221140
221140
7f1140
809140
9cbf40
9c9140
889140
889140
809140
7f3f40
000040
1ffff0
1ffff0
ENDCHAR
STARTCHAR streamline-interface-essential-lock--interface-essential.png
ENCODING 418
DWIDTH 21 0
BBX 21 21 0 0
BITMAP
01fc00
020200
040100
040100
040100
040100
040100
040100
0fff80
100040
100040
107040
10e840
10f840
107040
102040
102040
102040
100040
080080
07ff00
ENDCHAR
STARTCHAR streamline-interface-essential-lock-shield--interface-essential.png
ENCODING 419
DWIDTH 21 0
BBX 21 21 0 0
BITMAP
01fc00
060300
1870c0
208820
210420
210420
210420
210420
23fe20
240120
245120
24e920
24f920
247120
142140
120240
09fc80
040100
020200
018c00
007000
ENDCHAR
STARTCHAR streamline-interface-essential-magnet--interface-essential.png
ENCODING 420
DWIDTH 21 0
BBX 21 21 0 0
BITMAP
080100
100200
3c0780
080100
100200
000000
000000
3e07c0
3e07c0
3e07c0
3e07c0
220440
220440
220440
220440
220440
11f880
100080
080100
060600
01f800
ENDCHAR
STARTCHAR streamline-interface-essential-map--interface-essential.png
ENCODING 421
DWIDTH 21 0
BBX 21 21 0 0
BITMAP
000000
007000
00f800
01cc00
01ec00
01fc00
00f800
007000
002000
002000
002000
07ff00
082880
087180
10a240
112440
2e0420
218420
404410
fffff8
000000
ENDCHAR
STARTCHAR streamline-interface-essential-message--interface-essential.png
ENCODING 422
DWIDTH 21 0
BBX 21 21 0 0
BITMAP
01fc00
060300
180080
200040
400020
800010
800010
800010
8c6310
8c6310
800010
800010
800010
400020
200040
100080
0c0100
080600
101800
3fe000
000000
ENDCHAR
STARTCHAR streamline-interface-essential-microphone--interface-essential.png
ENCODING 423
DWIDTH 21 0
BBX 21 21 0 0
BITMAP
01fc00
020200
040100
052500
040100
048900
140140
1d25c0
140140
148940
140140
17ff40
17ff40
13fe40
09fc80
045100
03de00
005000
07ff00
080080
1fffc0
ENDCHAR
STARTCHAR streamline-interface-essential-move--interface-essential.png
ENCODING 424
DWIDTH 21 0
BBX 21 21 0 0
BITMAP
002000
007000
00f800
01fc00
002000
002000
002000
102040
300060
700070
ff07f8
700070
300060
102040
002000
002000
002000
01fc00
00f800
007000
002000
ENDCHAR
STARTCHAR streamline-interface-essential-navigation-left-circle-1--interface-essential.png
ENCODING 425
DWIDTH 21 0
BBX 21 21 0 0
BITMAP
00f800
03fe00
0fff80
1fffc0
3fffe0
3f7fe0
7e7ff0
7c01f0
f800f8
f00078
f80078
fc0078
fe7878
7f7c70
7ff8f0
3ff1e0
3fffe0
1fffc0
0fff80
03fe00
00f800
ENDCHAR
STARTCHAR streamline-interface-essential-navigation-left-circle-2--interface-essential.png
ENCODING 426
DWIDTH 21 0
BBX 21 21 0 0
BITMAP
00f800
030600
0c0180
100040
200020
208020
418010
43fe10
87ff08
8fff88
87ff88
83ff88
818788
408390
400710
200c20
200020
100040
0c0180
030600
00f800
ENDCHAR
STARTCHAR streamline-interface-essential-navigation-menu-1--interface-essential.png
ENCODING 427
DWIDTH 21 0
BBX 21 21 0 0
BITMAP
3fffc0
400020
800010
800010
800010
800010
800010
800010
986190
bcf3d0
bcf3d0
986190
800010
800010
800010
800010
800010
800010
400020
3fffc0
000000
ENDCHAR
STARTCHAR streamline-interface-essential-navigation-menu-2--interface-essential.png
ENCODING 428
DWIDTH 21 0
BBX 21 21 0 0
BITMAP
3fffc0
400020
800010
800010
800010
800010
800010
8e0010
9f0010
bbb6d0
be36d0
bf8010
9f0010
8e0010
800010
800010
800010
800010
400020
3fffc0
000000
ENDCHAR
STARTCHAR streamline-interface-essential-navigation-menu-3--interface-essential.png
ENCODING 429
DWIDTH 21 0
BBX 21 21 0 0
BITMAP
3fffc0
400020
800010
8fff10
9fff90
900090
8fff10
800010
8fff10
9fff90
900090
8fff10
800010
8fff10
9fff90
900090
8fff10
800010
400020
3fffc0
000000
ENDCHAR
STARTCHAR streamline-interface-essential-navigation-right-circle-1--interface-essential.png
ENCODING 430
DWIDTH 21 0
BBX 21 21 0 0
BITMAP
00f800
03fe00
0fff80
1fffc0
3fffe0
3ff7e0
7ff3f0
7c01f0
f800f8
f00078
f000f8
f001f8
f0f3f8
71f7f0
78fff0
3c7fe0
3fffe0
1fffc0
0fff80
03fe00
00f800
ENDCHAR
STARTCHAR streamline-interface-essential-navigation-right-circle-2--interface-essential.png
ENCODING 431
DWIDTH 21 0
BBX 21 21 0 0
BITMAP
00f800
030600
0c0180
100040
200020
200820
400c10
43fe10
87ff08
8fff88
8fff08
8ffe08
8f0c08
4e0810
470010
218020
200020
100040
0c0180
030600
00f800
ENDCHAR
STARTCHAR streamline-interface-essential-note-music--interface-essential.png
ENCODING 432
DWIDTH 21 0
BBX 21 21 0 0
BITMAP
0000e0
000720
003820
01c020
0e00e0
080720
083820
09c020
0e0020
080020
080020
080020
080020
0800e0
0801e0
0801e0
3800c0
780000
780000
300000
000000
ENDCHAR
STARTCHAR streamline-interface-essential-notification-alert--interface-essential.png
ENCODING 433
DWIDTH 21 0
BBX 21 21 0 0
BITMAP
300060
400010
907048
a18c28
020200
040100
040100
080080
080080
080080
080080
080080
100040
23fe20
24f920
107040
0c0180
a3fe28
900048
400010
300060
ENDCHAR
STARTCHAR streamline-interface-essential-pacman-loading--interface-essential.png
ENCODING 434
DWIDTH 21 0
BBX 21 21 0 0
BITMAP
1f0000
208080
404000
404000
852490
802000
802000
802080
aaa000
554000
000380
000fe0
081ff0
000f70
0003f8
4921f8
0003f8
000ff0
081ff0
000fe0
000380
ENDCHAR
STARTCHAR streamline-interface-essential-paginate-filter-camera--interface-essential.png
ENCODING 435
DWIDTH 21 0
BBX 21 21 0 0
BITMAP
0fffe0
100010
100010
700010
d00010
b1f890
93fd90
d3ff90
b3ff90
93ff90
d3fd90
b1f890
900010
d00010
b00010
900010
cfffe0
a49280
924980
7fff00
000000
ENDCHAR
STARTCHAR streamline-interface-essential-paginate-filter-heart--interface-essential.png
ENCODING 436
DWIDTH 21 0
BBX 21 21 0 0
BITMAP
0fffe0
100010
100010
700010
d00010
b0ee10
91ff10
d1ff10
b1ff10
90fe10
d07c10
b03810
901010
d00010
b00010
900010
cfffe0
a49280
924980
7fff00
000000
ENDCHAR
STARTCHAR streamline-interface-essential-paginate-filter-music--interface-essential.png
ENCODING 437
DWIDTH 21 0
BBX 21 21 0 0
BITMAP
0fffe0
100010
100010
700390
d00c90
b03090
904090
d04090
b04090
904390
d1c790
b3c790
93c310
d18010
b00010
900010
cfffe0
a49280
924980
7fff00
000000
ENDCHAR
STARTCHAR streamline-interface-essential-paginate-filter-picture--interface-essential.png
ENCODING 438
DWIDTH 21 0
BBX 21 21 0 0
BITMAP
0fffe0
100010
13ff90
740050
d40350
b40350
940050
d46050
b491d0
950a50
d60450
b40250
93ff90
d00010
b00010
900010
cfffe0
a49280
924980
7fff00
000000
ENDCHAR
STARTCHAR streamline-interface-essential-paginate-filter-video--interface-essential.png
ENCODING 439
DWIDTH 21 0
BBX 21 21 0 0
BITMAP
0fffe0
100010
100010
706010
d07010
b07810
907c10
d07e10
b07f10
907e10
d07c10
b07810
907010
d06010
b00010
900010
cfffe0
a49280
924980
7fff00
000000
ENDCHAR
STARTCHAR streamline-interface-essential-password-type--interface-essential.png
ENCODING 440
DWIDTH 21 0
BBX 21 21 0 0
BITMAP
000000
000000
000000
000000
000000
3fffe0
400010
800008
800008
aaa808
911008
aaabe8
800008
800008
400010
3fffe0
000000
000000
000000
000000
000000
ENDCHAR
STARTCHAR streamline-interface-essential-pencil-edit-1--interface-essential.png
ENCODING 441
DWIDTH 21 0
BBX 21 21 0 0
BITMAP
01fc00
020200
040100
040100
07ff00
048900
048900
048900
048900
048900
048900
048900
048900
048900
048900
07ff00
020200
010400
00f800
007000
002000
ENDCHAR
STARTCHAR streamline-interface-essential-pencil-edit-2--interface-essential.png
ENCODING 442
DWIDTH 21 0
BBX 21 21 0 0
BITMAP
000380
000440
000820
001410
002208
004508
008888
011150
022220
044440
088880
111100
222200
444400
f88800
891000
8e2000
824000
c28000
e30000
fe0000
ENDCHAR
STARTCHAR streamline-interface-essential-pie-chart-poll-report-1--interface-essential.png
ENCODING 443
DWIDTH 21 0
BBX 21 21 0 0
BITMAP
00f800
032600
0c2180
102840
202220
202020
402890
402010
802248
802008
803ff8
807ff8
809ff8
418ff0
4247f0
2623e0
2911e0
1088c0
0c4580
032600
00f800
ENDCHAR
STARTCHAR streamline-interface-essential-pie-chart-poll-report-2--interface-essential.png
ENCODING 444
DWIDTH 21 0
BBX 21 21 0 0
BITMAP
000000
001c00
001f00
019f80
069ec0
089f60
109fa0
209fb0
209ff0
409ff0
408000
408000
40ffc0
400040
200080
200080
100100
080200
060c00
01f000
000000
ENDCHAR
STARTCHAR streamline-interface-essential-pin--interface-essential.png
ENCODING 445
DWIDTH 21 0
BBX 21 21 0 0
BITMAP
000600
000900
000880
000440
000a20
039110
0c6090
100160
204200
202400
101400
080200
040200
060200
0f0400
1c8400
384800
703000
e00000
c00000
000000
ENDCHAR
STARTCHAR streamline-interface-essential-poll--interface-essential.png
ENCODING 446
DWIDTH 21 0
BBX 21 21 0 0
BITMAP
000000
0000e0
0001f0
0001f0
0071f0
0099f0
00a9f0
00c9f0
0099f0
00a9f0
38c9f0
4499f0
44a9f0
44c9f0
4499f0
44a9f0
44c9f0
3870e0
000000
fffff8
000000
ENDCHAR
STARTCHAR streamline-interface-essential-print--interface-essential.png
ENCODING 447
DWIDTH 21 0
BBX 21 21 0 0
BITMAP
03fc00
020a00
020e00
020200
0e0380
1e03c0
1e03c0
1e03c0
7ffff0
900048
8fff88
800008
8000a8
800008
8fff88
820208
82fa08
420210
3efbe0
020200
03fe00
ENDCHAR
STARTCHAR streamline-interface-essential-profile-female--interface-essential.png
ENCODING 448
DWIDTH 21 0
BBX 21 21 0 0
BITMAP
00f800
030600
0c0180
100040
21fc20
23fe20
47ff10
4fff90
8fff88
9e03c8
9c01c8
9d05c8
9d05c8
5c01d0
4e7390
2f07a0
26fb20
100040
0c0180
030600
00f800
ENDCHAR
STARTCHAR streamline-interface-essential-profile-male--interface-essential.png
ENCODING 449
DWIDTH 21 0
BBX 21 21 0 0
BITMAP
00f800
030600
0c0180
100040
21fc20
23fe20
47ff10
47ff10
87ff08
860308
840108
850508
850508
440110
427210
210420
20f820
100040
0c0180
030600
00f800
ENDCHAR
STARTCHAR streamline-interface-essential-protect-guard--interface-essential.png
ENCODING 450
DWIDTH 21 0
BBX 21 21 0 0
BITMAP
01fc00
060300
19fcc0
27e320
2fe0a0
2fe0a0
2fe0a0
2fe0a0
2fe0a0
2fe0a0
283fa0
283fa0
283fa0
283fa0
143f40
143f40
0a3e80
05bd00
027200
018c00
007000
ENDCHAR
STARTCHAR streamline-interface-essential-protect-rubber-ring--interface-essential.png
ENCODING 451
DWIDTH 21 0
BBX 21 21 0 0
BITMAP
00f800
03fe00
0dfd80
11fc40
20f820
20f820
410410
720270
fc01f8
fc01f8
fc01e8
fc01e8
fc01e8
720270
410410
20f820
20f820
11fc40
0dfd80
03fe00
00f800
ENDCHAR
STARTCHAR streamline-interface-essential-question-help-circle-1--interface-essential.png
ENCODING 452
DWIDTH 21 0
BBX 21 21 0 0
BITMAP
00f800
03fe00
0f0780
1e03c0
3c01e0
3860e0
78f0f0
78f0f0
ffe1f8
ffc3f8
ff87f8
ff8ff8
fffff8
7f8ff0
7f07f0
3f07e0
3f07e0
1f8fc0
0fff80
03fe00
00f800
ENDCHAR
STARTCHAR streamline-interface-essential-question-help-circle-2--interface-essential.png
ENCODING 453
DWIDTH 21 0
BBX 21 21 0 0
BITMAP
00f800
030600
0c0180
10f840
21fc20
239e20
430e10
430e10
801e08
803c08
807808
807008
800008
407010
40f810
20f820
20f820
107040
0c0180
030600
00f800
ENDCHAR
STARTCHAR streamline-interface-essential-question-help-square--interface-essential.png
ENCODING 454
DWIDTH 21 0
BBX 21 21 0 0
BITMAP
3fffe0
400010
900048
b8f8e8
91fc48
839e08
830e08
830e08
801e08
803c08
807808
807008
800008
807008
80f808
80f808
90f848
b870e8
900048
400010
3fffe0
ENDCHAR
STARTCHAR streamline-interface-essential-recycle--interface-essential.png
ENCODING 455
DWIDTH 21 0
BBX 21 21 0 0
BITMAP
07fc00
0f8280
1fc180
1fc080
3fa080
3f9080
1f1080
063f00
000060
7e00e0
2101f0
4101f0
4100f8
8304f8
850bf8
8410f0
4fa010
5fa020
3f9040
1f8b80
0f8400
ENDCHAR
STARTCHAR streamline-interface-essential-reflect-down--interface-essential.png
ENCODING 456
DWIDTH 21 0
BBX 21 21 0 0
BITMAP
00ffe0
010010
008020
004040
002080
301100
400a00
800400
800000
800000
81fff0
900000
980000
5c0400
3e0a00
1c1100
182080
104040
008020
010010
00ffe0
ENDCHAR
STARTCHAR streamline-interface-essential-reflect-down-up--interface-essential.png
ENCODING 457
DWIDTH 21 0
BBX 21 21 0 0
BITMAP
00ffe0
010010
008020
104040
182080
1c1100
3e0a00
5c0400
980000
900000
81fff0
800000
800000
800400
400a00
301100
002080
004040
008020
010010
00ffe0
ENDCHAR
STARTCHAR streamline-interface-essential-refresh--interface-essential.png
ENCODING 458
DWIDTH 21 0
BBX 21 21 0 0
BITMAP
000000
000000
00f000
0303e0
0403c0
080380
100340
100240
200020
200020
200020
200020
200020
120040
160040
0e0080
1e0100
3e0600
007800
000000
000000
ENDCHAR
STARTCHAR streamline-interface-essential-safari-compass--interface-essential.png
ENCODING 459
DWIDTH 21 0
BBX 21 21 0 0
BITMAP
00f800
030600
0cf980
130640
242120
2800a0
520050
500250
a00c28
a03c28
a878a8
a07828
a07028
500050
520250
2800a0
242120
130640
0cf980
030600
00f800
ENDCHAR
STARTCHAR streamline-interface-essential-satellite--interface-essential.png
ENCODING 460
DWIDTH 21 0
BBX 21 21 0 0
BITMAP
070000
180000
2000e0
4601f0
480358
91c7b8
932d58
865ef0
04ad60
0547c0
028380
010100
038080
07c240
0d6160
1ef0e0
3569c0
3bc780
358300
1f0000
0e0000
ENDCHAR
STARTCHAR streamline-interface-essential-scisor--interface-essential.png
ENCODING 461
DWIDTH 21 0
BBX 21 21 0 0
BITMAP
000c00
001400
002400
002400
004800
004800
009000
009078
00a188
30a610
785860
cc6180
cf9e00
788000
308000
00c000
01e000
033000
033000
01e000
00c000
ENDCHAR
STARTCHAR streamline-interface-essential-scroll-horizontal--interface-essential.png
ENCODING 462
DWIDTH 21 0
BBX 21 21 0 0
BITMAP
000000
000000
000000
000000
000000
040100
0a0280
120240
227220
42fa10
82fa08
42fa10
227220
120240
0a0280
040100
000000
000000
000000
000000
000000
ENDCHAR
STARTCHAR streamline-interface-essential-scroll-vertical--interface-essential.png
ENCODING 463
DWIDTH 21 0
BBX 21 21 0 0
BITMAP
002000
005000
008800
010400
020200
040100
03fe00
000000
007000
00f800
00f800
00f800
007000
000000
03fe00
040100
020200
010400
008800
005000
002000
ENDCHAR
STARTCHAR streamline-interface-essential-search-1--interface-essential.png
ENCODING 464
DWIDTH 21 0
BBX 21 21 0 0
BITMAP
01e000
061800
180600
200100
206100
401880
400480
800440
800240
800240
800040
400080
400080
200180
2001c0
1807e0
061ff0
01e3f8
0001f0
0000e0
000040
ENDCHAR
STARTCHAR streamline-interface-essential-search-binocular--interface-essential.png
ENCODING 465
DWIDTH 21 0
BBX 21 21 0 0
BITMAP
000000
0f8f80
105040
105040
107040
200020
207020
20f820
407010
5e03d0
612430
5edbd0
a35468
a754e8
af55e8
bf57e8
5e8bd0
210420
1e03c0
000000
000000
ENDCHAR
STARTCHAR streamline-interface-essential-search-check--interface-essential.png
ENCODING 466
DWIDTH 21 0
BBX 21 21 0 0
BITMAP
03e000
0c1800
100400
200200
400100
400900
801c80
803880
887080
9ce080
8fc080
478100
430100
200380
1007c0
0c1f60
03e7b0
0003d0
0001f0
0000e0
000000
ENDCHAR
STARTCHAR streamline-interface-essential-search-remove--interface-essential.png
ENCODING 467
DWIDTH 21 0
BBX 21 21 0 0
BITMAP
03e000
0c1800
100400
200200
441100
4e3900
877080
83e080
81c080
83e080
877080
4e3900
441100
200380
1007c0
0c1f60
03e7b0
0003d0
0001f0
0000e0
000000
ENDCHAR
STARTCHAR streamline-interface-essential-send-mail--interface-essential.png
ENCODING 468
DWIDTH 21 0
BBX 21 21 0 0
BITMAP
000000
000000
000000
000000
000000
001d80
006400
018878
061c00
18e318
6000c0
800020
ffffe0
03ff00
001f00
000000
000000
000000
000000
000000
000000
ENDCHAR
STARTCHAR streamline-interface-essential-setting-cog--interface-essential.png
ENCODING 469
DWIDTH 21 0
BBX 21 21 0 0
BITMAP
00f000
009000
0b0d00
140280
20f040
130c80
240240
240240
c86130
88f110
88f110
c86130
240240
240240
130c80
20f040
140280
0b0d00
009000
00f000
000000
ENDCHAR
STARTCHAR streamline-interface-essential-setting-slide--interface-essential.png
ENCODING 470
DWIDTH 21 0
BBX 21 21 0 0
BITMAP
000100
000280
000280
7ffef0
000280
000280
000100
080000
1c0000
1c0000
7ffff0
1c0000
1c0000
080000
000100
000280
000280
7ffef0
000280
000280
000100
ENDCHAR
STARTCHAR streamline-interface-essential-settings-toggle-horizontal--interface-essential.png
ENCODING 471
DWIDTH 21 0
BBX 21 21 0 0
BITMAP
3fffe0
63fff0
c5fff8
82fff8
82fff8
80fff8
c1fff8
63fff0
3fffe0
000000
000000
3fffe0
400410
800848
800828
800828
800808
800808
400410
3fffe0
000000
ENDCHAR
STARTCHAR streamline-interface-essential-share-1--interface-essential.png
ENCODING 472
DWIDTH 21 0
BBX 21 21 0 0
BITMAP
000380
0007c0
000f60
000fa0
000fa0
0017c0
002380
1c4000
3e8000
7f0000
7f0000
7f0000
3e8000
1c4000
002380
0017c0
000f60
000fa0
000fa0
0007c0
000380
ENDCHAR
STARTCHAR streamline-interface-essential-share-2--interface-essential.png
ENCODING 473
DWIDTH 21 0
BBX 21 21 0 0
BITMAP
000080
0000c0
3ff0a0
4000d0
8007f8
8018f0
8020e0
8040c0
804080
804000
804000
804020
800020
800020
800020
800020
800020
800020
800020
400040
3fff80
ENDCHAR
STARTCHAR streamline-interface-essential-share-3--interface-essential.png
ENCODING 474
DWIDTH 21 0
BBX 21 21 0 0
BITMAP
002000
007000
00f800
01fc00
03fe00
007000
007000
067300
087080
107040
107040
100040
100040
100040
100040
100040
100040
100040
100040
080080
07ff00
ENDCHAR
STARTCHAR streamline-interface-essential-shrink-1--interface-essential.png
ENCODING 475
DWIDTH 21 0
BBX 21 21 0 0
BITMAP
000008
000010
000020
000040
001080
001100
001200
001400
001800
001f80
000000
0fc000
00c000
014000
024000
044000
084000
100000
200000
400000
800000
ENDCHAR
STARTCHAR streamline-interface-essential-shrink-2--interface-essential.png
ENCODING 476
DWIDTH 21 0
BBX 21 21 0 0
BITMAP
000c30
001248
001288
001310
001220
001040
0010f0
001008
001008
000ff0
000000
7f8000
804000
804000
784000
104000
224000
464000
8a4000
924000
618000
ENDCHAR
STARTCHAR streamline-interface-essential-shrink-3--interface-essential.png
ENCODING 477
DWIDTH 21 0
BBX 21 21 0 0
BITMAP
618c30
925248
8a5288
465310
225220
105040
7850f0
805008
805008
7f8ff0
000000
7f8ff0
805008
805008
7850f0
105040
225220
465318
8a5288
925248
618c30
ENDCHAR
STARTCHAR streamline-interface-essential-shrink-4--interface-essential.png
ENCODING 478
DWIDTH 21 0
BBX 21 21 0 0
BITMAP
800008
400010
240120
140140
0c0180
3c01e0
00f800
01fc00
03fe00
037600
03fe00
037600
038e00
01fc00
00f800
3c01e0
0c0180
140140
240120
400010
800008
ENDCHAR
STARTCHAR streamline-interface-essential-signin-expand--interface-essential.png
ENCODING 479
DWIDTH 21 0
BBX 21 21 0 0
BITMAP
fc01f8
c00018
a00028
900048
880088
840108
020200
010400
008800
005000
002000
005000
008800
010400
020200
840108
880088
900048
a00028
c00018
fc01f8
ENDCHAR
STARTCHAR streamline-interface-essential-signin-login--interface-essential.png
ENCODING 480
DWIDTH 21 0
BBX 21 21 0 0
BITMAP
3ffc00
600200
580200
460200
418000
404000
404100
404300
404700
404ff0
404ff0
414700
414300
404100
404000
404000
404200
404200
307c00
0c4000
038000
ENDCHAR
STARTCHAR streamline-interface-essential-signout-logout--interface-essential.png
ENCODING 481
DWIDTH 21 0
BBX 21 21 0 0
BITMAP
7ff800
c00400
b00400
8c0400
830400
808400
808080
8080c0
8080e0
808ff0
808ff0
8280e0
8280c0
808080
808400
808400
808400
808400
60f800
188000
070000
ENDCHAR
STARTCHAR streamline-interface-essential-skull-1--interface-essential.png
ENCODING 482
DWIDTH 21 0
BBX 21 21 0 0
BITMAP
03fe00
0c0180
100040
200020
400010
400010
400010
400010
460310
4f0790
4f0790
460310
400010
207020
100040
080080
088880
088880
088880
077700
000000
ENDCHAR
STARTCHAR streamline-interface-essential-skull-2--interface-essential.png
ENCODING 483
DWIDTH 21 0
BBX 21 21 0 0
BITMAP
600060
e00070
f000f0
39f9c0
1e0780
080100
080100
130c80
179e80
279e40
230c40
200040
206040
100080
080100
1c0380
3c93c0
f492f0
e3fc70
600060
000000
ENDCHAR
STARTCHAR streamline-interface-essential-sound--interface-essential.png
ENCODING 484
DWIDTH 21 0
BBX 21 21 0 0
BITMAP
000000
003800
004400
008200
010220
021210
042208
782248
d82228
b822a8
b822a8
f82228
782248
042208
021210
010220
008200
004400
003800
000000
000000
ENDCHAR
STARTCHAR streamline-interface-essential-speaker-announce--interface-essential.png
ENCODING 485
DWIDTH 21 0
BBX 21 21 0 0
BITMAP
0001c0
000620
001810
00e008
1f0048
7c0088
dc0108
bc0108
bc0108
fc0108
fc0108
fc0108
7c0088
1f0048
12e008
121810
120620
1201c0
120000
0c0000
000000
ENDCHAR
STARTCHAR streamline-interface-essential-stat--interface-essential.png
ENCODING 486
DWIDTH 21 0
BBX 21 21 0 0
BITMAP
3fffe0
7ffff0
e00038
c00018
c00018
c10018
c28018
c28018
c44018
c44118
b822e8
c02218
c01418
c01418
c00818
c00018
c00018
c00018
e00038
7ffff0
3fffe0
ENDCHAR
STARTCHAR streamline-interface-essential-stop-sign-1--interface-essential.png
ENCODING 487
DWIDTH 21 0
BBX 21 21 0 0
BITMAP
07ff00
080080
100040
206020
40d810
815408
815608
815508
815508
8d5508
935508
910108
884908
840108
824908
823108
410210
20fc20
100040
080080
07ff00
ENDCHAR
STARTCHAR streamline-interface-essential-stop-sign-2--interface-essential.png
ENCODING 488
DWIDTH 21 0
BBX 21 21 0 0
BITMAP
07ff00
0fff80
1800c0
37ff60
6fdfb0
df57d8
df57d8
df55d8
df55d8
df55d8
d355d8
d101d8
d849d8
dc01d8
de49d8
de31d8
6f03b0
37ff60
1800c0
0fff80
07ff00
ENDCHAR
STARTCHAR streamline-interface-essential-stopwatch--interface-essential.png
ENCODING 489
DWIDTH 21 0
BBX 21 21 0 0
BITMAP
01fc00
02aa00
02aa00
01fc00
1850c0
39fce0
360360
08a880
0a0280
100040
142140
102040
147d40
102040
140140
100040
0a0280
08a880
060300
01fc00
000000
ENDCHAR
STARTCHAR streamline-interface-essential-switch-off--interface-essential.png
ENCODING 490
DWIDTH 21 0
BBX 21 21 0 0
BITMAP
3fffe0
400010
800008
a00028
80fe08
81ff08
81ff08
81ff08
810308
820708
840f08
881d08
8ff908
883908
87f108
810108
80fe08
a00028
800008
400010
3fffe0
ENDCHAR
STARTCHAR streamline-interface-essential-switch-on--interface-essential.png
ENCODING 491
DWIDTH 21 0
BBX 21 21 0 0
BITMAP
3fffe0
400010
87f008
a83828
8ffe08
880f08
840708
820308
810108
81ff08
810108
814508
810108
814508
813908
810108
80fe08
a00028
800008
400010
3fffe0
ENDCHAR
STARTCHAR streamline-interface-essential-synchronize-arrows-square-1--interface-essential.png
ENCODING 492
DWIDTH 21 0
BBX 21 21 0 0
BITMAP
010000
018000
01c000
1fe780
21c040
418020
410020
400020
400020
400020
400020
400020
400020
400020
400820
401820
203840
1e7f80
003800
001800
000800
ENDCHAR
STARTCHAR streamline-interface-essential-synchronize-arrows-square-2--interface-essential.png
ENCODING 493
DWIDTH 21 0
BBX 21 21 0 0
BITMAP
000000
00ff00
000080
000040
000040
000040
000040
0003f8
0001f0
1000e0
380040
7c0000
fe0000
100000
100000
100000
100000
080000
07f800
000000
000000
ENDCHAR
STARTCHAR streamline-interface-essential-text-format-1--interface-essential.png
ENCODING 494
DWIDTH 21 0
BBX 21 21 0 0
BITMAP
700070
880088
8fff88
880088
700070
21fc20
222220
222220
202020
202020
202020
202020
202020
202020
202020
20f820
700070
880088
8fff88
880088
700070
ENDCHAR
STARTCHAR streamline-interface-essential-text-format-2--interface-essential.png
ENCODING 495
DWIDTH 21 0
BBX 21 21 0 0
BITMAP
000000
700070
7ffff0
700070
200020
21fc20
222220
222220
202020
202020
202020
202020
202020
202020
202020
20f820
200020
700070
7ffff0
700070
000000
ENDCHAR
STARTCHAR streamline-interface-essential-text-input-area-1--interface-essential.png
ENCODING 496
DWIDTH 21 0
BBX 21 21 0 0
BITMAP
000000
000000
000000
000000
00d800
002000
7faff0
802008
942008
be2008
9c2008
882008
802008
7faff0
002000
00d800
000000
000000
000000
000000
000000
ENDCHAR
STARTCHAR streamline-interface-essential-text-input-area-2--interface-essential.png
ENCODING 497
DWIDTH 21 0
BBX 21 21 0 0
BITMAP
000000
000000
000000
000370
000488
0009c8
0003a8
3fe770
400ee0
8015c0
801388
801108
801e08
892008
800008
400010
3fffe0
000000
000000
000000
000000
ENDCHAR
STARTCHAR streamline-interface-essential-text-input-area-3--interface-essential.png
ENCODING 498
DWIDTH 21 0
BBX 21 21 0 0
BITMAP
000000
000000
000000
000360
000080
2eeea0
400090
8c8088
928088
12e280
9e9488
929488
92e288
400090
2eeea0
000080
000360
000000
000000
000000
000000
ENDCHAR
STARTCHAR streamline-interface-essential-touch-id-lock--interface-essential.png
ENCODING 499
DWIDTH 21 0
BBX 21 21 0 0
BITMAP
07f000
080800
100400
100400
100400
100400
100400
100400
3ffe00
400000
403060
434010
474710
460880
431240
411540
411540
411140
404910
204610
1f3060
ENDCHAR
STARTCHAR streamline-interface-essential-touch-id-smartphone--interface-essential.png
ENCODING 500
DWIDTH 21 0
BBX 21 21 0 0
BITMAP
0fff00
1f4f80
11f880
100080
130c80
140280
14b280
110880
126480
129080
129480
128480
105480
121080
111080
14e280
140280
130c80
100080
1fff80
0fff00
ENDCHAR
STARTCHAR streamline-interface-essential-translate--interface-essential.png
ENCODING 501
DWIDTH 21 0
BBX 21 21 0 0
BITMAP
3f8000
404200
842600
bfafc0
812620
8a2210
842010
8a2010
912000
404000
3f8fe0
001010
002388
402448
402448
422448
2327c8
1fa448
032448
021010
000fe0
ENDCHAR
STARTCHAR streamline-interface-essential-trophy--interface-essential.png
ENCODING 502
DWIDTH 21 0
BBX 21 21 0 0
BITMAP
0fff00
100080
7000e0
906090
906090
93fc90
91f890
90f090
71f8e0
119880
100080
080100
040200
030c00
009000
009000
009000
030c00
040200
0fff00
000000
ENDCHAR
STARTCHAR streamline-interface-essential-view-eye--interface-essential.png
ENCODING 503
DWIDTH 21 0
BBX 21 21 0 0
BITMAP
000000
000000
000000
000000
01f800
060600
18f180
210840
426420
82f410
82f410
426420
210840
18f180
060600
01f800
000000
000000
000000
000000
000000
ENDCHAR
STARTCHAR streamline-interface-essential-voice-id--interface-essential.png
ENCODING 504
DWIDTH 21 0
BBX 21 21 0 0
BITMAP
700070
800008
800008
800008
000000
002000
026100
067180
4ef9a0
6efbb0
fffff8
6efbb0
46f1a0
067180
026100
002000
000000
800008
800008
800008
700070
ENDCHAR
STARTCHAR streamline-interface-essential-waiting-hourglass-loading--interface-essential.png
ENCODING 505
DWIDTH 21 0
BBX 21 21 0 0
BITMAP
1fffc0
040100
040100
040100
040100
020200
020200
01fc00
00f800
007000
007000
00a800
012400
022200
022200
042100
04d900
070700
040100
1fffc0
000000
ENDCHAR
STARTCHAR streamline-interface-essential-watch-time--interface-essential.png
ENCODING 506
DWIDTH 21 0
BBX 21 21 0 0
BITMAP
03f800
020800
03f800
020800
03f800
0ffe00
100100
13f900
17fd00
16ed80
17fd80
16ed80
171d00
13f900
100100
0ffe00
03f800
020800
03f800
020800
03f800
ENDCHAR
STARTCHAR streamline-interface-essential-wench-1--interface-essential.png
ENCODING 507
DWIDTH 21 0
BBX 21 21 0 0
BITMAP
1f0000
118000
08c000
e4c000
b4c000
9cc000
806000
413000
3c9800
024c00
012600
009300
0049e0
002410
001008
0009c8
0009a8
000998
0008c0
000440
0003c0
ENDCHAR
STARTCHAR streamline-interface-essential-wench-2--interface-essential.png
ENCODING 508
DWIDTH 21 0
BBX 21 21 0 0
BITMAP
1f03c0
118440
08c880
c4c918
a4c928
9cc9c8
807008
413010
3c99e0
024e00
012600
029300
3c49e0
402410
805008
9c89c8
a489a8
c48998
0888c0
110460
1e03e0
ENDCHAR
STARTCHAR streamline-interface-essential-wifi-feed--interface-essential.png
ENCODING 509
DWIDTH 21 0
BBX 21 21 0 0
BITMAP
000000
3f0000
3fe000
00f800
001c00
3e0600
3f8300
01e180
0070c0
3c18c0
3f0c60
038c60
00c660
006630
006330
383330
7c3330
7c3330
7c3330
380000
000000
ENDCHAR
STARTCHAR streamline-interface-essential-wifi-signal--interface-essential.png
ENCODING 510
DWIDTH 21 0
BBX 21 21 0 0
BITMAP
00f800
030600
0c0180
107040
218c20
220220
442110
442110
002000
005000
005000
008800
008800
015400
012400
025200
028a00
050500
068b00
085080
0fff80
ENDCHAR
STARTCHAR streamline-interface-essential-wireless--interface-essential.png
ENCODING 511
DWIDTH 21 0
BBX 21 21 0 0
BITMAP
00f800
030600
0c0180
10f840
230620
240120
48f890
490490
927248
92fa48
92fa48
92fa48
927248
490490
487090
24f920
21dc20
11dc40
01fc00
01fc00
00f800
ENDCHAR
STARTCHAR streamline-interface-essential-zoom-in--interface-essential.png
ENCODING 512
DWIDTH 21 0
BBX 21 21 0 0
BITMAP
03e000
0c1800
100400
200200
41c100
41c100
81c080
8ff880
8ff880
8ff880
81c080
41c100
41c100
200380
1007c0
0c1f60
03e7b0
0003d0
0001f0
0000e0
000000
ENDCHAR
STARTCHAR streamline-interface-essential-zoom-in-page--interface-essential.png
ENCODING 513
DWIDTH 21 0
BBX 21 21 0 0
BITMAP
738e70
800008
800008
800008
000000
000000
800008
800008
800e08
003180
004040
004440
808420
809f20
808420
004440
004060
8031f0
800ef8
800078
738030
ENDCHAR
STARTCHAR streamline-interface-essential-zoom-out--interface-essential.png
ENCODING 514
DWIDTH 21 0
BBX 21 21 0 0
BITMAP
03e000
0c1800
100400
200200
400100
400100
800080
8ff880
8ff880
8ff880
800080
400100
400100
200380
1007c0
0c1f60
03e7b0
0003d0
0001f0
0000e0
000000
ENDCHAR
STARTCHAR streamline-interface-essential-zoom-out-page--interface-essential.png
ENCODING 515
DWIDTH 21 0
BBX 21 21 0 0
BITMAP
738e70
800008
800008
800008
000000
000000
800008
800008
800e08
003180
004040
004040
808020
809f20
808020
004040
004060
8031f0
800ef8
800078
738030
ENDCHAR
STARTCHAR streamline-internet-network-arrow-sync--internet-network.png
ENCODING 516
DWIDTH 21 0
BBX 21 21 0 0
BITMAP
00f800
030000
0c00f0
1000c0
2000a0
20f8a0
411c10
43be10
879f08
87c708
87c508
878108
870108
433a10
417c10
28f820
280020
180040
780180
000600
00f800
ENDCHAR
STARTCHAR streamline-internet-network-cloud-error--internet-network.png
ENCODING 517
DWIDTH 21 0
BBX 21 21 0 0
BITMAP
000000
000000
000000
007000
018c00
020200
040100
0400c0
380020
428a10
810408
828a08
800008
807808
801810
400020
3fffc0
000000
000000
000000
000000
ENDCHAR
STARTCHAR streamline-internet-network-cloud-off--internet-network.png
ENCODING 518
DWIDTH 21 0
BBX 21 21 0 0
BITMAP
c00000
e00000
700000
387000
1c8c00
0e0200
070100
0381c0
39c220
40e410
807008
803808
801c08
800e08
800710
400380
3ff9c0
0000e0
000070
000038
000018
ENDCHAR
STARTCHAR streamline-internet-network-computer-download--internet-network.png
ENCODING 519
DWIDTH 21 0
BBX 21 21 0 0
BITMAP
007000
000000
007000
000000
3e73e0
407010
407010
407010
407010
41fc10
40f810
407010
402010
400010
400010
7ffff0
7ffff0
3fffe0
008800
010400
01fc00
ENDCHAR
STARTCHAR streamline-internet-network-computer-upload--internet-network.png
ENCODING 520
DWIDTH 21 0
BBX 21 21 0 0
BITMAP
002000
007000
00f800
01fc00
3c71e0
407010
407010
407010
407010
400010
407010
400010
407010
400010
400010
7ffff0
7ffff0
3fffe0
008800
010400
01fc00
ENDCHAR
STARTCHAR streamline-internet-network-download--internet-network.png
ENCODING 521
DWIDTH 21 0
BBX 21 21 0 0
BITMAP
007000
000000
007000
000000
007000
007000
0e7380
107040
107040
11fc40
10f840
107040
102040
100040
1fffc0
200020
200020
407010
400010
3fffe0
1fffc0
ENDCHAR
STARTCHAR streamline-internet-network-laptop--internet-network.png
ENCODING 522
DWIDTH 21 0
BBX 21 21 0 0
BITMAP
0ffe00
100100
100100
100100
115100
100100
100100
100100
1fff00
200080
200080
40e040
400040
7fffc0
3fff80
004000
004000
004000
00e000
ff1ff0
00e000
ENDCHAR
STARTCHAR streamline-internet-network-upload--internet-network.png
ENCODING 523
DWIDTH 21 0
BBX 21 21 0 0
BITMAP
002000
007000
00f800
01fc00
007000
007000
0e7380
107040
107040
100040
107040
100040
107040
100040
1fffc0
200020
200020
407010
400010
3fffe0
1fffc0
ENDCHAR
STARTCHAR streamline-internet-network-wifi-monitor--internet-network.png
ENCODING 524
DWIDTH 21 0
BBX 21 21 0 0
BITMAP
001f00
0000c0
000020
000e10
000110
7f8088
800c48
801248
801248
800c08
848000
800000
884080
878080
800080
ffff80
ffff80
7fff00
022000
041000
07f000
ENDCHAR
STARTCHAR streamline-internet-network-www--internet-network.png
ENCODING 525
DWIDTH 21 0
BBX 21 21 0 0
BITMAP
00f800
035600
0c8980
110440
2f07a0
24f920
480090
7ffff0
fffff8
dd75d8
d55558
d55558
ebaeb8
7ffff0
480090
24f920
2f07a0
110440
0c8980
035600
00f800
ENDCHAR
STARTCHAR streamline-logo-discord--logo.png
ENCODING 526
DWIDTH 21 0
BBX 21 21 0 0
BITMAP
00f800
03fe00
0fff80
1fffc0
3fffe0
3870e0
700070
600030
e00038
c18c18
c18c18
c00018
c00018
400010
63fe30
33fe60
3870e0
1fffc0
0fff80
03fe00
00f800
ENDCHAR
STARTCHAR streamline-logo-linkedin--logo.png
ENCODING 527
DWIDTH 21 0
BBX 21 21 0 0
BITMAP
3fffe0
400010
9fffc8
a00028
a00028
a00028
a60028
a60028
a00028
a66c28
a67e28
a67728
a66328
a66328
a66328
a00028
a00028
a00028
9fffc8
400010
3fffe0
ENDCHAR
STARTCHAR streamline-logo-pinterest--logo.png
ENCODING 528
DWIDTH 21 0
BBX 21 21 0 0
BITMAP
3fffe0
400010
807808
81fe08
83ff08
87ff08
8f0788
8e0388
8ec388
85e788
81e708
83cf08
83fe08
87fc08
873808
8f0008
8e0008
8e0008
840008
400010
3fffe0
ENDCHAR
STARTCHAR streamline-logo-snapchat--logo.png
ENCODING 529
DWIDTH 21 0
BBX 21 21 0 0
BITMAP
3fffe0
7ffff0
fffff8
ff8ff8
ff07f8
fe03f8
fe03f8
fe03f8
f20278
f00078
f800f8
fc01f8
fc01f8
f800f8
e00038
f00078
fe03f8
ff8ff8
fffff8
7ffff0
3fffe0
ENDCHAR
STARTCHAR streamline-logo-social-media-dropbox--logo.png
ENCODING 530
DWIDTH 21 0
BBX 21 21 0 0
BITMAP
000000
000000
030600
0c8980
305060
407010
218c20
160240
080180
160680
219840
406020
60b060
193980
063e00
063e00
01b800
006000
000000
000000
000000
ENDCHAR
STARTCHAR streamline-logo-social-media-facebook-circle--logo.png
ENCODING 531
DWIDTH 21 0
BBX 21 21 0 0
BITMAP
00f800
03fe00
0fff80
1fffc0
3fffe0
3fc1e0
7f81f0
7f81f0
ff8ff8
ff8ff8
fc00f8
fc01f8
fc03f8
7f8ff0
7f8ff0
3f8fe0
3f8fe0
1f8fc0
0f8f80
038e00
000000
ENDCHAR
STARTCHAR streamline-logo-social-media-instagram-circle--logo.png
ENCODING 532
DWIDTH 21 0
BBX 21 21 0 0
BITMAP
00f800
03fe00
0f0780
1cf9c0
3bfee0
37f960
6ff9b0
6f8fb0
df07d8
c07018
dcc9d8
dcc9d8
dcf9d8
6e73b0
6f07b0
378f60
3bfee0
1cf9c0
0f0780
03fe00
00f800
ENDCHAR
STARTCHAR streamline-logo-social-media-instagram--logo.png
ENCODING 533
DWIDTH 21 0
BBX 21 21 0 0
BITMAP
3fffe0
400010
8fff88
9fffc8
b800e8
b00368
b00368
b0f868
b1fc68
b38e68
b30668
b30668
b30668
b38e68
b1fc68
b0f868
b800e8
9fffc8
8fff88
400010
3fffe0
ENDCHAR
STARTCHAR streamline-logo-social-media-old-instagram--logo.png
ENCODING 534
DWIDTH 21 0
BBX 21 21 0 0
BITMAP
3fffe0
6a0010
aa0188
aa0248
aa0248
aa0188
aaf808
ff07f8
ba7208
84f908
85cd08
85ed08
85fd08
84f908
827208
810408
80f808
800008
800008
400010
3fffe0
ENDCHAR
STARTCHAR streamline-logo-social-media-tiktok-circle--logo.png
ENCODING 535
DWIDTH 21 0
BBX 21 21 0 0
BITMAP
00f800
03fe00
0fe780
1fdbc0
3fdde0
3fdee0
7fdf30
7fdfd0
f859d8
f35818
e75838
e6d9f8
e6d9f8
66d9f0
7339f0
33f9e0
39f3e0
1c07c0
0e0f80
03fe00
00f800
ENDCHAR
STARTCHAR streamline-logo-social-media-tiktok--logo.png
ENCODING 536
DWIDTH 21 0
BBX 21 21 0 0
BITMAP
3fffe0
400010
801808
803c08
803a08
803d08
803ec8
873fe8
8f37e8
9b35c8
b63408
ac3408
ac3408
ac3408
ac3408
9e7c08
97f808
8bf008
87e008
400010
3fffe0
ENDCHAR
STARTCHAR streamline-logo-social-media-twitter-circle--logo.png
ENCODING 537
DWIDTH 21 0
BBX 21 21 0 0
BITMAP
00f800
03fe00
0fff80
1fffc0
3fffe0
3fe1e0
7bc0f0
79c6f0
f8c638
f80078
f800f8
fc00f8
fe00f8
7f81f0
7f01f0
3e03e0
3c07e0
1fffc0
0fff80
03fe00
00f800
ENDCHAR
STARTCHAR streamline-logo-social-media-youtube-circle--logo.png
ENCODING 538
DWIDTH 21 0
BBX 21 21 0 0
BITMAP
00f800
03fe00
0fff80
1fffc0
3fffe0
3f7fe0
7f1ff0
7f0ff0
ff07f8
ff03f8
ff01f8
ff03f8
ff07f8
7f0ff0
7f1ff0
3f7fe0
3fffe0
1fffc0
0fff80
03fe00
00f800
ENDCHAR
STARTCHAR streamline-logo-social-media-youtube--logo.png
ENCODING 539
DWIDTH 21 0
BBX 21 21 0 0
BITMAP
000000
000000
000000
1fffc0
200020
5fffd0
bfffe8
bf7fe8
bf1fe8
bf0fe8
bf07e8
bf0fe8
bf1fe8
bf7fe8
bfffe8
5fffd0
200020
1fffc0
000000
000000
000000
ENDCHAR
STARTCHAR streamline-logo-soundcloud-1--logo.png
ENCODING 540
DWIDTH 21 0
BBX 21 21 0 0
BITMAP
000000
000000
000000
003000
00ac00
02a200
02a100
02a0c0
2aa120
2aa210
aaa008
aaa008
aaa008
aaa008
aaa010
2aa020
0abfc0
000000
000000
000000
000000
ENDCHAR
STARTCHAR streamline-logo-soundcloud-2--logo.png
ENCODING 541
DWIDTH 21 0
BBX 21 21 0 0
BITMAP
000000
000000
000000
000000
003000
00bc00
02be00
02bf00
02bf00
2abec0
2abde0
aabff0
aabff8
aabff8
aabff0
2abfe0
0abfc0
000000
000000
000000
000000
ENDCHAR
STARTCHAR streamline-logo-spotify--logo.png
ENCODING 542
DWIDTH 21 0
BBX 21 21 0 0
BITMAP
00f800
03fe00
0fff80
1e07c0
3803e0
2000e0
71f070
7ffe10
ffff98
fc0ff8
f001f8
c1e0f8
e7f838
7ffe70
7f3ff0
3c03e0
39f1e0
1ffcc0
0fff80
03fe00
00f800
ENDCHAR
STARTCHAR streamline-logo-twitch-1--logo.png
ENCODING 543
DWIDTH 21 0
BBX 21 21 0 0
BITMAP
00f800
03fe00
0fff80
1fffc0
3fffe0
300060
700070
73ff70
f3db78
f3db78
f3db78
f3db78
f3fef8
73fdf0
7bc3f0
39bfe0
3d7fe0
1cffc0
0fff80
03fe00
00f800
ENDCHAR
STARTCHAR streamline-logo-twitch-2--logo.png
ENCODING 544
DWIDTH 21 0
BBX 21 21 0 0
BITMAP
00f800
030600
0c0180
100040
200020
2fffa0
4fff90
4c0090
8c2488
8c2488
8c2488
8c2488
8c0108
460210
467c10
228020
230020
100040
0c0180
030600
00f800
ENDCHAR
STARTCHAR streamline-logo-twitter--logo.png
ENCODING 545
DWIDTH 21 0
BBX 21 21 0 0
BITMAP
000000
003c00
604200
508100
490080
450c80
430cf0
400010
400020
400040
200080
100080
080080
060080
040100
080100
100200
200400
3ff800
000000
000000
ENDCHAR
STARTCHAR streamline-logo-whatapp--logo.png
ENCODING 546
DWIDTH 21 0
BBX 21 21 0 0
BITMAP
00fc00
030300
0c00c0
100020
138020
27c010
27c010
47c008
438008
43c008
41e008
40f708
407f88
203f90
201f90
100720
100020
2000c0
470300
f8fc00
000000
ENDCHAR
STARTCHAR streamline-map-navigation-compass-direction--map-navigation.png
ENCODING 547
DWIDTH 21 0
BBX 21 21 0 0
BITMAP
00f800
030600
0c0180
100040
208020
20c020
40e010
40f010
80b808
80bc08
80be08
80bf08
80f008
40e010
40c010
208020
200020
100040
0c0180
030600
00f800
ENDCHAR
STARTCHAR streamline-map-navigation-location-focus--map-navigation.png
ENCODING 548
DWIDTH 21 0
BBX 21 21 0 0
BITMAP
002000
002000
002000
00f800
030600
040100
087080
09fc80
11fc40
13ae40
f3fe78
137640
118c40
09fc80
087080
040100
030600
00f800
002000
002000
002000
ENDCHAR
STARTCHAR streamline-map-navigation-pin-location-1--map-navigation.png
ENCODING 549
DWIDTH 21 0
BBX 21 21 0 0
BITMAP
00f800
030600
040100
087080
08e880
11f440
13fa40
13fa40
13fe40
11fc40
08f880
087080
080080
040100
040100
020200
020200
010400
008800
005000
002000
ENDCHAR
STARTCHAR streamline-map-navigation-pin-location-2--map-navigation.png
ENCODING 550
DWIDTH 21 0
BBX 21 21 0 0
BITMAP
00f800
030600
040100
047100
08e880
09f480
09f480
09fc80
08f880
047100
040100
040100
020200
020200
010400
0d0580
308860
405010
402010
300060
0fff80
ENDCHAR
STARTCHAR streamline-map-navigation-pin-location-trip--map-navigation.png
ENCODING 551
DWIDTH 21 0
BBX 21 21 0 0
BITMAP
1e0000
210000
4c8000
9e4000
9e4000
8c4000
804000
4083c0
408420
210990
2113c8
1213c8
0c1188
001008
080810
080810
000420
080420
080240
06d980
000000
ENDCHAR
STARTCHAR streamline-mobile-phone--phone.png
ENCODING 552
DWIDTH 21 0
BBX 21 21 0 0
BITMAP
040000
0a0000
0a0000
0ffe00
080100
0bfd00
0a1d00
0a3d00
0a7d00
0afd00
0bfd00
080100
0a6500
08f100
0a6500
080100
0b6d00
080100
0b6d00
080100
07fe00
ENDCHAR
STARTCHAR streamline-money-payments-accounting-bill-money-1--money-payments.png
ENCODING 553
DWIDTH 21 0
BBX 21 21 0 0
BITMAP
000000
000000
7ffff0
800008
af27a8
887088
b0a868
a4a128
aa72a8
a42928
b0a868
887088
af27a8
800008
7ffff0
000000
fffff8
000000
fffff8
000000
000000
ENDCHAR
STARTCHAR streamline-money-payments-accounting-bill-money-2--money-payments.png
ENCODING 554
DWIDTH 21 0
BBX 21 21 0 0
BITMAP
218020
720070
818080
704070
098c08
703370
20c020
03f000
0ffcd0
31ff30
c07fd0
b03f30
cccfd0
b3bf30
cccfd0
b3bf30
cccfc0
33bf00
0ccc00
03b000
00c000
ENDCHAR
STARTCHAR streamline-money-payments-accounting-calculator--money-payments.png
ENCODING 555
DWIDTH 21 0
BBX 21 21 0 0
BITMAP
07ff00
080080
17ff40
140140
141540
140140
17ff40
100040
177740
155540
177740
100040
177740
155540
177740
100040
177f40
157f40
177f40
080080
07ff00
ENDCHAR
STARTCHAR streamline-money-payments-bank--money-payments.png
ENCODING 556
DWIDTH 21 0
BBX 21 21 0 0
BITMAP
007000
018c00
067300
198cc0
667330
98d8c8
a18c28
fb7ef8
538e50
53f650
518c50
50d850
507050
520250
528a50
528a50
7ffff0
400010
fffff8
800008
000000
ENDCHAR
STARTCHAR streamline-money-payments-calculator-app--money-payments.png
ENCODING 557
DWIDTH 21 0
BBX 21 21 0 0
BITMAP
000000
1fffc0
2040e0
404070
444070
4e4e70
444070
404070
404070
7ffff0
404070
404070
4a4e70
444070
4a4e70
404070
2040f0
3fffe0
1fffc0
000000
000000
ENDCHAR
STARTCHAR streamline-money-payments-cash-payment-coin--money-payments.png
ENCODING 558
DWIDTH 21 0
BBX 21 21 0 0
BITMAP
1e0000
20e000
491000
9d0800
a10400
9c8300
8240b8
9c4078
482038
212038
1e1038
800038
800038
7f0038
200038
200028
1fc028
0800f8
080738
07f800
000000
ENDCHAR
STARTCHAR streamline-money-payments-credit-card-mastercard--money-payments.png
ENCODING 559
DWIDTH 21 0
BBX 21 21 0 0
BITMAP
000000
000000
7fffc0
800020
83b820
857c28
8abe28
951f28
9b1f28
951f28
8abe28
857c28
83b828
800028
7fffc8
000018
3ffff8
1ffff0
000000
000000
000000
ENDCHAR
STARTCHAR streamline-money-payments-credit-card-visa--money-payments.png
ENCODING 560
DWIDTH 21 0
BBX 21 21 0 0
BITMAP
000000
000000
7fffc0
800020
800020
800028
aa7328
aa84a8
aa67a8
aa14a8
92e4a8
800028
800028
800028
7fffc8
000018
3ffff8
1ffff0
000000
000000
000000
ENDCHAR
STARTCHAR streamline-money-payments-currency-euro-dollar-exchange--money-payments.png
ENCODING 561
DWIDTH 21 0
BBX 21 21 0 0
BITMAP
0007c0
078820
081110
102388
102408
102388
7c2048
382388
101110
000820
1f07c0
208000
464040
8820e0
be21f0
902040
bc2040
882040
464080
208f00
1f0000
ENDCHAR
STARTCHAR streamline-money-payments-diamond--money-payments.png
ENCODING 562
DWIDTH 21 0
BBX 21 21 0 0
BITMAP
401000
e20210
400038
0fff10
110880
220440
440220
880110
fffff0
880110
440220
220440
120480
090900
050a20
429450
a19820
409000
046100
000388
400100
ENDCHAR
STARTCHAR streamline-money-payments-saving-treasure--money-payments.png
ENCODING 563
DWIDTH 21 0
BBX 21 21 0 0
BITMAP
1f0100
3b9110
71c920
6fc000
71f7c0
7ecee0
71dc70
bb9bf0
9f5c70
401fb0
fffff8
80a808
ffaff8
848908
847108
840108
840108
840108
440110
3fffe0
000000
ENDCHAR
STARTCHAR streamline-money-payments-self-payment--money-payments.png
ENCODING 564
DWIDTH 21 0
BBX 21 21 0 0
BITMAP
1fffc0
200020
2fe220
2d6720
2feaa0
2c6a20
2fe720
2002a0
2daaa0
200720
2da220
200020
200020
1fffc0
002000
7ffff0
400010
400010
4fff90
400010
7ffff0
ENDCHAR
STARTCHAR streamline-money-payments-smartphone-pay-dollar--money-payments.png
ENCODING 565
DWIDTH 21 0
BBX 21 21 0 0
BITMAP
1ffe00
3e9f00
23f100
200100
200000
201f00
202080
204440
208e20
209020
208e20
208120
208e20
204440
202080
201f00
200000
200100
200100
3fff00
1ffe00
ENDCHAR
STARTCHAR streamline-multiple-user--users.png
ENCODING 566
DWIDTH 21 0
BBX 21 21 0 0
BITMAP
000000
1e03c0
3f07e0
7f8ff0
618c30
408810
40f810
41fc10
43fe10
230620
1e03c0
628a30
828a08
020200
027200
010400
00f800
030600
040100
080080
000000
ENDCHAR
STARTCHAR streamline-music-album-cd-disk-playlist--music-audio.png
ENCODING 567
DWIDTH 21 0
BBX 21 21 0 0
BITMAP
000000
000000
7ffe00
800100
8001c0
803120
80c910
830950
840928
840988
843988
846988
9c7908
b43110
bc0110
980120
8001c0
800100
7ffe00
000000
000000
ENDCHAR
STARTCHAR streamline-music-clef-sheet--music-audio.png
ENCODING 568
DWIDTH 21 0
BBX 21 21 0 0
BITMAP
00c000
012000
012000
012000
014000
018000
f33ff8
050000
090000
d39ff8
154000
152000
d32ff8
112000
094000
e79ff8
010000
070000
ef7ff8
0f0000
060000
ENDCHAR
STARTCHAR streamline-music-disk-cd-1--music-audio.png
ENCODING 569
DWIDTH 21 0
BBX 21 21 0 0
BITMAP
00f800
030600
0e0180
120040
210c20
210220
708110
4cf890
830488
817408
815408
817408
810708
40f8d0
400830
200820
200420
100440
0c0380
030600
00f800
ENDCHAR
STARTCHAR streamline-music-disk-cd-2--music-audio.png
ENCODING 570
DWIDTH 21 0
BBX 21 21 0 0
BITMAP
00f800
030600
0c0180
100040
21c020
220020
44f810
490410
8a7208
8afa08
82da88
82fa88
827288
410410
40f910
200220
200c20
100040
0c0180
030600
00f800
ENDCHAR
STARTCHAR streamline-music-headphones-human--music-audio.png
ENCODING 571
DWIDTH 21 0
BBX 21 21 0 0
BITMAP
03fe00
040100
09fc80
13ff40
17ffc0
17ffc0
3f08c0
423060
910050
a10050
a12150
812150
420060
3c1140
040e40
020080
01ff00
010200
07c380
1fffe0
000000
ENDCHAR
STARTCHAR streamline-music-microphone-1--music-audio.png
ENCODING 572
DWIDTH 21 0
BBX 21 21 0 0
BITMAP
000f00
0039c0
004920
0050a0
00fff0
009090
009090
00fff0
0050a0
004920
0039c0
001f80
001f80
001780
001780
0e1780
111f80
211b80
c08f00
004600
003800
ENDCHAR
STARTCHAR streamline-music-microphone-2--music-audio.png
ENCODING 573
DWIDTH 21 0
BBX 21 21 0 0
BITMAP
00f800
010400
022200
028a00
022200
028a00
0a2280
0e0380
0a0280
0a0280
0a0280
090480
04f900
020200
01fc00
002000
002000
002000
01fc00
07ff00
07ff00
ENDCHAR
STARTCHAR streamline-music-microphone-off--music-audio.png
ENCODING 574
DWIDTH 21 0
BBX 21 21 0 0
BITMAP
0f8000
104000
222000
28a000
222000
28a000
a22800
e03800
a02800
a02000
a027c0
904fe0
4f9390
203118
1fb838
023c78
023838
023118
1f9390
7fcfe0
7fe7c0
ENDCHAR
STARTCHAR streamline-music-notes-music-1--music-audio.png
ENCODING 575
DWIDTH 21 0
BBX 21 21 0 0
BITMAP
000000
000200
000300
000280
000240
000220
080220
0c0200
0a0200
090200
088200
088e00
081e00
081e00
080c00
080000
380000
780000
780000
300000
000000
ENDCHAR
STARTCHAR streamline-music-notes-music-2--music-audio.png
ENCODING 576
DWIDTH 21 0
BBX 21 21 0 0
BITMAP
00c360
032490
0c2410
102220
102140
102088
10e010
11e208
11e510
70c208
f00040
f00060
600c50
021248
051248
020c40
000040
2821c0
5473c0
0023c0
000180
ENDCHAR
STARTCHAR streamline-music-radio-stereo--music-audio.png
ENCODING 577
DWIDTH 21 0
BBX 21 21 0 0
BITMAP
010000
828220
010020
300860
281c60
200800
600000
63fe10
040100
080080
0b7680
3fffe0
420210
81fc08
9c01c8
aafaa8
b6ab68
aafaa8
9c01c8
400010
3fffe0
ENDCHAR
STARTCHAR streamline-music-speaker--music-audio.png
ENCODING 578
DWIDTH 21 0
BBX 21 21 0 0
BITMAP
000000
7ffff0
7f0010
7f4050
7f0610
7f0910
7f0910
7f0610
7f0010
7f0f10
7f1090
7f2650
7f2950
7f2950
7f2650
7f1090
7f0f10
7f4050
7f0010
7ffff0
000000
ENDCHAR
STARTCHAR streamline-music-vinyl-record--music-audio.png
ENCODING 579
DWIDTH 21 0
BBX 21 21 0 0
BITMAP
00f800
03fe00
0e3f80
1dffc0
3b33e0
36fde0
6dfef0
5bff70
d78f78
d707f8
ff27f8
ff0758
f78f58
77fed0
7bfdb0
3dfb60
3e66e0
1ffdc0
0fe380
03fe00
00f800
ENDCHAR
STARTCHAR streamline-music-walkman-cassette--music-audio.png
ENCODING 580
DWIDTH 21 0
BBX 21 21 0 0
BITMAP
000000
000000
000000
7ffff0
800008
a00028
8fff88
930648
ad55a8
ad05a8
adfda8
93fe48
8fff88
800008
a7ff28
880088
51fc50
3fffe0
000000
000000
000000
ENDCHAR
STARTCHAR streamline-non-gmo-fertilizer--ecology.png
ENCODING 581
DWIDTH 21 0
BBX 21 21 0 0
BITMAP
000150
1f0000
208550
1f0000
041550
7fc000
841550
3f8000
404550
802000
9f2150
bfa000
a4a000
a4a000
bfa000
bfa000
952000
802000
802000
7fc000
000000
ENDCHAR
STARTCHAR streamline-notification-email--email.png
ENCODING 582
DWIDTH 21 0
BBX 21 21 0 0
BITMAP
0000e0
0001b0
0003b8
07fbb8
0803f8
0801b0
1ffce0
200000
200080
7fffc0
800020
8007a0
8004a0
8004a0
8007a0
bc0020
800020
800020
bf8020
800020
7fffc0
ENDCHAR
STARTCHAR streamline-pet-animals-bear--pet-animals.png
ENCODING 583
DWIDTH 21 0
BBX 21 21 0 0
BITMAP
000000
000000
79fcf0
860308
b00068
b00068
800008
610430
100040
10f840
207020
202020
200820
203020
100040
100040
080080
060300
01fc00
000000
000000
ENDCHAR
STARTCHAR streamline-pet-animals-buffalo--pet-animals.png
ENCODING 584
DWIDTH 21 0
BBX 21 21 0 0
BITMAP
700070
a18c28
a65328
9820c8
802008
805008
618c30
3e03e0
480090
880088
bb8ee8
c90498
080080
100040
21fc20
217420
217420
20f820
1800c0
060300
01fc00
ENDCHAR
STARTCHAR streamline-pet-animals-cat--pet-animals.png
ENCODING 585
DWIDTH 21 0
BBX 21 21 0 0
BITMAP
000000
040100
0a0280
090480
10f840
112440
212420
200020
400010
410810
400010
f0f078
446110
f00078
441110
206020
100040
0c0180
03fe00
000000
000000
ENDCHAR
STARTCHAR streamline-pet-animals-dog--pet-animals.png
ENCODING 586
DWIDTH 21 0
BBX 21 21 0 0
BITMAP
1800c0
140140
220220
2904a0
2cf9a0
2e03a0
200020
200020
200020
420210
40f810
8f7788
b02068
c00018
800808
403010
400010
200020
100040
0e0380
01fc00
ENDCHAR
STARTCHAR streamline-pet-animals-frog-face--pet-animals.png
ENCODING 587
DWIDTH 21 0
BBX 21 21 0 0
BITMAP
000000
1f07c0
208820
4e5390
5b56d0
5f27d0
5f07d0
4e0390
205020
400010
800808
803008
800008
800008
800008
400010
400010
200020
1800c0
07ff00
000000
ENDCHAR
STARTCHAR streamline-pet-animals-frog--pet-animals.png
ENCODING 588
DWIDTH 21 0
BBX 21 21 0 0
BITMAP
1c0e00
221100
592c80
592c80
40c080
200040
210020
4e0020
400010
800010
800608
800808
be1008
c11008
809008
809008
408808
304410
683820
87e040
f83f80
ENDCHAR
STARTCHAR streamline-pet-animals-gorilla--pet-animals.png
ENCODING 589
DWIDTH 21 0
BBX 21 21 0 0
BITMAP
000000
00f800
070700
080080
100040
138e40
247120
200020
23fe20
46fb10
46fb10
47ff10
47af10
43fe10
43fe10
41fc10
200020
100040
0c0180
03fe00
000000
ENDCHAR
STARTCHAR streamline-pet-animals-ox--pet-animals.png
ENCODING 590
DWIDTH 21 0
BBX 21 21 0 0
BITMAP
700070
2800a0
480090
90f848
9b06c8
840108
400010
300060
400010
800108
7800f0
090480
088880
040100
040100
05dd00
03fe00
072700
078f00
03fe00
01fc00
ENDCHAR
STARTCHAR streamline-pet-animals-pig--pet-animals.png
ENCODING 591
DWIDTH 21 0
BBX 21 21 0 0
BITMAP
000000
7dfdf0
820208
800008
900048
a00028
400010
400010
408810
800008
81fc08
83fe08
832608
432610
41fc10
200020
100040
0e0380
01fc00
000000
000000
ENDCHAR
STARTCHAR streamline-pet-animals-rabbit-1--pet-animals.png
ENCODING 592
DWIDTH 21 0
BBX 21 21 0 0
BITMAP
7800f0
840108
f20278
f904f8
7d05f0
1d05c0
08f880
080080
080080
100040
120240
200020
207020
4e2390
400010
460310
400010
200020
100040
0c0180
03fe00
ENDCHAR
STARTCHAR streamline-pet-animals-rabbit-2--pet-animals.png
ENCODING 593
DWIDTH 21 0
BBX 21 21 0 0
BITMAP
030600
048900
085080
0b5680
0b5680
0b5680
0b5680
0b5680
0b5680
085080
082080
100040
110440
207020
202020
200820
203020
200020
100040
0c0180
03fe00
ENDCHAR
STARTCHAR streamline-pet-animals-turtle--pet-animals.png
ENCODING 594
DWIDTH 21 0
BBX 21 21 0 0
BITMAP
000000
000000
000000
003e00
38c100
45e080
83e1c0
a2ff40
847e20
647e20
12e370
09c1c8
04ff90
020020
044840
08b420
070220
0001c0
000000
000000
000000
ENDCHAR
STARTCHAR streamline-phone-actions-remove-1--phone.png
ENCODING 595
DWIDTH 21 0
BBX 21 21 0 0
BITMAP
3fffe0
400030
83fc68
874cc8
85f988
840308
840608
840c08
841808
843208
846208
84c208
818208
830208
860208
8c0208
99fe08
b3fc08
e00008
400010
3fffe0
ENDCHAR
STARTCHAR streamline-phone-actions-remove-2--phone.png
ENCODING 596
DWIDTH 21 0
BBX 21 21 0 0
BITMAP
7ff800
fa7c00
8fc400
800400
800400
800400
800400
986400
800400
800000
8007c0
8fcfe0
801390
803118
803838
803c78
803838
803118
801390
ffcfe0
7fe7c0
ENDCHAR
STARTCHAR streamline-phone-incoming-call--phone.png
ENCODING 597
DWIDTH 21 0
BBX 21 21 0 0
BITMAP
000000
082080
042100
022200
000000
000000
000000
1fffc0
200020
400010
800008
81fc08
fe03f8
fe03f8
7c01f8
000008
000088
000150
0000e0
000700
000000
ENDCHAR
STARTCHAR streamline-phone-off-1--phone.png
ENCODING 598
DWIDTH 21 0
BBX 21 21 0 0
BITMAP
3fffe0
400030
83c068
8420c8
889188
88d308
90d608
900c08
90d808
913008
916308
90c088
91a648
931128
96d4a8
8cd2a8
989008
b42008
e3c008
400010
3fffe0
ENDCHAR
STARTCHAR streamline-phone-off-2--phone.png
ENCODING 599
DWIDTH 21 0
BBX 21 21 0 0
BITMAP
0f0000
108000
224000
234000
434000
404000
418000
420000
420000
420000
420f80
421fc0
422720
416230
407070
4378f0
237070
226230
102720
0f1fc0
000f80
ENDCHAR
STARTCHAR streamline-phone-scan-qr-code-1--phone.png
ENCODING 600
DWIDTH 21 0
BBX 21 21 0 0
BITMAP
000000
3800e0
400010
400010
4fff90
088880
0bfa80
0a8880
0eef80
0baa80
08ba80
0ba280
0fff80
088880
0aba80
08a880
4fff90
400010
400010
3800e0
000000
ENDCHAR
STARTCHAR streamline-phone-scan-qr-code-2--phone.png
ENCODING 601
DWIDTH 21 0
BBX 21 21 0 0
BITMAP
002000
002000
1c21c0
200020
200020
277720
040500
057700
011000
045500
e74538
045d00
000000
077700
054500
275720
200020
200020
1c21c0
002000
002000
ENDCHAR
STARTCHAR streamline-phone-signal-full--phone.png
ENCODING 602
DWIDTH 21 0
BBX 21 21 0 0
BITMAP
000000
000000
000060
0000b0
0000b0
000cb0
0016b0
0016b0
0196b0
02d6b0
02d6b0
32d6b0
5ad6b0
5ad6b0
5ad6b0
5ad6b0
5ad6b0
318c60
000000
000000
000000
ENDCHAR
STARTCHAR streamline-phone-vibrate--phone.png
ENCODING 603
DWIDTH 21 0
BBX 21 21 0 0
BITMAP
07fe00
0f4f00
09f900
080100
880110
480120
280140
480120
890910
489120
290940
480120
880110
4a6520
299940
480120
880110
080100
080100
0fff00
07fe00
ENDCHAR
STARTCHAR streamline-photography-camera-1--photography.png
ENCODING 604
DWIDTH 21 0
BBX 21 21 0 0
BITMAP
000000
000000
000000
071fc0
08a020
3fc390
400450
980390
80f010
ff0ff0
826410
82d410
82f410
826410
810810
80f010
400020
3fffc0
000000
000000
000000
ENDCHAR
STARTCHAR streamline-photography-equipment-film-print--photography.png
ENCODING 605
DWIDTH 21 0
BBX 21 21 0 0
BITMAP
6800b0
2800a0
6800b0
2800a0
6800b0
27ff20
600030
200020
67ff30
2800a0
6800b0
2814a0
6800b0
2822a0
681cb0
2800a0
67ff30
200020
600030
27ff20
6800b0
ENDCHAR
STARTCHAR streamline-photography-file-picture--photography.png
ENCODING 606
DWIDTH 21 0
BBX 21 21 0 0
BITMAP
3ffc00
200600
200700
200780
27e7c0
2807e0
2b0020
2b00a0
2800a0
28c0a0
292ca0
2a12a0
2c09a0
2fffa0
2800a0
2800a0
27ff20
200020
200020
200020
3fffe0
ENDCHAR
STARTCHAR streamline-photography-focus-flower--photography.png
ENCODING 607
DWIDTH 21 0
BBX 21 21 0 0
BITMAP
0c7180
0a8a80
090480
080080
080080
080080
080080
080080
040100
030600
00f800
002000
002000
0e2380
172740
1baec0
1dadc0
0eab80
072700
002000
000000
ENDCHAR
STARTCHAR streamline-photography-frame-picture--photography.png
ENCODING 608
DWIDTH 21 0
BBX 21 21 0 0
BITMAP
000000
000000
600030
9fffc8
800008
5fffd0
500050
5240d0
551950
522550
502350
5113d0
528e50
513dd0
5045d0
5fffd0
800008
9fffc8
600030
000000
000000
ENDCHAR
STARTCHAR streamline-photography-light-mode-flash-on--photography.png
ENCODING 609
DWIDTH 21 0
BBX 21 21 0 0
BITMAP
00f800
030600
0c0180
100040
203c20
207c20
40f810
41f010
83e008
87f808
87fc08
83fc08
807808
40f010
40e010
21c020
218020
100040
0c0180
030600
00f800
ENDCHAR
STARTCHAR streamline-photography-photo-image--photography.png
ENCODING 610
DWIDTH 21 0
BBX 21 21 0 0
BITMAP
000000
000000
3fffe0
400010
800008
800008
800008
800208
802228
801048
870708
98cf98
a03fe8
c00f88
800608
801808
806008
418010
3fffe0
000000
000000
ENDCHAR
STARTCHAR streamline-photography-picture-polaroid--photography.png
ENCODING 611
DWIDTH 21 0
BBX 21 21 0 0
BITMAP
7fff80
800040
9ffe50
a00150
a01950
a03d50
a03d50
a31950
a48150
a84750
b02950
a01150
a00950
9ffe50
800050
800050
800050
7fff90
000010
3fffe0
000000
ENDCHAR
STARTCHAR streamline-photography-retouch-wand--photography.png
ENCODING 612
DWIDTH 21 0
BBX 21 21 0 0
BITMAP
00f800
030600
0c4180
10e040
204220
200020
490810
5c1c90
883e08
807c08
80f848
8170e8
822048
444810
489d10
310820
220020
140040
0c0180
030600
00f800
ENDCHAR
STARTCHAR streamline-photography-retouch-wand-star--photography.png
ENCODING 613
DWIDTH 21 0
BBX 21 21 0 0
BITMAP
00f800
030600
0c0180
101040
221120
210220
404010
407810
8c7988
81f808
80bc08
816008
82a208
450110
4a0810
340820
280020
180040
0c0180
030600
00f800
ENDCHAR
STARTCHAR streamline-photography-taking-pictures-circle-alternate--photography.png
ENCODING 614
DWIDTH 21 0
BBX 21 21 0 0
BITMAP
00f800
030600
0c0180
100040
200020
207020
408810
470710
880088
887288
88c888
88e888
88f888
487090
480090
27ff20
200020
100040
0c0180
030600
00f800
ENDCHAR
STARTCHAR streamline-real-estate-building-1--building-real-estate.png
ENCODING 615
DWIDTH 21 0
BBX 21 21 0 0
BITMAP
000000
800208
7ffff0
400210
5e7a10
524a10
565a10
5e7a10
5e7a10
400210
fffff8
800208
7ffff0
400210
5f7a10
514a10
515a10
557a10
517a10
510210
000000
ENDCHAR
STARTCHAR streamline-real-estate-building-2--building-real-estate.png
ENCODING 616
DWIDTH 21 0
BBX 21 21 0 0
BITMAP
3fffe0
2aaaa0
1fffc0
100040
177740
155540
177740
177740
100040
177740
155540
177740
177740
100040
1fffc0
112440
1f27c0
112440
112440
112440
7ffff0
ENDCHAR
STARTCHAR streamline-real-estate-building-3--building-real-estate.png
ENCODING 617
DWIDTH 21 0
BBX 21 21 0 0
BITMAP
002000
302000
485000
845000
79fc00
00a860
00a890
01fd08
0104f0
015400
010400
015400
010400
015400
710470
fbfef8
fa02f8
fafaf8
72aa70
22fa20
23fe20
ENDCHAR
STARTCHAR streamline-real-estate-building-4--building-real-estate.png
ENCODING 618
DWIDTH 21 0
BBX 21 21 0 0
BITMAP
006000
005800
044600
045100
1f4080
20cf80
4049c0
554fc0
7fc020
4059a0
554020
7fc7e0
4044e0
5557e0
404020
557fe0
404920
7f79e0
414920
414920
7fffe0
ENDCHAR
STARTCHAR streamline-real-estate-building-ad--building-real-estate.png
ENCODING 619
DWIDTH 21 0
BBX 21 21 0 0
BITMAP
7ff000
401000
525000
401000
7ff000
104000
104000
7ff000
401fe0
5cd540
401fe0
5cd010
401008
401ff8
5ef010
52b6d0
52f6d0
521010
521010
fffff8
b6d6d8
ENDCHAR
STARTCHAR streamline-real-estate-building-factory--building-real-estate.png
ENCODING 620
DWIDTH 21 0
BBX 21 21 0 0
BITMAP
000680
024900
058000
001c00
0e3e00
1f3e00
1f2200
113e00
1f2200
112200
112200
112200
112200
fffff8
840008
85fde8
852528
856d68
85fde8
840008
000000
ENDCHAR
STARTCHAR streamline-real-estate-building-house--building-real-estate.png
ENCODING 621
DWIDTH 21 0
BBX 21 21 0 0
BITMAP
01ff80
110080
116680
116680
7d0080
456080
ff6480
810e80
811b80
993180
9960c0
81c060
818030
9b3f98
9b0018
810e10
811110
991110
991910
811110
fffff0
ENDCHAR
STARTCHAR streamline-real-estate-sign-building--building-real-estate.png
ENCODING 622
DWIDTH 21 0
BBX 21 21 0 0
BITMAP
400000
a08040
bffff8
a08040
a08040
a3ffe0
a40010
a80c08
a80a08
a80908
a8f888
a90e48
a96848
a96f48
a90f48
a96848
a96f48
a90848
a9ffc8
a40010
a3ffe0
ENDCHAR
STARTCHAR streamline-romance-heart-lock--romance.png
ENCODING 623
DWIDTH 21 0
BBX 21 21 0 0
BITMAP
00f800
010400
020200
020200
020200
078f00
1850c0
202020
400010
400010
407010
40e810
40f810
207020
202020
102040
082080
040100
030600
00d800
002000
ENDCHAR
STARTCHAR streamline-romance-love-letter-open--romance.png
ENCODING 624
DWIDTH 21 0
BBX 21 21 0 0
BITMAP
00f800
010400
020200
1fffc0
100040
100040
300060
50d850
91fc48
91fc48
d0f858
b07068
8c2188
830608
80f808
810408
820208
840108
880088
500050
3fffe0
ENDCHAR
STARTCHAR streamline-school-science-bag--school-science.png
ENCODING 625
DWIDTH 21 0
BBX 21 21 0 0
BITMAP
007000
008800
008800
01fc00
060300
080080
085080
10f840
107040
102040
100040
700070
93fe48
940148
95fd48
948148
948148
940148
73fe70
100040
0fff80
ENDCHAR
STARTCHAR streamline-school-science-dna--school-science.png
ENCODING 626
DWIDTH 21 0
BBX 21 21 0 0
BITMAP
080100
0fff00
040200
030c00
00f000
010800
060600
0fff00
100080
100080
1fff80
100080
100080
0fff00
060600
010800
00f000
030c00
040200
0fff00
080100
ENDCHAR
STARTCHAR streamline-school-science-graduation-cap--school-science.png
ENCODING 627
DWIDTH 21 0
BBX 21 21 0 0
BITMAP
006000
019800
060600
180180
600060
807810
800790
600070
3801d0
260650
219850
206050
3000d0
2c0350
23fc50
100090
0c0310
03fc38
000038
000038
000038
ENDCHAR
STARTCHAR streamline-school-science-test-flask--school-science.png
ENCODING 628
DWIDTH 21 0
BBX 21 21 0 0
BITMAP
01fc00
008800
008800
008800
008800
008800
008800
030600
040100
080080
108840
100040
220120
202020
270320
2fc7a0
2fffa0
17ff40
13fe40
080080
07ff00
ENDCHAR
STARTCHAR streamline-search-coding--coding-apps-websites.png
ENCODING 629
DWIDTH 21 0
BBX 21 21 0 0
BITMAP
03e000
0c1800
100400
200200
400100
400100
845080
884880
908480
890880
851080
400100
400100
200380
1007c0
0c1f60
03e7b0
0003d0
0001f0
0000e0
000000
ENDCHAR
STARTCHAR streamline-search-user--users.png
ENCODING 630
DWIDTH 21 0
BBX 21 21 0 0
BITMAP
03e000
0c1800
100400
23e200
47f100
4ff900
8c1880
880880
8a2880
8a2880
880880
49c900
441100
23e380
1007c0
0c1f60
03e7b0
0003d0
0001f0
0000e0
000000
ENDCHAR
STARTCHAR streamline-send-email--email.png
ENCODING 631
DWIDTH 21 0
BBX 21 21 0 0
BITMAP
000000
7fff80
800040
800000
800ff8
971808
801418
8ba228
8021d0
972010
804020
807fe0
800000
ffffc0
ffffc0
ffffc0
7fff80
021000
040800
07f800
000000
ENDCHAR
STARTCHAR streamline-shopping-shipping-bag-1--shopping-shipping.png
ENCODING 632
DWIDTH 21 0
BBX 21 21 0 0
BITMAP
07de00
082100
082100
082100
fffff0
800770
800770
800770
800770
800770
800770
800770
800770
800770
800770
800770
800770
8006b0
8005d0
fffff0
000000
ENDCHAR
STARTCHAR streamline-shopping-shipping-bag-2--shopping-shipping.png
ENCODING 633
DWIDTH 21 0
BBX 21 21 0 0
BITMAP
000300
3dc480
432f40
549840
495eb0
5250f0
fffff0
8001f0
8001f0
8421f0
8421f0
83c1f0
8001f8
8001f8
8000f8
4000f8
4000f8
4000f0
4000e0
4000c0
3fff80
ENDCHAR
STARTCHAR streamline-shopping-shipping-barcode--shopping-shipping.png
ENCODING 634
DWIDTH 21 0
BBX 21 21 0 0
BITMAP
000000
000000
6b16a0
6b16a0
6b16a0
6b16a0
6b16a0
000000
fffff0
800010
fffff0
000000
6b16a0
6b16a0
6b16a0
6b16a0
6b16a0
6b16a0
000000
000000
000000
ENDCHAR
STARTCHAR streamline-shopping-shipping-basket--shopping-shipping.png
ENCODING 635
DWIDTH 21 0
BBX 21 21 0 0
BITMAP
002000
007000
03fe00
047100
042100
080080
080080
100040
100040
fffff8
442110
442110
7ffff0
442110
442110
442110
7ffff0
442110
242120
1fffc0
000000
ENDCHAR
STARTCHAR streamline-shopping-shipping-box--shopping-shipping.png
ENCODING 636
DWIDTH 21 0
BBX 21 21 0 0
BITMAP
000000
000000
000000
000000
fffff8
8009c8
8129c8
8129c8
8009c8
800888
800888
800888
b80888
800888
b80888
800888
fffff8
000000
000000
000000
000000
ENDCHAR
STARTCHAR streamline-shopping-shipping-cart--shopping-shipping.png
ENCODING 637
DWIDTH 21 0
BBX 21 21 0 0
BITMAP
c00000
200000
100000
100000
080000
080000
07fff0
040008
040008
024448
024450
024450
012490
0124a0
010020
00ffc0
010000
026180
01fff0
00f3c0
006180
ENDCHAR
STARTCHAR streamline-shopping-shipping-crack-1--shopping-shipping.png
ENCODING 638
DWIDTH 21 0
BBX 21 21 0 0
BITMAP
000000
03fe00
041100
042100
047100
041100
042100
044100
020200
020200
010400
00f800
002000
002000
002000
002000
01fc00
03fe00
03fe00
01fc00
000000
ENDCHAR
STARTCHAR streamline-shopping-shipping-crack-2--shopping-shipping.png
ENCODING 639
DWIDTH 21 0
BBX 21 21 0 0
BITMAP
001c00
033800
047100
04f900
043100
046100
04c100
040100
020200
020200
010400
00f800
002000
002000
002000
002000
01fc00
022200
020200
01fc00
000000
ENDCHAR
STARTCHAR streamline-shopping-shipping-delivery-person-motorcycle--shopping-shipping.png
ENCODING 640
DWIDTH 21 0
BBX 21 21 0 0
BITMAP
001ff8
001188
001188
0e1008
3310a8
4bd008
4910e8
3a1008
0a3ff8
127ff0
127ff0
222020
7a2790
864848
825328
f1f028
4ffff0
410820
220440
1c0380
000000
ENDCHAR
STARTCHAR streamline-shopping-shipping-delivery-truck--shopping-shipping.png
ENCODING 641
DWIDTH 21 0
BBX 21 21 0 0
BITMAP
000000
0c0000
330000
c0c000
b34000
8c4000
845000
845f80
c4d240
371260
8c12f0
8013f8
8011f8
fff008
801008
9c1388
a21448
6bfd70
220440
1c0380
000000
ENDCHAR
STARTCHAR streamline-shopping-shipping-discount-coupon--shopping-shipping.png
ENCODING 642
DWIDTH 21 0
BBX 21 21 0 0
BITMAP
000000
000000
000000
7fffe0
800010
800010
830610
878c10
c79830
233040
206040
20cc40
c19e30
831e10
860c10
800010
800010
7fffe0
000000
000000
000000
ENDCHAR
STARTCHAR streamline-shopping-shipping-loading-box--shopping-shipping.png
ENCODING 643
DWIDTH 21 0
BBX 21 21 0 0
BITMAP
000000
002000
002000
002000
00f800
007000
002000
fe03f8
410410
208820
1fffe0
201850
402848
ffc878
100840
100840
100840
100840
100840
1fffc0
000000
ENDCHAR
STARTCHAR streamline-shopping-shipping-products-gift--shopping-shipping.png
ENCODING 644
DWIDTH 21 0
BBX 21 21 0 0
BITMAP
2000c0
710180
200900
000010
470728
a8a890
4b5680
05dd08
1fffc0
200020
200020
3fffe0
127240
1fffc0
127240
127240
1fffc0
127240
0a7280
0a7280
0fff80
ENDCHAR
STARTCHAR streamline-shopping-shipping-receipt-slip--shopping-shipping.png
ENCODING 645
DWIDTH 21 0
BBX 21 21 0 0
BITMAP
622230
555550
488890
400010
400010
4c0010
4dc010
400210
4c0710
4dca90
400a10
4c0710
4dc290
400a90
4c0710
4dc210
400010
400010
488890
555550
622230
ENDCHAR
STARTCHAR streamline-shopping-shipping-shipment-deliver--shopping-shipping.png
ENCODING 646
DWIDTH 21 0
BBX 21 21 0 0
BITMAP
030000
0cc000
30b000
430800
743800
4ccb00
4308b8
410878
410838
410838
313038
8dc038
830038
700038
200038
200028
1fc028
0800f8
080738
07f800
000000
ENDCHAR
STARTCHAR streamline-shopping-shipping-shop--shopping-shipping.png
ENCODING 647
DWIDTH 21 0
BBX 21 21 0 0
BITMAP
0fff80
0fff80
125240
248920
488890
7ffff0
888888
888888
fffff8
400010
4f8f90
505250
505250
505fd0
545250
545250
505fd0
504010
504010
504010
000000
ENDCHAR
STARTCHAR streamline-shopping-shipping-upload-information--shopping-shipping.png
ENCODING 648
DWIDTH 21 0
BBX 21 21 0 0
BITMAP
3fffe0
400010
800008
800008
800008
820208
870708
8f8f88
9fdfc8
870708
870708
870708
870708
870708
800008
800008
8fff88
800008
800008
400010
3fffe0
ENDCHAR
STARTCHAR streamline-shopping-shipping-warehouse-truck-delivery--shopping-shipping.png
ENCODING 649
DWIDTH 21 0
BBX 21 21 0 0
BITMAP
000000
000000
003f00
304080
308040
310040
310040
320c40
321e40
341fe0
35d810
349008
f4f008
348808
3d04e8
352518
e30758
008910
0070e0
000000
000000
ENDCHAR
STARTCHAR streamline-shopping-shipping-weight-kg--shopping-shipping.png
ENCODING 650
DWIDTH 21 0
BBX 21 21 0 0
BITMAP
000000
01e000
033000
033000
01e000
1fff80
200380
2003c0
2003c0
2003c0
4931c0
4a41e0
4c59e0
8a48e0
8930f0
8000f0
8000f0
8000e0
8000c0
7fff80
000000
ENDCHAR
STARTCHAR streamline-single-user-shield--users.png
ENCODING 651
DWIDTH 21 0
BBX 21 21 0 0
BITMAP
01fc00
060300
1800c0
200020
21fc20
23fe20
27ff20
27ff20
27ff20
260320
240120
250520
250520
240120
127240
110440
08f880
040100
020200
018c00
007000
ENDCHAR
STARTCHAR streamline-social-rewards-certified-diploma--social-rewards.png
ENCODING 652
DWIDTH 21 0
BBX 21 21 0 0
BITMAP
fffff8
800008
bff8e8
a00228
ae0508
ae38e8
ae2728
a028a0
ae5050
a09048
ae5050
a028a0
a02728
bfb8e8
801dc8
ffdfd8
001fc0
001fc0
001dc0
0018c0
000000
ENDCHAR
STARTCHAR streamline-social-rewards-certified-ribbon--social-rewards.png
ENCODING 653
DWIDTH 21 0
BBX 21 21 0 0
BITMAP
0fff80
100040
100040
100040
100040
100240
100740
100e40
111c40
13b840
11f040
10e040
104040
100040
100040
102040
105040
108840
110440
120240
0c0180
ENDCHAR
STARTCHAR streamline-social-rewards-flag--social-rewards.png
ENCODING 654
DWIDTH 21 0
BBX 21 21 0 0
BITMAP
300000
480000
480000
300000
200000
3fc000
202000
203fe0
203010
203010
203010
203010
203010
203010
203010
3ff010
20e010
207fe0
200000
200000
200000
ENDCHAR
STARTCHAR streamline-social-rewards-heart-like-circle--social-rewards.png
ENCODING 655
DWIDTH 21 0
BBX 21 21 0 0
BITMAP
00f800
030600
0c0180
100040
200020
200020
438e10
47df10
8ff388
8ffd88
8ffd88
87ff08
83fe08
41fc10
40f810
207020
202020
100040
0c0180
030600
00f800
ENDCHAR
STARTCHAR streamline-social-rewards-like-bubble--social-rewards.png
ENCODING 656
DWIDTH 21 0
BBX 21 21 0 0
BITMAP
000000
002000
005000
008800
0f0780
082080
085080
085080
138c40
230220
430e10
230220
130e40
0b8480
087880
080080
0f0780
008800
005000
002000
000000
ENDCHAR
STARTCHAR streamline-social-rewards-like-circle--social-rewards.png
ENCODING 657
DWIDTH 21 0
BBX 21 21 0 0
BITMAP
00f800
030600
0c0180
101840
202420
204420
4e8810
4f1710
8e0888
8e0f88
8e1088
8e0f88
8a1088
4a0f10
4f0910
2efe20
200020
100040
0c0180
030600
00f800
ENDCHAR
STARTCHAR streamline-social-rewards-rating-star-1--social-rewards.png
ENCODING 658
DWIDTH 21 0
BBX 21 21 0 0
BITMAP
002000
005000
005000
008800
008800
010400
010400
7e03f0
800008
405010
300060
088880
047100
040100
080080
082080
105040
108840
230620
240120
1800c0
ENDCHAR
STARTCHAR streamline-social-rewards-rating-star-2--social-rewards.png
ENCODING 659
DWIDTH 21 0
BBX 21 21 0 0
BITMAP
002000
007000
007000
00e800
00e800
01e400
01e400
7fe3f0
e0e7f8
786e10
3e7c60
0fe180
073f00
046f00
08e780
09e380
13d1c0
1788c0
2f0660
3c0160
1800c0
ENDCHAR
STARTCHAR streamline-social-rewards-reward-gift--social-rewards.png
ENCODING 660
DWIDTH 21 0
BBX 21 21 0 0
BITMAP
3c03c0
436c20
5891a0
5e97a0
3effc0
639c60
9fff90
8e0710
ef9f70
5e67a0
4e0720
4f9f20
4e6720
4e0720
4e0720
6e0760
1e0780
060e00
019800
006000
000000
ENDCHAR
STARTCHAR streamline-social-rewards-trends-hot-flame--social-rewards.png
ENCODING 661
DWIDTH 21 0
BBX 21 21 0 0
BITMAP
07e000
021800
010400
008200
008100
008080
004040
084020
184020
244020
238020
200020
400020
40d820
41fc20
41fc40
40f840
207080
182100
040200
03fc00
ENDCHAR
STARTCHAR streamline-social-rewards-vip-crown-king--social-rewards.png
ENCODING 662
DWIDTH 21 0
BBX 21 21 0 0
BITMAP
000000
007000
008800
00a800
608830
b07068
902048
645130
6e8bb0
5f07d0
4e0390
442110
405010
7f8ff0
4d2590
7f8ff0
405010
402010
3fffe0
000000
000000
ENDCHAR
STARTCHAR streamline-technology-drone-camera--technology.png
ENCODING 663
DWIDTH 21 0
BBX 21 21 0 0
BITMAP
000000
000000
080080
7f07f0
080080
08f880
090480
7e03f0
80f808
7ffff0
03fe00
01fc00
022200
042100
04f900
010400
012400
010400
00f800
000000
000000
ENDCHAR
STARTCHAR streamline-technology-drone-signal--technology.png
ENCODING 664
DWIDTH 21 0
BBX 21 21 0 0
BITMAP
000000
200020
f800f8
200020
70f870
89fc88
ff8ff8
7f77f0
1e8bc0
017400
035600
057500
048900
007000
000000
008800
027200
010400
00f800
000000
000000
ENDCHAR
STARTCHAR streamline-technology-robot-ai-signal-1--technology.png
ENCODING 665
DWIDTH 21 0
BBX 21 21 0 0
BITMAP
107040
22fa20
24f920
24f920
227220
102040
002000
07ff00
080080
100040
330660
548950
548950
532650
507050
500050
31fc60
10f840
107040
080080
07ff00
ENDCHAR
STARTCHAR streamline-technology-robot-ai-signal-2--technology.png
ENCODING 666
DWIDTH 21 0
BBX 21 21 0 0
BITMAP
092480
125240
092480
002000
03fe00
05fd00
08f880
080080
2a8aa0
3b8ee0
2904a0
080080
082080
087080
040100
03fe00
010400
1fffc0
200020
3dfde0
250520
ENDCHAR
STARTCHAR streamline-technology-robot-ai--technology.png
ENCODING 667
DWIDTH 21 0
BBX 21 21 0 0
BITMAP
007000
008800
007000
002000
002000
402010
43fe10
440110
480090
480090
500050
730670
f48978
f48978
f30678
f00078
707070
100040
0fff80
040100
03fe00
ENDCHAR
STARTCHAR streamline-transportation-bicycle--transportation.png
ENCODING 668
DWIDTH 21 0
BBX 21 21 0 0
BITMAP
000000
000000
000000
001c00
0c0300
0f0100
0f8100
020100
03ff00
3e03e0
450510
888908
908908
9ff888
808808
808808
410410
3e03e0
000000
000000
000000
ENDCHAR
STARTCHAR streamline-transportation-helicopter--transportation.png
ENCODING 669
DWIDTH 21 0
BBX 21 21 0 0
BITMAP
000000
000000
ffff00
010000
010000
038030
0fe048
181848
2407f8
740010
fce020
f910c0
f11300
811200
411400
3ff800
102000
502800
3ff000
000000
000000
ENDCHAR
STARTCHAR streamline-transportation-motorcycle--transportation.png
ENCODING 670
DWIDTH 21 0
BBX 21 21 0 0
BITMAP
000000
000000
0e0000
330000
4bc000
490000
3a0000
0a3fe0
127ff0
127ff0
222020
7a2790
864848
825328
f1f028
4ffff0
410820
220440
1c0380
000000
000000
ENDCHAR
STARTCHAR streamline-transportation-plane--transportation.png
ENCODING 671
DWIDTH 21 0
BBX 21 21 0 0
BITMAP
000000
000000
000600
001938
002148
004248
008488
1fff08
300008
495078
8807f0
f07fe0
83f180
7fc080
3fe040
001820
000610
000190
000060
000000
000000
ENDCHAR
STARTCHAR streamline-transportation-train--transportation.png
ENCODING 672
DWIDTH 21 0
BBX 21 21 0 0
BITMAP
1fffc0
200020
407010
400010
7ffff0
402010
402010
402010
402010
402010
7ffff0
400010
4c0190
527250
527250
4c0190
200020
1fffc0
060300
0c0180
1800c0
ENDCHAR
STARTCHAR streamline-transportation-truck--transportation.png
ENCODING 673
DWIDTH 21 0
BBX 21 21 0 0
BITMAP
000000
000000
000000
7fe000
801000
801f80
bfd240
801260
bfd2f0
8013f8
8011f8
fff008
801008
9c1388
a21448
6bfd70
220440
1c0380
000000
000000
000000
ENDCHAR
STARTCHAR streamline-transportation-vintage-train--transportation.png
ENCODING 674
DWIDTH 21 0
BBX 21 21 0 0
BITMAP
7ff000
800800
fff000
804000
804fc0
bf5020
a14fc0
a14480
a12480
a11fc0
bf0020
800010
800010
800010
8e0710
910890
a69650
67fe68
269640
110880
0e0700
ENDCHAR
STARTCHAR streamline-travel-wayfinding-balloon--travel-wayfinding.png
ENCODING 675
DWIDTH 21 0
BBX 21 21 0 0
BITMAP
01fc00
068b00
088880
088880
108840
110440
110440
110440
110440
110440
110440
090480
088880
048900
028a00
01fc00
008800
008800
01fc00
01fc00
00f800
ENDCHAR
STARTCHAR streamline-travel-wayfinding-beach-coconut-tree--travel-wayfinding.png
ENCODING 676
DWIDTH 21 0
BBX 21 21 0 0
BITMAP
000000
001f80
3e2040
414020
9c8fd0
a21030
5e1f00
200080
46ec40
8af320
9558a0
a96c40
a92c00
4a3600
041600
001e78
03de80
041700
781700
803f80
000000
ENDCHAR
STARTCHAR streamline-travel-wayfinding-beach-umbrella--travel-wayfinding.png
ENCODING 677
DWIDTH 21 0
BBX 21 21 0 0
BITMAP
01f800
078600
1c6180
241040
241040
480980
480e00
481800
846000
85c000
864000
982000
602000
001000
007c00
0182f0
020908
1c6068
216568
480008
000000
ENDCHAR
STARTCHAR streamline-travel-wayfinding-pool-ladder--travel-wayfinding.png
ENCODING 678
DWIDTH 21 0
BBX 21 21 0 0
BITMAP
380e00
441100
441100
040100
040100
040100
07ff00
040100
040100
040100
040100
07ff00
040100
040100
3c71e0
7cf9f0
c78f18
3870e0
c78f18
3870e0
000000
ENDCHAR
STARTCHAR streamline-ui-design-website--design.png
ENCODING 679
DWIDTH 21 0
BBX 21 21 0 0
BITMAP
000000
7ffff0
800008
aa0008
800008
fffff8
800008
9ffe08
900208
900208
900208
910708
9b8888
87d048
8fd048
9fd048
800888
800708
800008
7ffff0
000000
ENDCHAR
STARTCHAR streamline-user-gender-female-male--users.png
ENCODING 680
DWIDTH 21 0
BBX 21 21 0 0
BITMAP
0001e0
000060
0000a0
003920
00c600
070100
194100
222080
222080
421080
411100
411100
20a600
203800
18c000
070000
020000
020000
0f8000
020000
020000
ENDCHAR
STARTCHAR streamline-user-gender-female--users.png
ENCODING 681
DWIDTH 21 0
BBX 21 21 0 0
BITMAP
00f800
030600
040100
080080
080080
100040
100040
100040
100040
100040
080080
080080
040100
030600
00f800
002000
002000
002000
00f800
002000
002000
ENDCHAR
STARTCHAR streamline-user-gender-gay--users.png
ENCODING 682
DWIDTH 21 0
BBX 21 21 0 0
BITMAP
0001e0
000060
0000a0
003920
00c600
070100
194100
222080
222080
421080
411100
411100
20a600
203800
18c000
070000
020000
020000
0a8000
070000
020000
ENDCHAR
STARTCHAR streamline-user-gender-lesbian--users.png
ENCODING 683
DWIDTH 21 0
BBX 21 21 0 0
BITMAP
000020
000140
000080
003940
00c600
070100
194100
222080
222080
421080
411100
411100
20a600
203800
18c000
070000
020000
020000
0f8000
020000
020000
ENDCHAR
STARTCHAR streamline-user-gender-male--users.png
ENCODING 684
DWIDTH 21 0
BBX 21 21 0 0
BITMAP
000000
0001f0
000030
000050
000090
03e110
0c1a00
100400
200200
200200
400100
400100
400100
400100
400100
200200
200200
100400
0c1800
03e000
000000
ENDCHAR
STARTCHAR streamline-user-man-love--users.png
ENCODING 685
DWIDTH 21 0
BBX 21 21 0 0
BITMAP
0e0000
1f0440
3f8ee0
318fe0
2087c0
208380
110100
0e0000
110000
248000
444000
444000
514000
514000
5f4000
5f4000
3f8000
1f0000
1b0000
1b0000
1b0000
ENDCHAR
STARTCHAR streamline-user-single-aim--users.png
ENCODING 686
DWIDTH 21 0
BBX 21 21 0 0
BITMAP
002000
00f800
032600
0c0180
10f840
11fc40
23fe20
230620
420210
428a10
e28a38
420210
427210
210420
20f820
130640
140140
0c0180
032600
00f800
002000
ENDCHAR
STARTCHAR streamline-user-sleep--users.png
ENCODING 687
DWIDTH 21 0
BBX 21 21 0 0
BITMAP
0e00c0
110020
208040
208080
208c60
208200
110400
0e0800
110600
208000
404000
404000
514000
514000
514000
514000
358000
150000
150000
150000
1f0000
ENDCHAR
STARTCHAR streamline-user-woman-increasing-arrow--users.png
ENCODING 688
DWIDTH 21 0
BBX 21 21 0 0
BITMAP
1f0000
3f8070
3b8230
71c550
60c880
60d000
318000
0e1ff0
110000
248000
404000
444000
514000
514000
5f4000
5f4000
3f8000
1f0000
150000
150000
1f0000
ENDCHAR
STARTCHAR streamline-video-movies-play--video-movies.png
ENCODING 689
DWIDTH 21 0
BBX 21 21 0 0
BITMAP
3fffc0
400020
818010
800010
819810
800010
999990
800010
999990
800010
820010
9fff90
820010
800010
844210
886110
907090
886110
844210
400020
3fffc0
ENDCHAR
STARTCHAR streamline-video-movies-set-equipment--video-movies.png
ENCODING 690
DWIDTH 21 0
BBX 21 21 0 0
BITMAP
0000f0
000f30
00f390
0f39f0
f39f00
b9f000
9f0000
f00000
800000
fffff0
ce7390
9ce730
fffff0
800010
800010
8fe290
8007d0
8fe390
800110
800010
7fffe0
ENDCHAR
STARTCHAR streamline-video-movies-vintage-tv-2--video-movies.png
ENCODING 691
DWIDTH 21 0
BBX 21 21 0 0
BITMAP
7ffff0
c00008
8ff8e8
9bfca8
b5eee8
add608
babae8
b56ea8
add6e8
beba08
bf7ee8
9ffc08
8ff8e8
800008
7ffff0
0a0280
0a0280
140140
140140
140140
1800c0
ENDCHAR
STARTCHAR streamline-video-movies-vintage-tv-3--video-movies.png
ENCODING 692
DWIDTH 21 0
BBX 21 21 0 0
BITMAP
000000
020400
010800
009000
006000
7ffff0
800078
9ff378
ad6b78
ad6878
ad6b78
ad6b78
ad6878
ad6878
ad6b78
ad6878
9ff378
800078
7ffff0
000000
000000
ENDCHAR
STARTCHAR streamline-vintage-phone--phone.png
ENCODING 693
DWIDTH 21 0
BBX 21 21 0 0
BITMAP
1fff80
200040
400020
87fe10
880110
880110
7000e0
079e00
049200
0cf300
100080
20f040
210840
426420
42f420
42f420
426420
410820
40f020
200040
1fff80
ENDCHAR
STARTCHAR streamline-weather-cloud-sun-fine--weather.png
ENCODING 694
DWIDTH 21 0
BBX 21 21 0 0
BITMAP
000000
000200
004210
002020
000700
00ff80
018fc0
0203d8
0401c0
0401c0
3c0220
420410
810008
800008
800008
800008
800010
400020
3fffc0
000000
000000
ENDCHAR
STARTCHAR streamline-weather-cresent-moon-stars--weather.png
ENCODING 695
DWIDTH 21 0
BBX 21 21 0 0
BITMAP
000040
0000e0
83e040
0c1800
100400
20fc80
210000
420020
420070
421020
423800
421000
420100
210000
20fc20
100400
0c1800
03e100
000380
400100
000000
ENDCHAR
STARTCHAR streamline-weather-meteor--weather.png
ENCODING 696
DWIDTH 21 0
BBX 21 21 0 0
BITMAP
000248
001490
006120
008448
030090
0c1020
102208
200040
43c880
47e010
8f3220
9fd840
9fe840
9fe880
9ff880
8ff100
47e100
43c600
200800
1c3000
03c000
ENDCHAR
STARTCHAR streamline-weather-moon--weather.png
ENCODING 697
DWIDTH 21 0
BBX 21 21 0 0
BITMAP
000000
000000
00f800
030600
040100
08c080
10c440
100040
240620
200620
2c4020
2c0120
200020
101840
111840
080080
044100
030600
00f800
000000
000000
ENDCHAR
STARTCHAR streamline-weather-rainbow--weather.png
ENCODING 698
DWIDTH 21 0
BBX 21 21 0 0
BITMAP
0003e0
001c10
00e010
030010
040010
0803f0
101ff0
107ff0
20fc10
21f010
21e010
43c010
4383e0
438400
870800
870800
870800
870800
870800
7ff000
000000
ENDCHAR
STARTCHAR streamline-weather-snowman--weather.png
ENCODING 699
DWIDTH 21 0
BBX 21 21 0 0
BITMAP
000600
000f00
00ff80
010780
020300
028a00
020200
027200
010400
020200
040100
082080
087080
102040
100040
100040
082080
087080
042100
030600
00f800
ENDCHAR
STARTCHAR streamline-weather-temperature-thermometer--weather.png
ENCODING 700
DWIDTH 21 0
BBX 21 21 0 0
BITMAP
030000
048000
048000
048780
048000
048000
048000
048780
048000
048000
078000
078780
078000
078000
0fc000
1f6000
1fa000
1fa000
1fe000
0fc000
078000
ENDCHAR
STARTCHAR streamline-weather-umbrella-snowing--weather.png
ENCODING 701
DWIDTH 21 0
BBX 21 21 0 0
BITMAP
040040
200c00
008c10
000000
180100
182000
41fc30
065330
088880
108840
110440
210420
210420
3fffe0
002000
002000
002000
002000
002000
012000
00c000
ENDCHAR
STARTCHAR streamline-weather-umbrella--weather.png
ENCODING 702
DWIDTH 21 0
BBX 21 21 0 0
BITMAP
002000
002000
01fc00
060300
080080
108840
210420
210420
420210
420210
800008
9870c8
a4a928
432610
002000
002000
002000
002000
002000
012000
00c000
ENDCHAR
STARTCHAR streamline-weather-wind-flag--weather.png
ENCODING 703
DWIDTH 21 0
BBX 21 21 0 0
BITMAP
0007c0
603920
984210
03c4c8
0445e8
1c45e8
2445e8
2445e8
1c45e8
0445e8
03c4c8
004210
383920
c407c0
038080
000080
000080
007080
018e80
000080
000080
ENDCHAR
ENDFONT
